<svg width="18" height="18" viewBox="0 0 18 18" fill="none" xmlns="http://www.w3.org/2000/svg">
<path fill-rule="evenodd" clip-rule="evenodd" d="M6.03715 2.1572H14.3988C14.3685 2.06139 14.3389 1.96751 14.3098 1.87507C14.2358 1.64036 14.1647 1.41485 14.0921 1.1901C13.7779 0.217632 12.9482 -0.215982 12.0066 0.104113C10.2968 0.685505 8.58738 1.26954 6.87801 1.85356C6.64497 1.93317 6.41193 2.01279 6.1789 2.0924C6.15485 2.10067 6.13192 2.11182 6.10132 2.1267C6.08322 2.13551 6.06244 2.14561 6.03715 2.1572ZM0.000472489 16.0496V4.41365C0.0032033 4.40906 0.00628388 4.40456 0.00936843 4.40005C0.0164241 4.38973 0.0235005 4.37938 0.0264594 4.36786C0.200335 3.7189 0.6303 3.37201 1.27761 3.37201C6.21559 3.37103 11.1531 3.37055 16.0911 3.37201C16.8584 3.37201 17.364 3.90111 17.3654 4.69477C17.3663 5.18589 17.366 5.67723 17.3657 6.1685L17.3657 6.17733C17.3655 6.41999 17.3654 6.66264 17.3654 6.90523V7.28135H17.1424C16.716 7.28135 16.2897 7.28119 15.8633 7.28103L15.8596 7.28103C15.0044 7.2807 14.1492 7.28038 13.2939 7.28135C12.3272 7.28281 11.6582 7.96442 11.6511 8.96319C11.645 9.80849 11.6459 10.6543 11.6511 11.5001C11.6572 12.5096 12.323 13.1858 13.3043 13.1863C14.1633 13.1869 15.0226 13.1867 15.8817 13.1865L17.1702 13.1863H17.3654C17.3654 13.4807 17.3655 13.7723 17.3657 14.062V14.0667V14.0697C17.366 14.6456 17.3663 15.2141 17.3654 15.7826C17.364 16.5719 16.8523 17.0961 16.0845 17.0981C15.8038 17.0987 15.5234 17.0985 15.2429 17.0983H15.241L14.8191 17.0981H1.28848C0.635498 17.0981 0.203643 16.759 0.0283493 16.1144C0.0242544 16.0991 0.0172194 16.0847 0.0101845 16.0703L0.010183 16.0703C0.00666619 16.0631 0.00314941 16.0559 0 16.0486L0.000472489 16.0496ZM15.2591 8.17236C15.4778 8.17236 15.6966 8.1722 15.9153 8.17204H15.9153C16.3527 8.17171 16.79 8.17139 17.2274 8.17236C17.7198 8.17383 17.9981 8.46371 17.999 8.97284C18 9.81863 18 10.6644 17.999 11.5097C17.9981 12.0013 17.7094 12.3053 17.236 12.3058C15.9177 12.3083 14.5999 12.3078 13.2817 12.3058C12.8016 12.3053 12.5134 12.0086 12.5125 11.518C12.5111 10.66 12.5106 9.80256 12.5125 8.94459C12.5134 8.47053 12.7974 8.17431 13.2557 8.17236C13.7326 8.17028 14.2098 8.17067 14.6868 8.17107H14.6869C14.8776 8.17123 15.0684 8.17139 15.2591 8.17139V8.17236ZM13.6025 10.2323C13.6006 10.8111 14.0509 11.2832 14.6117 11.291C15.1731 11.2988 15.6437 10.815 15.6418 10.2328C15.6399 9.65445 15.1844 9.18819 14.6207 9.18868C14.0547 9.18868 13.6039 9.65104 13.6025 10.2323Z" fill="url(#paint0_linear_418_55823)"/>
<defs>
<linearGradient id="paint0_linear_418_55823" x1="3.35271e-08" y1="8.54925" x2="17.9997" y2="8.54925" gradientUnits="userSpaceOnUse">
<stop stop-color="#F6E79A"/>
<stop offset="1" stop-color="#D2BB6E"/>
</linearGradient>
</defs>
</svg>
