<svg width="29" height="22" viewBox="0 0 29 22" fill="none" xmlns="http://www.w3.org/2000/svg">
<path fill-rule="evenodd" clip-rule="evenodd" d="M14.6545 0.00113488C10.3758 -0.059604 6.64627 2.32314 4.77519 5.84426H2.74231C1.3792 5.84426 0.279297 6.94416 0.279297 8.30727V12.2644C0.279297 13.6276 1.3792 14.7275 2.74231 14.7275H4.49615H5.49615V13.7275V10.9953C5.49615 9.70063 5.76972 8.46992 6.2622 7.35775C6.29981 7.29502 6.33074 7.22783 6.354 7.15715C6.83373 6.14214 7.49783 5.23133 8.30309 4.46785L14.6261 2.00093C19.4837 2.07276 23.4222 5.83579 23.4936 10.8685C23.565 15.8981 19.5117 19.9984 14.4993 19.9984C13.947 19.9984 13.4993 20.4461 13.4993 20.9984C13.4993 21.5507 13.947 21.9984 14.4993 21.9984C19.2641 21.9984 23.3193 18.9674 24.8462 14.7296H26.2562C27.6194 14.7296 28.7193 13.6297 28.7193 12.2666V8.30938C28.7193 6.94627 27.6194 5.84637 26.2562 5.84637H24.2521C22.4338 2.35649 18.8092 0.0623342 14.655 0.00114245L14.6545 0.00113488ZM8.30323 4.46772L8.30309 4.46785L4.77519 5.84426L8.30323 4.46772ZM14.6255 2.00093C12.1753 1.96629 9.94567 2.91055 8.30323 4.46772L14.6255 2.00093ZM25.0525 7.84637C25.3255 8.78983 25.4786 9.79269 25.4934 10.8401C25.5026 11.4839 25.4564 12.1152 25.3594 12.7296H26.2562C26.5148 12.7296 26.7193 12.5251 26.7193 12.2666V8.30938C26.7193 8.05084 26.5148 7.84637 26.2562 7.84637H25.0525ZM2.74231 7.84426H3.95441C3.65629 8.8424 3.49615 9.90012 3.49615 10.9953V12.7275H2.74231C2.48377 12.7275 2.2793 12.523 2.2793 12.2644V8.30727C2.2793 8.04873 2.48377 7.84426 2.74231 7.84426ZM14.5517 5.75489C11.7813 5.75489 9.53219 8.00405 9.53219 10.7744C9.53219 11.8199 9.84776 12.7797 10.3907 13.5794L10.7775 14.1491L10.3832 14.7137C10.1882 14.9928 9.95281 15.2926 9.73977 15.5639L9.67914 15.6412C9.63826 15.6933 9.59843 15.7442 9.55977 15.7939H14.5517C17.322 15.7939 19.5712 13.5447 19.5712 10.7744C19.5712 8.00405 17.322 5.75489 14.5517 5.75489ZM8.33829 15.7939C8.32505 15.7939 8.32648 15.7928 8.33928 15.7939H8.33829ZM8.94521 16.6844C8.94372 16.6892 8.94273 16.6917 8.9426 16.6917C8.94248 16.6918 8.94323 16.6894 8.94521 16.6844ZM7.53219 10.7744C7.53219 6.89948 10.6768 3.75489 14.5517 3.75489C18.4266 3.75489 21.5712 6.89948 21.5712 10.7744C21.5712 14.6493 18.4266 17.7939 14.5517 17.7939H8.33829C8.11748 17.7939 7.76778 17.7607 7.45546 17.5311C7.07761 17.2532 6.9565 16.8455 6.96354 16.5143C6.96955 16.2318 7.06371 15.9877 7.13656 15.8294C7.21634 15.656 7.31766 15.4869 7.41792 15.3345C7.61718 15.0315 7.87415 14.7018 8.10545 14.4069L8.1597 14.3378C8.22868 14.2499 8.29559 14.1646 8.3599 14.0819C7.83089 13.0967 7.53219 11.9721 7.53219 10.7744ZM15.3542 10.9987C15.3542 11.4611 14.9793 11.836 14.5169 11.836C14.0545 11.836 13.6796 11.4611 13.6796 10.9987C13.6796 10.5363 14.0545 10.1615 14.5169 10.1615C14.9793 10.1615 15.3542 10.5363 15.3542 10.9987ZM17.0364 11.836C17.4988 11.836 17.8737 11.4611 17.8737 10.9987C17.8737 10.5363 17.4988 10.1615 17.0364 10.1615C16.574 10.1615 16.1992 10.5363 16.1992 10.9987C16.1992 11.4611 16.574 11.836 17.0364 11.836ZM12.6567 10.9987C12.6567 11.4611 12.2819 11.836 11.8195 11.836C11.3571 11.836 10.9822 11.4611 10.9822 10.9987C10.9822 10.5363 11.3571 10.1615 11.8195 10.1615C12.2819 10.1615 12.6567 10.5363 12.6567 10.9987Z" fill="white"/>
</svg>
