<svg width="29" height="22" viewBox="0 0 29 22" fill="none" xmlns="http://www.w3.org/2000/svg">
<path fill-rule="evenodd" clip-rule="evenodd" d="M14.3752 0.00113493C10.0965 -0.0596039 6.36697 2.32314 4.49589 5.84426H2.46301C1.0999 5.84426 0 6.94416 0 8.30727V12.2644C0 13.6276 1.0999 14.7275 2.46301 14.7275H4.21686H5.21686V13.7275V10.9953C5.21686 9.70063 5.49042 8.46992 5.9829 7.35775C6.02051 7.29502 6.05144 7.22783 6.0747 7.15715C6.55443 6.14214 7.21853 5.23133 8.02379 4.46785L14.3468 2.00093C19.2044 2.07276 23.1429 5.83579 23.2144 10.8685C23.2857 15.8981 19.2324 19.9984 14.22 19.9984C13.6677 19.9984 13.22 20.4461 13.22 20.9984C13.22 21.5507 13.6677 21.9984 14.22 21.9984C18.9848 21.9984 23.04 18.9674 24.5669 14.7296H25.9769C27.3401 14.7296 28.44 13.6297 28.44 12.2666V8.30938C28.44 6.94627 27.3401 5.84637 25.9769 5.84637H23.9728C22.1545 2.35649 18.5299 0.0623342 14.3757 0.0011425L14.3752 0.00113493ZM8.02393 4.46772L8.02379 4.46785L4.49589 5.84426L8.02393 4.46772ZM14.3462 2.00093C11.896 1.96629 9.66638 2.91055 8.02393 4.46772L14.3462 2.00093ZM24.7732 7.84637C25.0462 8.78983 25.1993 9.79269 25.2142 10.8401C25.2233 11.4839 25.1771 12.1152 25.0801 12.7296H25.9769C26.2355 12.7296 26.44 12.5251 26.44 12.2666V8.30938C26.44 8.05084 26.2355 7.84637 25.9769 7.84637H24.7732ZM2.46301 7.84426H3.67511C3.37699 8.8424 3.21686 9.90012 3.21686 10.9953V12.7275H2.46301C2.20447 12.7275 2 12.523 2 12.2644V8.30727C2 8.04873 2.20447 7.84426 2.46301 7.84426ZM14.2724 5.75489C11.502 5.75489 9.25289 8.00405 9.25289 10.7744C9.25289 11.8199 9.56847 12.7797 10.1114 13.5794L10.4982 14.1491L10.1039 14.7137C9.90892 14.9928 9.67352 15.2926 9.46048 15.5639L9.39984 15.6412C9.35896 15.6933 9.31914 15.7442 9.28047 15.7939H14.2724C17.0427 15.7939 19.2919 13.5447 19.2919 10.7744C19.2919 8.00405 17.0427 5.75489 14.2724 5.75489ZM8.059 15.7939C8.04575 15.7939 8.04718 15.7928 8.05998 15.7939H8.059ZM8.66592 16.6844C8.66443 16.6892 8.66343 16.6917 8.66331 16.6917C8.66318 16.6918 8.66393 16.6894 8.66592 16.6844ZM7.25289 10.7744C7.25289 6.89948 10.3975 3.75489 14.2724 3.75489C18.1473 3.75489 21.2919 6.89948 21.2919 10.7744C21.2919 14.6493 18.1473 17.7939 14.2724 17.7939H8.059C7.83818 17.7939 7.48848 17.7607 7.17616 17.5311C6.79831 17.2532 6.6772 16.8455 6.68425 16.5143C6.69025 16.2318 6.78441 15.9877 6.85726 15.8294C6.93704 15.656 7.03837 15.4869 7.13863 15.3345C7.33788 15.0315 7.59485 14.7018 7.82615 14.4069L7.8804 14.3378C7.94938 14.2499 8.0163 14.1646 8.0806 14.0819C7.5516 13.0967 7.25289 11.9721 7.25289 10.7744ZM15.0749 10.9987C15.0749 11.4611 14.7 11.836 14.2376 11.836C13.7752 11.836 13.4003 11.4611 13.4003 10.9987C13.4003 10.5363 13.7752 10.1615 14.2376 10.1615C14.7 10.1615 15.0749 10.5363 15.0749 10.9987ZM16.7571 11.836C17.2195 11.836 17.5944 11.4611 17.5944 10.9987C17.5944 10.5363 17.2195 10.1615 16.7571 10.1615C16.2947 10.1615 15.9199 10.5363 15.9199 10.9987C15.9199 11.4611 16.2947 11.836 16.7571 11.836ZM12.3774 10.9987C12.3774 11.4611 12.0026 11.836 11.5402 11.836C11.0778 11.836 10.7029 11.4611 10.7029 10.9987C10.7029 10.5363 11.0778 10.1615 11.5402 10.1615C12.0026 10.1615 12.3774 10.5363 12.3774 10.9987Z" fill="white"/>
</svg>
