<svg width="37" height="27" viewBox="0 0 37 27" fill="none" xmlns="http://www.w3.org/2000/svg">
<path d="M5.36426 25.9956L6.25597 25.7377C8.22747 25.1679 10.2328 24.7429 12.2158 24.4755C12.8469 24.392 13.4482 24.3254 14.0512 24.2725C15.2457 24.207 16.4616 24.1626 17.6643 24.1414C17.8936 24.1372 18.118 24.134 18.339 24.1309C18.5601 24.134 18.7845 24.1383 19.0138 24.1414C20.2165 24.1626 21.4324 24.207 22.6268 24.2725C23.2298 24.3254 23.8304 24.392 24.463 24.4755C26.4444 24.7429 28.4498 25.1679 30.4213 25.7377L31.313 25.9956" stroke="white" stroke-width="1.69231"/>
<path d="M28.6046 10.5525L29.2513 10.1246C30.5865 9.24139 32.3603 8.8198 33.5256 8.6228L35.1457 8.34892L34.4278 9.82685C33.2777 12.1942 32.3195 14.6739 31.5685 17.2104L31.5684 17.2107C31.2409 18.315 30.9462 19.4503 30.6978 20.5853L30.516 21.4159L29.6863 21.23C27.844 20.8174 25.9634 20.507 24.0872 20.3102C23.5059 20.2507 22.9359 20.2018 22.3617 20.1625C21.2294 20.1139 20.096 20.0827 18.9675 20.0667C18.9674 20.0667 18.9674 20.0666 18.9673 20.0666L18.906 20.0658C18.711 20.063 18.5217 20.0604 18.3348 20.0583C18.2266 20.0599 18.1132 20.0613 17.9996 20.0627C17.8985 20.064 17.7972 20.0653 17.6992 20.0667M28.6046 10.5525L17.6873 19.2206M28.6046 10.5525L28.9745 11.234M28.6046 10.5525L28.9745 11.234M17.6992 20.0667L17.6873 19.2206M17.6992 20.0667C17.6992 20.0667 17.6993 20.0666 17.6993 20.0666L17.6873 19.2206M17.6992 20.0667C16.5709 20.0827 15.4372 20.1146 14.3042 20.1626M17.6873 19.2206C16.5477 19.2368 15.4025 19.2691 14.258 19.3176M14.3042 20.1626C14.3076 20.1623 14.311 20.1621 14.3144 20.1619L14.258 19.3176M14.3042 20.1626C13.7312 20.201 13.1616 20.2506 12.5795 20.3102M14.3042 20.1626C14.3007 20.1627 14.2973 20.1629 14.2938 20.163L14.258 19.3176M14.258 19.3176L12.5795 20.3102M12.5795 20.3102C12.5799 20.3102 12.5802 20.3102 12.5806 20.3101L12.4923 19.4686L12.5785 20.3103C12.5788 20.3103 12.5792 20.3103 12.5795 20.3102ZM29.8712 20.4043C29.7117 20.3686 29.5519 20.3336 29.3919 20.2994L29.8712 20.4043ZM29.8712 20.4043L29.9695 19.9658C29.936 20.1119 29.9032 20.2581 29.8712 20.4043ZM33.6667 9.45712L33.8077 10.2914C33.6209 10.323 33.4237 10.3599 33.22 10.4026C33.3656 10.0856 33.5145 9.77041 33.6667 9.45712ZM33.6667 9.45712L32.9056 9.08738C32.8118 9.28031 32.7194 9.47393 32.6281 9.66824C32.9985 9.57955 33.3513 9.51042 33.6667 9.45712ZM3 9.45712C3.3154 9.51065 3.66828 9.57989 4.0388 9.66864C3.94746 9.47416 3.85488 9.28036 3.76105 9.08729L3 9.45712ZM3 9.45712L2.85841 10.2913C3.04548 10.3231 3.24293 10.3601 3.44688 10.4029C3.30125 10.0858 3.15228 9.7705 3 9.45712ZM6.79541 20.4043L6.69847 19.9715C6.7315 20.1157 6.76383 20.26 6.79541 20.4043ZM6.79541 20.4043L7.27479 20.2994C7.11473 20.3336 6.95493 20.3686 6.79541 20.4043ZM28.9745 11.234C29.2604 11.7606 29.4243 12.3677 29.4243 13.0161C29.4243 15.0633 27.8003 16.6955 25.8304 16.6955C23.8605 16.6955 22.2365 15.0633 22.2365 13.0161C22.2365 11.9411 22.6857 10.9783 23.3998 10.307L23.8811 9.85456M28.9745 11.234L23.8811 9.85456M23.8811 9.85456L23.559 9.27789M23.8811 9.85456L23.559 9.27789M23.559 9.27789C23.265 8.7515 22.8764 8.08261 22.4197 7.35611M23.559 9.27789L22.4197 7.35611M22.4197 7.35611C21.7191 6.04539 20.8169 4.54482 19.8073 3.33938L22.4197 7.35611ZM5.90947 16.9701L5.0981 17.2103C5.09811 17.2103 5.09812 17.2103 5.09813 17.2104L5.90947 16.9701ZM14.2469 7.35612C14.2421 7.36507 14.2374 7.37401 14.2326 7.38294L14.9792 7.78122L14.2631 7.3304C14.2577 7.33898 14.2523 7.34755 14.2469 7.35612Z" stroke="white" stroke-width="1.69231"/>
</svg>
