<svg width="19" height="22" viewBox="0 0 19 22" fill="none" xmlns="http://www.w3.org/2000/svg">
<rect x="1.5" y="1" width="14.5829" height="18.0797" rx="1" stroke="white" stroke-width="2"/>
<path fill-rule="evenodd" clip-rule="evenodd" d="M13.2778 5.91602H4.35352V4.41602H13.2778V5.91602ZM13.2778 8.42108H4.35352V6.92108H13.2778V8.42108ZM13.2778 10.9262H4.35352V9.42615H13.2778V10.9262ZM8.81567 13.4312H4.35352V11.9312H8.81567V13.4312Z" fill="white"/>
<circle cx="14.0383" cy="16.7356" r="4.46215" fill="white"/>
<path d="M14.4314 13.4609V14.412H13.9117V13.4609H14.4314ZM14.366 18.7979V19.6803H13.8464V18.7979H14.366ZM14.585 17.7063C14.585 17.5865 14.5664 17.4873 14.5294 17.4089C14.4924 17.3305 14.4325 17.2618 14.3497 17.203C14.2669 17.1442 14.1568 17.0853 14.0196 17.0265C13.7298 16.9089 13.4738 16.7879 13.2515 16.6638C13.0315 16.5396 12.8583 16.3849 12.7319 16.1997C12.6077 16.0145 12.5456 15.7737 12.5456 15.4774C12.5456 15.2072 12.6121 14.9719 12.745 14.7715C12.8801 14.571 13.0653 14.4163 13.3006 14.3074C13.5381 14.1963 13.8115 14.1407 14.1209 14.1407C14.3562 14.1407 14.5708 14.1756 14.7647 14.2453C14.9586 14.315 15.1264 14.4163 15.268 14.5492C15.4096 14.68 15.5186 14.8412 15.5948 15.0329C15.6711 15.2225 15.7092 15.4382 15.7092 15.68H14.6078C14.6078 15.5558 14.5948 15.4491 14.5686 15.3597C14.5447 15.2704 14.5098 15.1974 14.464 15.1408C14.4183 15.0841 14.3649 15.0427 14.3039 15.0166C14.2429 14.9883 14.1764 14.9741 14.1045 14.9741C13.9956 14.9741 13.9074 14.9981 13.8398 15.046C13.7723 15.0918 13.7233 15.1528 13.6928 15.229C13.6623 15.3053 13.647 15.3903 13.647 15.4839C13.647 15.582 13.6633 15.668 13.696 15.7421C13.7309 15.814 13.7897 15.8816 13.8725 15.9448C13.9553 16.0058 14.0686 16.0689 14.2124 16.1343C14.4956 16.2541 14.7484 16.3783 14.9706 16.5069C15.1928 16.6354 15.3672 16.7934 15.4935 16.9808C15.6221 17.166 15.6863 17.4056 15.6863 17.6998C15.6863 17.983 15.6199 18.2249 15.487 18.4253C15.3541 18.6236 15.1689 18.775 14.9314 18.8796C14.6939 18.9842 14.4194 19.0365 14.1078 19.0365C13.8986 19.0365 13.6906 19.0092 13.4836 18.9547C13.2788 18.9003 13.0914 18.812 12.9215 18.69C12.7537 18.5658 12.6197 18.4013 12.5195 18.1965C12.4193 17.9917 12.3691 17.7401 12.3691 17.4416H13.4705C13.4705 17.5876 13.4879 17.7096 13.5228 17.8076C13.5577 17.9057 13.6045 17.9841 13.6633 18.0429C13.7243 18.0996 13.793 18.141 13.8692 18.1671C13.9455 18.1911 14.025 18.2031 14.1078 18.2031C14.2189 18.2031 14.3093 18.1813 14.3791 18.1377C14.4488 18.0919 14.5 18.032 14.5327 17.958C14.5675 17.8817 14.585 17.7978 14.585 17.7063Z" fill="#121116"/>
</svg>
