<svg width="23" height="25" viewBox="0 0 23 25" fill="none" xmlns="http://www.w3.org/2000/svg">
<rect x="1.73321" y="12.2986" width="16.9418" height="9.72588" rx="1" transform="rotate(-30 1.73321 12.2986)" stroke="white" stroke-width="2"/>
<circle cx="11.4529" cy="12.2637" r="3.1911" transform="rotate(-30 11.4529 12.2637)" fill="white"/>
<path d="M10.5272 10.0946L10.8673 10.6836L10.5454 10.8695L10.2054 10.2804L10.5272 10.0946ZM12.3951 13.4234L12.7106 13.9699L12.3888 14.1557L12.0732 13.6092L12.3951 13.4234ZM12.1404 12.669C12.0975 12.5948 12.0506 12.54 11.9996 12.5047C11.9486 12.4694 11.887 12.4483 11.8147 12.4414C11.7424 12.4346 11.6532 12.4375 11.5471 12.4502C11.3256 12.4809 11.1238 12.4976 10.9418 12.5001C10.7611 12.5019 10.5985 12.468 10.454 12.3985C10.3108 12.3282 10.1863 12.2013 10.0803 12.0178C9.98373 11.8505 9.94075 11.681 9.95139 11.5093C9.96338 11.3369 10.0228 11.1748 10.1295 11.0232C10.2369 10.8695 10.3864 10.7373 10.578 10.6267C10.7237 10.5425 10.8691 10.4874 11.0141 10.4612C11.1592 10.4351 11.2993 10.4378 11.4345 10.4695C11.569 10.4998 11.6941 10.5607 11.8099 10.6522C11.9249 10.7423 12.0256 10.8623 12.1121 11.0121L11.43 11.4059C11.3856 11.329 11.3393 11.2675 11.2912 11.2216C11.2444 11.1748 11.1967 11.1421 11.1481 11.1233C11.0995 11.1046 11.0517 11.0981 11.0045 11.1037C10.9566 11.108 10.9104 11.1229 10.8659 11.1487C10.7984 11.1876 10.7523 11.234 10.7276 11.2878C10.7022 11.3403 10.6936 11.3956 10.702 11.4538C10.7104 11.5119 10.7313 11.57 10.7648 11.628C10.7999 11.6887 10.8408 11.7362 10.8875 11.7704C10.9348 11.8025 10.9954 11.8233 11.0692 11.8328C11.1423 11.841 11.2351 11.8396 11.3475 11.8286C11.5658 11.8016 11.7667 11.7881 11.9503 11.7883C12.1339 11.7884 12.2984 11.8239 12.4436 11.8948C12.5895 11.9635 12.715 12.089 12.8202 12.2711C12.9214 12.4466 12.9668 12.6201 12.9561 12.7918C12.9447 12.9621 12.8842 13.1221 12.7745 13.2718C12.6648 13.4215 12.5134 13.552 12.3205 13.6634C12.1909 13.7382 12.0523 13.7958 11.9047 13.8361C11.7583 13.8755 11.6107 13.8879 11.4619 13.8731C11.3135 13.8562 11.1717 13.8022 11.0364 13.7112C10.9011 13.6202 10.7801 13.4823 10.6734 13.2974L11.3555 12.9036C11.4077 12.994 11.4621 13.0633 11.5188 13.1116C11.5754 13.1598 11.6325 13.1917 11.6899 13.2071C11.748 13.2203 11.8053 13.2214 11.8619 13.2103C11.9177 13.1979 11.9712 13.1769 12.0225 13.1473C12.0913 13.1076 12.1395 13.0617 12.1671 13.0098C12.1939 12.9566 12.2042 12.9011 12.198 12.8436C12.1923 12.7839 12.1731 12.7257 12.1404 12.669Z" fill="#121116"/>
<path d="M14.2078 1L1.12891 8.66692V5.05896" stroke="white" stroke-width="1.75"/>
<path d="M8.34496 24.001L21.4238 16.3341L21.4238 19.942" stroke="white" stroke-width="1.75"/>
</svg>
