<svg width="24" height="25" viewBox="0 0 24 25" fill="none" xmlns="http://www.w3.org/2000/svg">
<rect x="2.36603" y="12.2996" width="16.9418" height="9.72588" rx="1" transform="rotate(-30 2.36603 12.2996)" stroke="white" strokeWidth="2"/>
<circle cx="12.0857" cy="12.2637" r="3.1911" transform="rotate(-30 12.0857 12.2637)" fill="white"/>
<path d="M11.159 10.0946L11.4991 10.6836L11.1773 10.8695L10.8372 10.2804L11.159 10.0946ZM13.0269 13.4234L13.3424 13.9699L13.0206 14.1557L12.7051 13.6092L13.0269 13.4234ZM12.7722 12.669C12.7294 12.5948 12.6824 12.54 12.6315 12.5047C12.5805 12.4694 12.5188 12.4483 12.4465 12.4414C12.3742 12.4346 12.285 12.4375 12.179 12.4502C11.9574 12.4809 11.7556 12.4976 11.5736 12.5001C11.3929 12.5019 11.2303 12.468 11.0858 12.3985C10.9427 12.3282 10.8181 12.2013 10.7122 12.0178C10.6156 11.8505 10.5726 11.681 10.5832 11.5093C10.5952 11.3369 10.6546 11.1748 10.7614 11.0232C10.8687 10.8695 11.0182 10.7373 11.2098 10.6267C11.3556 10.5425 11.5009 10.4874 11.646 10.4612C11.791 10.4351 11.9311 10.4378 12.0664 10.4695C12.2008 10.4998 12.3259 10.5607 12.4417 10.6522C12.5567 10.7423 12.6575 10.8623 12.744 11.0121L12.0618 11.4059C12.0174 11.329 11.9712 11.2675 11.923 11.2216C11.8762 11.1748 11.8285 11.1421 11.78 11.1233C11.7314 11.1046 11.6835 11.0981 11.6364 11.1037C11.5885 11.108 11.5422 11.1229 11.4977 11.1487C11.4302 11.1876 11.3842 11.234 11.3595 11.2878C11.334 11.3403 11.3254 11.3956 11.3338 11.4538C11.3422 11.5119 11.3631 11.57 11.3966 11.628C11.4317 11.6887 11.4726 11.7362 11.5193 11.7704C11.5666 11.8025 11.6272 11.8233 11.7011 11.8328C11.7742 11.841 11.8669 11.8396 11.9794 11.8286C12.1976 11.8016 12.3986 11.7881 12.5822 11.7883C12.7658 11.7884 12.9302 11.8239 13.0755 11.8948C13.2213 11.9635 13.3468 12.089 13.452 12.2711C13.5533 12.4466 13.5986 12.6201 13.588 12.7918C13.5765 12.9621 13.516 13.1221 13.4063 13.2718C13.2966 13.4215 13.1453 13.552 12.9523 13.6634C12.8228 13.7382 12.6842 13.7958 12.5365 13.8361C12.3902 13.8755 12.2426 13.8879 12.0937 13.8731C11.9454 13.8562 11.8036 13.8022 11.6683 13.7112C11.533 13.6202 11.4119 13.4823 11.3052 13.2974L11.9873 12.9036C12.0395 12.994 12.094 13.0633 12.1506 13.1116C12.2073 13.1598 12.2643 13.1917 12.3218 13.2071C12.3798 13.2203 12.4371 13.2214 12.4937 13.2103C12.5495 13.1979 12.603 13.1769 12.6543 13.1473C12.7231 13.1076 12.7714 13.0617 12.799 13.0098C12.8258 12.9566 12.8361 12.9011 12.8298 12.8436C12.8241 12.7839 12.8049 12.7257 12.7722 12.669Z" fill="#121116"/>
<path d="M14.8406 1L1.76172 8.66692V5.05896" stroke="white" strokeWidth="1.75"/>
<path d="M8.9768 24L22.0557 16.3331L22.0557 19.941" stroke="white" strokeWidth="1.75"/>
</svg>
