<svg width="18" height="22" viewBox="0 0 18 22" fill="none" xmlns="http://www.w3.org/2000/svg">
<rect x="1" y="1" width="14.5829" height="18.0797" rx="1" stroke="white" stroke-width="2"/>
<path fill-rule="evenodd" clip-rule="evenodd" d="M12.7788 5.91602H3.85449V4.41602H12.7788V5.91602ZM12.7788 8.42108H3.85449V6.92108H12.7788V8.42108ZM12.7788 10.9262H3.85449V9.42615H12.7788V10.9262ZM8.31665 13.4312H3.85449V11.9312H8.31665V13.4312Z" fill="white"/>
<circle cx="13.5373" cy="16.7356" r="4.46215" fill="white"/>
<path d="M13.9304 13.4609V14.412H13.4107V13.4609H13.9304ZM13.865 18.7979V19.6803H13.3454V18.7979H13.865ZM14.084 17.7063C14.084 17.5865 14.0655 17.4873 14.0284 17.4089C13.9914 17.3305 13.9315 17.2618 13.8487 17.203C13.7659 17.1442 13.6559 17.0853 13.5186 17.0265C13.2288 16.9089 12.9728 16.7879 12.7506 16.6638C12.5305 16.5396 12.3573 16.3849 12.2309 16.1997C12.1067 16.0145 12.0446 15.7737 12.0446 15.4774C12.0446 15.2072 12.1111 14.9719 12.244 14.7715C12.3791 14.571 12.5643 14.4163 12.7996 14.3074C13.0371 14.1963 13.3105 14.1407 13.6199 14.1407C13.8552 14.1407 14.0698 14.1756 14.2637 14.2453C14.4577 14.315 14.6254 14.4163 14.767 14.5492C14.9087 14.68 15.0176 14.8412 15.0939 15.0329C15.1701 15.2225 15.2082 15.4382 15.2082 15.68H14.1069C14.1069 15.5558 14.0938 15.4491 14.0676 15.3597C14.0437 15.2704 14.0088 15.1974 13.9631 15.1408C13.9173 15.0841 13.8639 15.0427 13.8029 15.0166C13.7419 14.9883 13.6755 14.9741 13.6036 14.9741C13.4946 14.9741 13.4064 14.9981 13.3388 15.046C13.2713 15.0918 13.2223 15.1528 13.1918 15.229C13.1613 15.3053 13.146 15.3903 13.146 15.4839C13.146 15.582 13.1624 15.668 13.195 15.7421C13.2299 15.814 13.2887 15.8816 13.3715 15.9448C13.4543 16.0058 13.5676 16.0689 13.7114 16.1343C13.9947 16.2541 14.2474 16.3783 14.4696 16.5069C14.6919 16.6354 14.8662 16.7934 14.9925 16.9808C15.1211 17.166 15.1854 17.4056 15.1854 17.6998C15.1854 17.983 15.1189 18.2249 14.986 18.4253C14.8531 18.6236 14.6679 18.775 14.4304 18.8796C14.1929 18.9842 13.9184 19.0365 13.6068 19.0365C13.3977 19.0365 13.1896 19.0092 12.9826 18.9547C12.7778 18.9003 12.5904 18.812 12.4205 18.69C12.2527 18.5658 12.1187 18.4013 12.0185 18.1965C11.9183 17.9917 11.8682 17.7401 11.8682 17.4416H12.9695C12.9695 17.5876 12.987 17.7096 13.0218 17.8076C13.0567 17.9057 13.1035 17.9841 13.1624 18.0429C13.2234 18.0996 13.292 18.141 13.3683 18.1671C13.4445 18.1911 13.524 18.2031 13.6068 18.2031C13.718 18.2031 13.8084 18.1813 13.8781 18.1377C13.9478 18.0919 13.999 18.032 14.0317 17.958C14.0666 17.8817 14.084 17.7978 14.084 17.7063Z" fill="#121116"/>
</svg>
