<svg width="202" height="66" viewBox="0 0 202 66" fill="none" xmlns="http://www.w3.org/2000/svg">
<path d="M44.7764 10.2957L44.9244 10.2109C44.6166 10.1536 44.3128 10.0905 44.0129 10.0273C43.7051 9.96219 43.3953 9.89706 43.1013 9.8418C43.0954 9.8418 43.0875 9.84179 43.0776 9.84574C43.0165 9.94245 42.9672 10.055 42.9316 10.1754C43.3381 10.3332 43.7209 10.4773 44.0997 10.4773C44.3384 10.4773 44.5594 10.4181 44.7764 10.2938V10.2957Z" fill="url(#paint0_linear_206_33847)"/>
<path d="M70.8506 23.6467L69.7773 23.8085L70.6139 23.1986C71.2906 22.7052 72.0621 22.0993 72.652 21.3414C73.0447 20.8361 73.3702 20.1216 73.5143 19.6302C72.9085 19.9933 72.3324 20.1808 71.703 20.2242L70.7165 20.2933L71.4998 19.7683C72.2416 19.271 72.7882 18.667 73.1236 17.9742C73.3742 17.4591 73.4768 16.9834 73.4314 16.5196C73.165 17.09 72.7152 17.5834 72.07 18.0117C71.9713 18.0788 71.8608 18.0986 71.7721 18.1144C71.7464 18.1183 71.7227 18.1242 71.6991 18.1302L71.5274 18.1755L71.117 17.767L71.338 17.6012C71.9812 17.1216 72.3561 16.4762 72.5534 15.5071C72.6797 14.8834 72.7408 14.2222 72.4113 13.559C71.9378 14.4808 71.1348 15.4617 69.5741 15.4617C69.2959 15.4617 68.996 15.4301 68.6842 15.3689L67.4412 15.1222L68.6684 14.8755C69.4991 14.7078 70.1364 14.3229 70.5586 13.7288C70.8921 13.263 71.0026 12.7459 70.898 12.1301C70.5724 12.4222 70.1877 12.6452 69.6727 12.6452C69.6076 12.6452 69.5425 12.6413 69.4735 12.6334L68.919 12.5722L69.288 12.209C69.3807 12.1163 69.4774 12.0275 69.5741 11.9367C69.7891 11.7373 69.9904 11.5478 70.1581 11.3386C70.4047 11.0288 70.4402 10.7465 70.2706 10.4465C70.0851 10.1209 69.9075 9.79322 69.7319 9.46361C69.4498 8.9386 69.1578 8.39585 68.8362 7.88268C68.1712 6.81688 67.3465 5.94648 66.3896 5.29318C65.9673 5.00502 65.6023 4.81949 65.2452 4.71094C65.2847 5.39779 65.1702 6.08464 64.9098 6.72214C64.7223 7.18004 64.4599 7.60833 64.1304 7.99912C64.7006 8.39979 65.2353 8.84387 65.7207 9.32348C66.0305 9.62941 66.3245 9.95309 66.5967 10.2906C66.6165 10.188 66.6342 10.0853 66.65 9.98269C66.7092 9.57414 66.7704 9.15375 66.6796 8.59716C66.6342 8.32084 66.5415 7.74649 66.1272 7.15635C66.0048 6.98069 65.8667 6.82477 65.774 6.72017C65.6714 6.60174 65.4978 6.40634 65.7049 6.2445L65.7838 6.18529H65.8864C66.137 6.18529 66.6283 6.74977 66.6342 6.75569C67.9108 8.24584 67.6385 10.2097 67.1867 11.5952L67.0644 11.9663L66.5435 11.5557L65.3873 10.411C64.7283 9.7577 63.9529 9.22677 63.0689 8.82413C61.3109 8.72939 59.6181 8.70966 58.5033 8.70966C57.7397 8.70966 57.2504 8.71953 57.2169 8.71953C56.5046 8.78072 55.7943 8.84387 55.084 8.9169C54.2889 8.99782 53.6673 9.37282 53.1228 9.79717C53.3753 10.034 53.6851 10.1978 53.9988 10.3498C54.0225 10.3498 54.058 10.3459 54.0935 10.336C54.4013 10.2649 54.7071 10.2294 55.0031 10.2294C55.8298 10.2294 56.6072 10.4978 57.3747 11.0465L57.6865 11.2696L57.3589 11.4571C57.2701 11.5084 57.1833 11.5636 57.1005 11.6209C56.8933 11.7571 56.6782 11.8992 56.4178 11.9663C56.2698 12.0058 56.1139 12.0255 55.9581 12.0255C55.5911 12.0255 55.2004 11.9189 54.7644 11.6998L54.5394 11.5853C53.9594 11.2932 53.3576 10.9893 52.7499 10.7406C51.9251 10.4031 51.1872 10.2373 50.4927 10.2373H50.4C50.0152 10.2472 49.6206 10.2867 49.2398 10.3242C48.8649 10.3617 48.4782 10.3992 48.0895 10.411C47.8232 10.4189 47.5568 10.4248 47.2905 10.4248C46.7104 10.4248 46.2309 10.3991 45.7811 10.3419C45.6114 10.3202 45.4417 10.2945 45.272 10.2669L45.2188 10.557C45.1971 10.6794 45.1655 10.8472 45.0195 10.9538C44.688 11.1946 44.3112 11.311 43.8672 11.311C43.5219 11.311 43.1727 11.24 42.8353 11.165C42.9063 11.9998 43.0622 12.9156 43.6147 13.7209C44.0093 14.2972 44.5065 14.6367 45.0905 14.7334C45.641 14.8242 46.2329 14.8676 46.9018 14.8676H47.0892C47.5174 14.8617 47.9573 14.8321 48.3816 14.8025C48.859 14.7689 49.3523 14.7374 49.8436 14.7374C49.9324 14.7374 50.0212 14.7374 50.1099 14.7413C51.1675 14.7689 52.1126 15.0216 52.9156 15.4893C53.6674 15.9275 54.3658 16.942 54.3796 17.619L54.3954 18.3611L53.8785 17.769C53.2135 17.0091 52.3553 16.4387 51.3273 16.0736C50.3408 15.7242 49.4292 15.5545 48.5433 15.5545C48.1803 15.5545 47.8153 15.5841 47.4621 15.6433C46.9531 15.7281 46.4539 15.8032 45.935 15.8032C45.71 15.8032 45.5009 15.7893 45.2937 15.7597C45.2661 15.7558 45.2365 15.7518 45.2089 15.7479C45.2839 15.9847 45.4535 16.1703 45.6982 16.2749C45.8758 16.3518 46.0849 16.5393 46.1421 16.7505C46.3316 17.4473 46.809 17.8005 47.5647 17.8005H47.6338C47.6496 17.8005 47.6614 17.7986 47.6713 17.7966C47.6713 17.7907 47.6752 17.7848 47.6752 17.7769C47.7679 17.3111 48.0678 17.0742 48.569 17.0742C48.5986 17.0742 48.6282 17.0742 48.6617 17.0762C48.9458 17.092 49.2418 17.1236 49.4845 17.2519C50.1987 17.6328 50.7275 17.9446 51.1951 18.2663C51.6726 18.594 51.8502 19.1032 51.6785 19.6617C51.6331 19.8117 51.568 19.9539 51.5049 20.092C51.5266 20.094 51.5463 20.096 51.568 20.096C51.7693 20.096 51.9824 19.9775 52.2369 19.7999L52.5664 19.571L52.6848 19.9381C52.7183 20.0407 52.7519 20.1374 52.7834 20.2321C52.8505 20.4315 52.9156 20.619 52.963 20.8144C53.1405 21.5289 52.9768 22.2355 52.5171 22.7545C52.0593 23.2697 51.3707 23.5539 50.5776 23.5539H50.5361C50.1573 23.548 49.7824 23.5006 49.4213 23.4532C49.4115 23.4532 49.4036 23.4513 49.3937 23.4493C49.9166 24.6414 50.7532 25.4783 52.8347 25.9302L54.133 26.2125L52.8347 26.4256L52.594 26.4671C52.4204 26.4967 52.2448 26.5283 52.0692 26.55C51.5621 26.6151 51.1063 26.6467 50.6742 26.6467C49.8929 26.6467 49.1905 26.5421 48.5236 26.3289C48.5236 26.3289 48.5137 26.3269 48.494 26.3269C48.4565 26.3269 48.4092 26.3348 48.3756 26.3487C48.0718 26.4671 47.7719 26.5934 47.472 26.7177C46.9649 26.927 46.442 27.1441 45.9113 27.3335L45.8324 27.3612C45.0984 27.6217 44.3407 27.8921 43.5022 27.8921C43.3562 27.8921 43.2122 27.8842 43.0701 27.8664C42.6045 27.8131 42.1369 27.7283 41.687 27.6473C41.5331 27.6197 41.3772 27.5921 41.2233 27.5645C41.2529 27.5842 41.2865 27.6039 41.322 27.6256C41.4305 27.6908 41.5548 27.7658 41.6594 27.8664L41.9672 28.1605L41.5489 28.2789C41.5272 28.2849 41.5094 28.2908 41.4917 28.2967C41.4364 28.3145 41.3733 28.3362 41.2983 28.3421C41.2036 28.35 41.1089 28.3579 41.0142 28.3678C40.738 28.3934 40.4538 28.4191 40.1658 28.423C39.7948 28.427 39.416 28.4309 39.0352 28.4329C38.3861 28.4388 33.9428 28.4428 33.2739 28.4428H32.9523C32.6721 28.4428 32.3939 28.4349 32.1138 28.427C31.8316 28.4191 31.5475 28.4112 31.2654 28.4112C31.1075 28.4112 30.9516 28.4132 30.7938 28.421L30.557 28.4309C30.2946 28.4428 30.0223 28.4546 29.754 28.4546C29.5409 28.4546 29.2962 28.4487 29.0338 28.4171C29.3495 28.5178 29.6889 28.5651 30.0381 28.6145L30.851 28.7309L30.119 29.0961C29.8822 29.2145 29.6297 29.3309 29.3495 29.3546C29.2943 29.3586 29.2371 29.3625 29.1818 29.3625C28.5307 29.3625 27.9763 29.0447 27.4416 28.7368L27.3252 28.6697C26.8852 28.4191 26.4452 28.2908 26.017 28.2908C25.9164 28.2908 25.8138 28.2987 25.7132 28.3125C25.0167 28.4131 24.3261 28.6085 23.679 28.802C23.4856 28.8592 23.2883 28.9322 23.0989 29.0013C22.6352 29.173 22.1558 29.3507 21.6033 29.3507H21.4731C21.189 29.3507 20.9049 29.3546 20.6188 29.3605C20.3327 29.3645 20.0446 29.3704 19.7585 29.3704C19.3422 29.3704 18.9969 29.3605 18.6733 29.3388C17.8506 29.2836 17.0219 29.1414 16.2208 29.0033L15.9486 28.9559C15.7355 28.9184 15.5263 28.8711 15.3132 28.8158C15.9032 29.2717 16.5582 29.5263 17.3218 29.6033L17.9117 29.6625L17.4619 30.0533C17.1778 30.3 16.8858 30.4441 16.5938 30.5309C16.6411 30.5487 16.6885 30.5665 16.7378 30.5822C16.9331 30.6454 17.1403 30.6809 17.3613 30.7204C17.4619 30.7382 17.5665 30.7579 17.671 30.7796L18.8529 31.0224L17.6908 31.277C17.5349 31.3105 17.3613 31.3283 17.1778 31.3283C16.2504 31.3283 15.0291 30.8645 14.6917 30.1717L14.5319 29.8441L15.0627 29.7908C14.5299 29.4849 14.0702 29.0822 13.6914 28.5908C13.4823 28.3204 13.2356 28.1289 12.839 27.9335C10.3767 26.7138 8.2221 24.8743 6.25103 22.3105C4.5108 20.0446 3.16518 17.4315 2.13525 14.3229C2.11552 14.2637 2.09579 14.2064 2.07408 14.1472C1.57687 14.8281 1.27105 15.5722 1.1428 16.413C0.939578 17.7551 1.20989 19.0163 1.96556 20.2657L2.38188 20.9525L1.68145 20.6289C1.0481 20.3348 0.507481 19.9243 0.0122452 19.3539C-0.0489193 20.3624 0.11879 21.3118 0.521292 22.2414C0.969174 23.2756 1.67158 24.1499 2.66797 24.9118L3.27172 25.3736L2.54169 25.3677C1.93597 25.3638 1.35786 25.2098 0.785681 24.898C1.6045 27.2704 3.19477 28.7507 5.63149 29.4138L5.85839 29.4868L3.65449 29.7651C4.85805 31.4033 6.52725 32.1731 8.86137 32.1731L10.5049 32.1533L9.09419 32.6665C8.50622 32.8796 7.86498 32.9803 7.07971 32.9823C7.44275 33.2468 7.82749 33.4639 8.25762 33.6533C9.12576 34.0343 10.0393 34.2257 10.9725 34.2257C11.4106 34.2257 11.8624 34.1843 12.3142 34.0994L12.5431 34.0579L11.3948 34.9935C11.525 35.0132 11.6552 35.0349 11.7854 35.0566C12.1958 35.1257 12.62 35.1968 13.0206 35.1968C13.1291 35.1968 13.2336 35.1909 13.3323 35.181C14.9226 35.0112 16.2426 34.2178 17.2587 32.8224C18.1051 31.6599 19.1291 30.7776 20.3031 30.1993C20.3899 30.1559 20.4807 30.1342 20.5596 30.1145C20.5892 30.1066 20.6188 30.1007 20.6484 30.0908L20.9818 29.9941L20.9542 30.3651C20.9424 30.5151 20.8851 30.6217 20.7845 30.6849C19.4073 31.5158 18.405 32.7553 17.7243 34.4764C17.7125 34.506 17.7006 34.5356 17.6888 34.5672L17.8269 35.4968C17.8565 35.7001 17.8861 35.9093 17.9157 36.1244C17.9848 36.6317 18.0578 37.1567 18.1604 37.6738C18.2669 38.2106 18.3577 38.71 18.3557 39.2212C18.6378 38.4258 18.8312 37.5336 18.9456 36.5251L19.0561 35.5382L19.3994 36.4797C19.6086 37.054 19.6855 37.585 19.6303 38.106C19.4685 39.6613 18.9693 41.1672 18.0558 42.8468C17.2113 44.3982 16.136 45.7837 14.8594 46.9601C14.1353 47.6272 13.3067 48.1068 12.5056 48.5726C11.4303 49.1963 10.2741 49.8357 8.99949 50.2068C9.0863 50.4693 9.16522 50.7594 9.24217 51.1206C9.32307 51.4956 9.40593 51.7127 9.63678 51.8548C9.7966 51.9515 9.9209 52.1075 10.0117 52.2298C10.132 52.3937 10.2465 52.5654 10.3589 52.7371L10.6292 53.1397L10.2386 53.4614L9.62889 52.968C9.6427 53.0529 9.65256 53.1338 9.65848 53.2167C9.69794 53.6766 9.78279 53.9884 10.0985 54.2253C10.2583 54.3457 10.3569 54.5272 10.4418 54.6871C10.4734 54.7463 10.5049 54.8055 10.5404 54.8608L10.6628 55.0483L10.278 55.4036L9.91301 55.1134C9.95247 55.5674 10.0274 55.9621 10.3629 56.2641C10.4359 56.3312 10.497 56.4259 10.5306 56.5227C10.5582 56.6016 10.576 56.6845 10.5957 56.7674L10.6588 57.0338L10.2997 57.2608L10.1202 57.1029C10.1261 57.1799 10.132 57.2569 10.134 57.3338C10.1557 57.9674 10.1774 58.6029 10.1991 59.2365C10.2366 60.3635 10.2741 61.4924 10.3195 62.6194C10.3234 62.7359 10.3747 62.8799 10.4398 62.9628C11.0929 63.7957 11.8071 64.6859 12.626 65.6826C12.6457 65.7063 12.7207 65.7458 12.7739 65.7458C13.2534 65.7517 13.7328 65.7537 14.2123 65.7537H15.5658C15.3862 65.2168 15.0153 64.8023 14.376 64.4037L13.8236 64.0602L14.4372 63.9379C14.5299 63.9201 14.6385 63.9003 14.749 63.9003C14.8713 63.9003 14.9759 63.9221 15.0686 63.9694C15.8381 64.3543 16.3175 64.9464 16.4892 65.7241C16.4912 65.73 16.4951 65.7379 16.501 65.7458C16.6746 65.7537 16.8483 65.7556 17.0259 65.7556H17.3376C17.3159 65.6826 17.2942 65.6175 17.2685 65.5563C17.0772 65.1004 16.7457 64.7175 16.2287 64.3523L15.846 64.0819L16.2623 63.9083C16.3649 63.8648 16.4655 63.8431 16.5642 63.8431C16.8049 63.8431 16.9824 63.9655 17.1245 64.0622L17.158 64.0859C17.7164 64.4668 18.0834 65.0254 18.2432 65.7339C18.2432 65.7379 18.2491 65.7438 18.2531 65.7497C18.3951 65.7576 18.5372 65.7576 18.6773 65.7576H18.9752C19.0482 64.4944 18.5905 63.5313 17.5744 62.8148C16.9923 62.4023 16.3353 62.3826 15.6408 62.3609L15.4612 62.3549C15.2797 62.349 15.0982 62.347 14.9167 62.347C14.7667 62.347 14.6187 62.347 14.4688 62.349C14.3188 62.349 14.1669 62.351 14.017 62.351H13.8058C13.8058 62.351 14.8673 61.7194 15.2245 61.5102C15.2541 61.5062 15.2738 61.5023 15.2876 61.4984C15.2876 61.4905 15.2876 61.4806 15.2876 61.4668C15.258 61.1214 15.2363 60.7701 15.2245 60.4227C15.1732 58.9424 15.1258 57.6082 15.0903 56.2562C15.0804 55.9325 15.1061 55.6799 15.1653 55.4568C15.2363 55.1924 15.3172 54.9338 15.4001 54.6812C14.8654 55.145 14.6483 55.7371 14.7253 56.5069L14.8062 57.32L14.3109 56.6825C13.8473 56.0865 13.8394 55.2279 14.2912 54.4976C14.7371 53.7753 15.4297 53.4378 16.0472 53.2029C16.9824 52.8456 18.0203 52.6127 19.3087 52.4687C21.1081 52.2673 22.7812 51.7936 24.2808 51.0594C24.4228 50.9903 24.5649 50.9154 24.7089 50.8364C24.0736 50.6785 23.7618 50.4989 23.5488 50.2048L23.2114 49.7371L23.752 49.8042C23.8901 49.8219 24.0282 49.8397 24.1663 49.8594C24.4702 49.9009 24.7819 49.9423 25.0897 49.964C25.2061 49.9719 25.3245 49.9778 25.4389 49.9778C25.9638 49.9778 26.3347 49.8634 26.6445 49.6048C26.7648 49.5042 26.8872 49.4035 27.0075 49.3028C27.1002 49.2259 27.191 49.1509 27.2837 49.0739C27.1358 49.0877 26.9878 49.0936 26.8378 49.0936C25.9638 49.0936 25.1706 48.8469 24.9082 48.4916L24.6063 48.0811L25.0858 48.0851C25.2929 48.087 25.506 48.0949 25.7231 48.1028C25.9756 48.1127 26.2301 48.1206 26.4886 48.1206C26.7471 48.1206 26.97 48.1107 27.1732 48.091C28.3748 47.9745 29.1877 47.4436 29.6632 46.4725C29.7935 46.2061 29.9355 45.9456 30.0776 45.691C29.6553 45.9693 29.1996 46.1923 28.7142 46.36C28.1874 46.5416 27.6626 46.6344 27.1535 46.6344C26.751 46.6344 26.3505 46.5772 25.9578 46.4647L24.6596 46.0916L25.9835 45.9692C28.3176 45.7541 29.8092 44.9765 30.8214 43.4488C32.1453 41.4514 32.5202 39.7067 32.0408 37.7902L31.7606 36.6731L32.4492 37.5771C32.5873 37.7586 32.7609 37.9856 32.8635 38.2501C33.412 39.6692 33.3252 41.1218 32.5912 42.8172C32.5873 42.8271 32.5833 42.837 32.5794 42.8449C32.5893 42.8488 32.8339 42.9317 32.8339 42.9317C33.9408 43.1587 34.9037 43.2258 35.8803 43.4232C36.05 43.4844 39.3687 43.8969 39.5403 43.962C40.1204 44.1495 40.6985 44.3429 41.2628 44.5363C42.1743 44.8482 43.0839 45.164 43.9935 45.4798C44.6308 45.7008 45.2701 45.9219 45.9093 46.1429C46.0968 46.2081 46.2862 46.2693 46.4874 46.3324C46.4046 45.1719 46.5249 44.1061 46.6591 43.2021C46.8603 41.8541 47.2865 40.6067 47.9258 39.4955C48.0067 39.3554 48.131 39.2527 48.2395 39.16C48.2809 39.1244 48.3224 39.0909 48.3599 39.0534L48.5374 38.8836L49.0129 39.233L48.9261 39.4087C48.4861 40.3027 48.0106 41.3764 47.8311 42.5705C47.6377 43.8574 47.6574 45.237 47.8942 46.7844C48.0461 47.7851 48.202 48.8607 48.3164 49.9561C48.4171 50.9213 48.1645 51.7187 47.5667 52.3285C47.8271 53.047 48.3401 53.6114 49.1293 54.0516L49.4292 54.2193L49.0149 54.6121L48.6302 54.4858C48.715 54.6437 48.8196 54.7503 49.0031 54.8272C49.2181 54.918 49.3779 55.0799 49.52 55.222C49.5733 55.2772 49.6285 55.3305 49.6838 55.3799L49.8653 55.5378L49.5318 55.9345L49.1471 55.818C49.2319 56.0312 49.3385 56.1832 49.5378 56.2976C49.7153 56.3983 49.8416 56.5463 49.9521 56.6766C49.9955 56.7259 50.0369 56.7773 50.0823 56.8226L50.254 56.9963L49.883 57.3556L49.6739 57.2746C49.7232 57.5174 49.7726 57.7582 49.8219 58.001C50.0093 58.9148 50.2047 59.8602 50.3309 60.7997C50.4177 61.4391 50.4237 62.0905 50.4276 62.7181C50.4296 63.0378 50.4316 63.3576 50.4454 63.6754C50.4473 63.7425 50.4473 63.8135 50.4473 63.8846C50.4473 64.0839 50.4473 64.2892 50.5203 64.4076C50.7334 64.7451 51.0097 65.051 51.2997 65.3747C51.3865 65.4734 51.4753 65.5701 51.5601 65.6688C51.5897 65.7023 51.6252 65.73 51.645 65.7418C52.1165 65.7497 52.5901 65.7497 53.0695 65.7497H53.9278C53.7226 65.2148 53.2905 64.8102 52.5111 64.3977L51.8462 64.0464L52.592 63.93C52.7025 63.9122 52.8328 63.8944 52.961 63.8944C53.111 63.8944 53.2392 63.9181 53.3517 63.9655C54.2711 64.3563 54.8374 64.9504 55.0327 65.726C55.0327 65.73 55.0347 65.732 55.0386 65.7359C55.2557 65.7418 55.4727 65.7438 55.6956 65.7438H56.0409C56.0192 65.6806 55.9955 65.6214 55.9679 65.5642C55.7568 65.1122 55.376 64.7333 54.7308 64.3385L54.2849 64.0661L54.7762 63.8964C54.8966 63.855 55.0149 63.8333 55.1314 63.8333C55.4174 63.8333 55.6246 63.9536 55.7923 64.0504L55.8416 64.078C56.5046 64.455 56.9367 65.0155 57.1261 65.7339C57.1261 65.7339 57.1261 65.7359 57.1281 65.7379C57.2504 65.7438 57.3708 65.7458 57.4931 65.7458H57.7318C57.6943 64.6642 56.7177 63.6142 55.4885 63.3832C55.0879 63.3082 54.6736 63.2964 54.2336 63.2826C54.0324 63.2767 53.8331 63.2707 53.6318 63.2569C53.5608 63.253 53.4898 63.249 53.4187 63.2451L53.0597 63.2273L54.5986 62.3826C54.5947 62.3628 54.5927 62.3451 54.5868 62.3293C54.4941 62.0174 54.4053 61.7056 54.3145 61.3957C54.0639 60.5312 53.8035 59.6391 53.5233 58.7687C53.0833 57.4029 52.6927 56.0608 52.7578 54.6299C52.8012 53.6904 53.0537 53.0272 53.5805 52.4825C53.6535 52.4075 53.7226 52.3265 53.7897 52.2437L53.182 52.5002L52.8821 52.0542L53.3379 51.6969C53.5411 51.539 53.7443 51.3812 53.9396 51.2173L54.2553 50.9568C55.0307 50.3173 55.7627 49.7134 56.2974 48.9298C56.7887 48.2094 57.2425 47.5561 57.6805 46.9364C58.7894 45.3673 59.3714 44.0706 59.5687 42.7304C59.6378 42.2528 59.6674 41.7554 59.697 41.2738C59.7049 41.1376 59.7128 40.9995 59.7226 40.8633C58.6158 40.812 57.6233 40.4389 57.0945 39.8626C56.7571 39.4955 56.6309 39.0791 56.7256 38.6567L56.8814 37.9619L57.2504 38.6034C57.5622 39.1442 57.9804 39.456 58.6059 39.6119C58.8446 39.6712 59.0794 39.7008 59.3221 39.7008C59.6694 39.7008 60.0285 39.6435 60.4546 39.5192L60.7684 39.4264L60.8275 39.7225C61.307 42.1521 60.944 44.5186 59.7207 46.9364C60.0462 46.8022 60.3422 46.6127 60.6283 46.36C61.6266 45.4758 62.2915 44.6469 62.2876 43.4824L62.2837 41.8482L62.8401 43.4192C62.9999 43.8692 63.0709 44.2166 63.0729 44.5423C63.0729 44.7317 63.0512 44.9192 63.0216 45.1028C65.2136 43.9087 65.8371 42.764 65.5629 40.6264L65.4662 39.8784L66.0463 40.435C66.4882 40.8574 66.7112 41.3488 66.869 41.8639C67.4373 41.1771 67.3662 40.4646 66.6855 39.2172L66.433 38.7554L66.9914 38.8639C67.0328 38.8718 67.0722 38.8797 67.1078 38.8856C67.1985 38.9014 67.2755 38.9152 67.3524 38.9389C68.0765 39.158 68.5599 39.6179 68.8302 40.3442C69.1282 40.0343 69.3314 39.6534 69.4675 39.1501C69.9568 37.3284 69.578 35.8244 68.3093 34.5534C68.2127 34.4547 68.0864 34.3698 67.9542 34.277C67.8871 34.2297 67.8181 34.1823 67.7549 34.1349L67.5458 33.979L67.8891 33.5645H68.0292C68.7572 33.5685 69.2466 33.9889 69.6767 34.3599L69.7951 34.4606C70.1364 34.7507 70.4106 35.0981 70.677 35.4376C70.6967 35.4632 70.7184 35.4889 70.7382 35.5145C71.2591 34.1843 71.6931 32.7415 71.5747 31.1763C71.4623 29.6882 70.7461 28.421 69.3255 27.1894C69.3097 27.1756 69.29 27.1618 69.2702 27.148C69.1795 27.0829 69.0433 26.9862 69.0236 26.8204C69.0157 26.7473 69.0275 26.6388 69.1361 26.5263C69.2387 26.4197 69.4064 26.396 69.5267 26.396C69.6116 26.396 69.7734 26.4079 69.9016 26.4848C70.602 26.9033 71.2295 27.3 71.7503 27.8349C71.4958 26.8875 70.9414 26.0013 70.0673 25.1467L69.6648 24.7539L70.2489 24.7263C70.2824 24.7263 70.314 24.7243 70.3436 24.7243C71.0105 24.7243 71.3972 25.0598 71.7089 25.3282C71.7109 25.3302 71.7129 25.3322 71.7148 25.3342C72.5218 24.6335 72.9204 23.4907 72.8395 22.8355C72.2633 23.2716 71.6241 23.5322 70.8585 23.6486L70.8506 23.6467ZM58.748 36.5053L57.645 37.8593L58.2527 36.2645C58.4737 35.6843 58.45 35.1869 58.1817 34.7448C57.9074 34.2908 57.4635 33.975 56.8203 33.7796C56.6388 33.7244 56.4395 33.6968 56.2303 33.6968C55.5023 33.6968 54.4743 34.0718 53.9751 35.1316L53.764 35.5797L53.476 35.1534C52.8801 34.2711 52.594 33.3356 52.5723 32.2046C52.5546 31.277 52.7104 30.4342 53.0439 29.6447C53.0084 29.6447 52.9728 29.6467 52.9373 29.6467C52.302 29.6467 51.6923 29.4375 51.0215 28.9875L49.7331 28.125L51.2602 28.5454C51.5562 28.6263 51.8502 28.6678 52.1303 28.6678C52.9176 28.6678 53.6713 28.3539 54.575 27.6473L55.5516 26.8835L55.0209 27.9474C54.0639 29.8697 53.3813 31.5079 54.0422 33.3869C54.6164 32.9842 55.2576 32.781 55.9541 32.781C56.0962 32.781 56.2402 32.7889 56.3862 32.8066C57.1794 32.8974 57.8285 33.1816 58.3198 33.6533C59.1702 34.4704 59.3616 35.7474 58.746 36.5034L58.748 36.5053ZM58.0317 30.4619L57.8167 29.9132C57.2839 28.5513 57.2169 27.1835 57.2208 26.025L57.2287 23.7809L58.308 28.1151L59.5036 26.8223L60.0127 27.1658L58.0317 30.4599V30.4619ZM65.8233 32.5777C65.7523 33.1402 65.5195 33.6514 65.1347 34.0954C64.6612 34.6441 64.1166 35.2027 63.359 35.5698C63.1913 35.6507 63.061 35.7099 62.9131 35.7099C62.6033 35.7099 62.4533 35.4553 62.3626 35.3034C62.0449 34.7626 61.7095 34.1843 61.4333 33.5764C60.9459 32.5046 60.6401 31.3757 60.5217 30.2171C60.498 29.9862 60.5158 29.7572 60.5336 29.5342C60.5415 29.4355 60.5493 29.3349 60.5533 29.2322L60.6362 27.2724L61.1117 29.2007C61.1669 29.4296 61.2202 29.6566 61.2735 29.8836C61.3918 30.3928 61.5023 30.8744 61.6503 31.354C61.9009 32.1612 62.2777 33.2033 62.994 34.1093C63.1242 34.2731 63.2149 34.3579 63.2623 34.3579C63.3471 34.3579 63.5306 34.2632 63.5918 34.2336C64.383 33.829 64.8388 33.1658 65.2176 32.5027C65.2413 32.4612 65.2847 32.3862 65.3833 32.329L65.8904 32.0388L65.8213 32.5796L65.8233 32.5777Z" fill="url(#paint1_linear_206_33847)"/>
<path d="M65.0163 65.7662C64.5901 65.7662 64.2606 65.6103 63.8778 65.2314C63.4911 64.8465 63.2504 64.4064 63.1024 63.8083C62.9367 63.1412 62.7808 62.4702 62.6269 61.8011C62.475 61.1478 62.325 60.4925 62.1632 59.8392C62.0922 59.5491 61.9837 59.2629 61.8791 58.9885C61.8673 58.957 61.8554 58.9273 61.8436 58.8958L62.3586 59.101L62.3014 58.6708C62.2441 58.2326 61.887 58.0076 61.6581 57.8813L61.9995 57.9839L61.9363 57.5872C61.8594 57.1135 61.4569 56.924 61.232 56.8431L61.5279 56.5214L61.372 56.3576C61.3484 56.3319 61.3267 56.3063 61.303 56.2806C61.2418 56.2115 61.1728 56.1326 61.082 56.0635C60.9774 55.9846 60.865 55.9095 60.7525 55.8345C60.567 55.7102 60.3895 55.5938 60.2553 55.4576C60.1093 55.3095 59.9949 55.128 59.8745 54.9365C59.8548 54.9049 59.835 54.8714 59.8133 54.8398C60.6026 54.0345 60.3717 53.0161 60.1665 52.1141L60.1468 52.0253C60.1389 51.9917 60.129 51.9602 60.1192 51.9266C60.1113 51.899 60.1014 51.8714 60.0975 51.8437L59.9732 50.9694C59.8824 50.3259 59.7936 49.6845 59.693 49.0411C59.6792 48.9562 59.6792 48.9503 59.7798 48.9068C60.5592 48.5792 61.1925 48.1904 61.7154 47.7207C61.7667 47.6753 61.9166 47.6417 62.037 47.6141L62.1396 47.5904C64.0475 47.1364 65.5135 46.1101 66.502 44.541C66.5414 44.6654 66.571 44.7818 66.5631 44.8825C66.4803 46.1298 66.3994 47.2509 66.2277 48.3542C66.058 49.4536 65.8094 50.6181 65.4918 51.82C65.2412 52.7674 64.7104 53.6279 63.9173 54.3819C63.8364 54.4589 63.7713 54.5299 63.716 54.599C63.6726 54.6563 63.6332 54.7155 63.5898 54.7806L63.3194 55.1832L63.7397 55.2464C63.7969 55.2543 63.8502 55.2582 63.8995 55.2582C64.2468 55.2582 64.4618 55.0786 64.6177 54.9484L64.673 54.903C64.6434 57.8477 65.2274 60.2853 66.4961 62.5037L65.1879 63.3524H66.3283C66.5118 63.3504 66.6973 63.3524 66.8808 63.3524C68.1751 63.3721 69.8404 64.4695 70.0909 65.7366C70.0318 65.7366 69.9706 65.7366 69.9114 65.7366C69.7989 65.7366 69.6865 65.7366 69.574 65.7287C69.5661 65.7208 69.5582 65.711 69.5563 65.705C69.3372 65.1268 68.9249 64.6393 68.2974 64.2189C68.0271 64.0373 67.7904 63.9267 67.4431 63.9267C67.3721 63.9267 67.2951 63.9327 67.2103 63.9406L66.4882 64.0215L67.0959 64.3985C67.7588 64.811 68.1712 65.2314 68.3922 65.7347H68.1199C67.9344 65.7347 67.7529 65.7346 67.5714 65.7268C67.5615 65.7169 67.5536 65.707 67.5497 65.7011C67.1077 64.8189 66.5099 64.286 65.6693 64.0254L65.5983 64.0017C65.4957 63.9662 65.3694 63.9228 65.2234 63.9228C65.0557 63.9228 64.9058 63.98 64.7736 64.0925L64.4895 64.3353L64.8466 64.5011C65.5687 64.8386 66.0304 65.2254 66.2987 65.7307C66.279 65.7307 66.2593 65.7307 66.2396 65.7307C66.0857 65.7268 65.9337 65.7228 65.7858 65.7228C65.5628 65.7228 65.3793 65.7307 65.2096 65.7485C65.1406 65.7564 65.0735 65.7583 65.0103 65.7583L65.0163 65.7662Z" fill="url(#paint2_linear_206_33847)"/>
<path d="M65.0163 65.7662C64.5901 65.7662 64.2606 65.6103 63.8778 65.2314C63.4911 64.8465 63.2504 64.4064 63.1024 63.8083C62.9367 63.1412 62.7808 62.4702 62.6269 61.8011C62.475 61.1478 62.325 60.4925 62.1632 59.8392C62.0922 59.5491 61.9837 59.2629 61.8791 58.9885C61.8673 58.957 61.8554 58.9273 61.8436 58.8958L62.3586 59.101L62.3014 58.6708C62.2441 58.2326 61.887 58.0076 61.6581 57.8813L61.9995 57.9839L61.9363 57.5872C61.8594 57.1135 61.4569 56.924 61.232 56.8431L61.5279 56.5214L61.372 56.3576C61.3484 56.3319 61.3267 56.3063 61.303 56.2806C61.2418 56.2115 61.1728 56.1326 61.082 56.0635C60.9774 55.9846 60.865 55.9095 60.7525 55.8345C60.567 55.7102 60.3895 55.5938 60.2553 55.4576C60.1093 55.3095 59.9949 55.128 59.8745 54.9365C59.8548 54.9049 59.835 54.8714 59.8133 54.8398C60.6026 54.0345 60.3717 53.0161 60.1665 52.1141L60.1468 52.0253C60.1389 51.9917 60.129 51.9602 60.1192 51.9266C60.1113 51.899 60.1014 51.8714 60.0975 51.8437L59.9732 50.9694C59.8824 50.3259 59.7936 49.6845 59.693 49.0411C59.6792 48.9562 59.6792 48.9503 59.7798 48.9068C60.5592 48.5792 61.1925 48.1904 61.7154 47.7207C61.7667 47.6753 61.9166 47.6417 62.037 47.6141L62.1396 47.5904C64.0475 47.1364 65.5135 46.1101 66.502 44.541C66.5414 44.6654 66.571 44.7818 66.5631 44.8825C66.4803 46.1298 66.3994 47.2509 66.2277 48.3542C66.058 49.4536 65.8094 50.6181 65.4918 51.82C65.2412 52.7674 64.7104 53.6279 63.9173 54.3819C63.8364 54.4589 63.7713 54.5299 63.716 54.599C63.6726 54.6563 63.6332 54.7155 63.5898 54.7806L63.3194 55.1832L63.7397 55.2464C63.7969 55.2543 63.8502 55.2582 63.8995 55.2582C64.2468 55.2582 64.4618 55.0786 64.6177 54.9484L64.673 54.903C64.6434 57.8477 65.2274 60.2853 66.4961 62.5037L65.1879 63.3524H66.3283C66.5118 63.3504 66.6973 63.3524 66.8808 63.3524C68.1751 63.3721 69.8404 64.4695 70.0909 65.7366C70.0318 65.7366 69.9706 65.7366 69.9114 65.7366C69.7989 65.7366 69.6865 65.7366 69.574 65.7287C69.5661 65.7208 69.5582 65.711 69.5563 65.705C69.3372 65.1268 68.9249 64.6393 68.2974 64.2189C68.0271 64.0373 67.7904 63.9267 67.4431 63.9267C67.3721 63.9267 67.2951 63.9327 67.2103 63.9406L66.4882 64.0215L67.0959 64.3985C67.7588 64.811 68.1712 65.2314 68.3922 65.7347H68.1199C67.9344 65.7347 67.7529 65.7346 67.5714 65.7268C67.5615 65.7169 67.5536 65.707 67.5497 65.7011C67.1077 64.8189 66.5099 64.286 65.6693 64.0254L65.5983 64.0017C65.4957 63.9662 65.3694 63.9228 65.2234 63.9228C65.0557 63.9228 64.9058 63.98 64.7736 64.0925L64.4895 64.3353L64.8466 64.5011C65.5687 64.8386 66.0304 65.2254 66.2987 65.7307C66.279 65.7307 66.2593 65.7307 66.2396 65.7307C66.0857 65.7268 65.9337 65.7228 65.7858 65.7228C65.5628 65.7228 65.3793 65.7307 65.2096 65.7485C65.1406 65.7564 65.0735 65.7583 65.0103 65.7583L65.0163 65.7662Z" fill="url(#paint3_linear_206_33847)"/>
<path d="M54.4133 7.38938C54.3147 6.95319 54.1963 6.517 54.0641 6.09265C53.7602 5.11764 53.3676 4.16236 52.8921 3.24854C53.3814 3.33143 54.0858 3.4992 54.579 3.81696C54.3936 4.07749 54.2989 4.37947 54.3107 4.69527C54.3265 5.14527 54.5475 5.56369 54.9322 5.87356C55.2972 6.16567 55.7727 6.32752 56.268 6.32752C56.339 6.32752 56.412 6.32357 56.483 6.31764C57.3038 6.24067 57.9668 5.70186 58.093 5.00909C58.1976 4.44461 57.9589 3.88013 57.4735 3.50118C57.8543 2.78867 58.6988 1.35379 59.6005 0.765625C60.5396 1.35379 61.4768 2.78274 61.905 3.49723C61.5538 3.78539 61.3446 4.21763 61.3427 4.68342C61.3427 5.49856 61.9661 5.97028 62.1575 6.09463C62.4318 6.27423 62.7514 6.36699 63.1046 6.36699C63.225 6.36699 63.3354 6.35712 63.4321 6.3433C63.4005 6.39857 63.369 6.45186 63.3354 6.50515C63.1815 6.74989 63.002 6.97686 62.8027 7.18213C61.9484 7.117 61.0842 7.0716 60.2279 7.04594C59.6222 7.02818 59.1013 7.01437 58.5646 7.01437C57.949 7.01437 57.3926 7.03608 56.8106 7.0795C56.0075 7.14069 55.2025 7.2453 54.4133 7.38938Z" fill="url(#paint4_linear_206_33847)"/>
<path d="M54.4133 7.38938C54.3147 6.95319 54.1963 6.517 54.0641 6.09265C53.7602 5.11764 53.3676 4.16236 52.8921 3.24854C53.3814 3.33143 54.0858 3.4992 54.579 3.81696C54.3936 4.07749 54.2989 4.37947 54.3107 4.69527C54.3265 5.14527 54.5475 5.56369 54.9322 5.87356C55.2972 6.16567 55.7727 6.32752 56.268 6.32752C56.339 6.32752 56.412 6.32357 56.483 6.31764C57.3038 6.24067 57.9668 5.70186 58.093 5.00909C58.1976 4.44461 57.9589 3.88013 57.4735 3.50118C57.8543 2.78867 58.6988 1.35379 59.6005 0.765625C60.5396 1.35379 61.4768 2.78274 61.905 3.49723C61.5538 3.78539 61.3446 4.21763 61.3427 4.68342C61.3427 5.49856 61.9661 5.97028 62.1575 6.09463C62.4318 6.27423 62.7514 6.36699 63.1046 6.36699C63.225 6.36699 63.3354 6.35712 63.4321 6.3433C63.4005 6.39857 63.369 6.45186 63.3354 6.50515C63.1815 6.74989 63.002 6.97686 62.8027 7.18213C61.9484 7.117 61.0842 7.0716 60.2279 7.04594C59.6222 7.02818 59.1013 7.01437 58.5646 7.01437C57.949 7.01437 57.3926 7.03608 56.8106 7.0795C56.0075 7.14069 55.2025 7.2453 54.4133 7.38938Z" fill="url(#paint5_linear_206_33847)"/>
<path d="M30.9044 65.6812C30.9261 65.7048 30.9971 65.7364 31.0307 65.7364C31.5594 65.7423 32.0862 65.7443 32.615 65.7443H33.9449C33.7219 65.1127 33.2286 64.7436 32.7216 64.4377L32.1395 64.0884L32.8183 63.9976C32.8991 63.9857 33.0077 63.9739 33.1142 63.9739C33.276 63.9739 33.4121 64.0015 33.5285 64.0607C34.3158 64.4496 34.7795 65.0002 34.9413 65.7285C34.9413 65.7305 34.9452 65.7344 34.9472 65.7384C35.1149 65.7443 35.2846 65.7463 35.4562 65.7463H35.762C35.5785 65.1779 35.1918 64.7693 34.6729 64.3489L34.156 63.9285H34.8387C35.105 63.9285 35.3082 63.9719 35.4799 64.0667C36.131 64.4259 36.5552 64.9844 36.7407 65.7167C36.7426 65.7226 36.7486 65.7305 36.7565 65.7384C36.8433 65.7463 36.934 65.7502 37.0307 65.7502C37.1215 65.7502 37.2122 65.7463 37.301 65.7423C37.299 65.6752 37.2951 65.6081 37.2931 65.541C37.2833 65.2312 37.2734 64.939 37.2024 64.6647C36.9695 63.7686 36.3717 63.1528 35.324 62.7206C35.034 62.6022 34.7301 62.543 34.3967 62.543C33.9962 62.543 33.5877 62.6278 33.2405 62.7088C33.0669 62.7502 32.8932 62.7798 32.7235 62.8074C32.6466 62.8193 32.5716 62.8331 32.4947 62.8469L29.251 63.7746C29.764 64.3785 30.2947 64.9864 30.9024 65.6792L30.9044 65.6812Z" fill="url(#paint6_linear_206_33847)"/>
<path d="M37.9756 49.8095C37.7566 49.8095 37.5356 49.7838 37.3226 49.7581C37.2081 49.7443 37.0957 49.7305 36.9832 49.7226L36.7879 49.7068L36.774 49.1779L36.9635 49.1601C37.5573 49.1009 39.4988 48.1219 40.3038 47.6858C40.3571 47.6443 40.4104 47.6068 40.4617 47.5614C40.4202 47.5397 40.3788 47.52 40.3393 47.5002C40.0493 47.3561 39.781 47.2219 39.5107 47.0956C38.461 46.6061 36.9496 46.4917 35.2213 46.0377L34.4991 45.8778C34.3768 45.8206 34.2604 45.793 34.1578 45.793C33.992 45.793 33.8559 45.866 33.7434 46.014C33.5067 46.3239 33.3173 46.6654 33.193 46.9969C32.7096 48.2937 32.0723 49.4364 31.2988 50.3976C30.0203 51.9825 28.649 53.0621 27.1041 53.6957C26.747 53.8417 26.3879 53.9819 26.0268 54.122C25.6973 54.2503 25.3678 54.3766 25.0403 54.5108C24.9653 54.5404 24.916 54.5779 24.9042 54.6135C24.9002 54.6292 24.8884 54.6904 24.9575 54.8444C25.2337 55.4562 25.5198 56.0661 25.7901 56.6365C25.796 56.6444 25.8236 56.6602 25.8572 56.6701C26.309 56.7984 26.678 56.9997 26.9838 57.2859L27.0923 57.3885L26.9897 57.8405L26.2419 57.6174C26.382 57.9135 26.5122 58.1938 26.6306 58.4878C26.7233 58.7168 26.7983 58.7563 26.9502 58.7563H26.9838C27.3389 58.7563 27.6586 58.9359 27.992 59.3227L28.4221 59.8221L27.1692 59.6267C27.2442 59.7885 27.3133 59.9464 27.3764 60.1083C27.4553 60.3096 27.5402 60.3846 27.7138 60.4043C27.9229 60.43 28.1143 60.5267 28.2998 60.6194L28.4103 60.6747C28.5011 60.7201 28.5721 60.7951 28.6293 60.8563C28.649 60.876 28.6668 60.8958 28.6865 60.9155L28.8069 61.028L28.7339 61.2609L28.6628 61.4385L27.9308 61.2885C28.067 61.5925 28.1952 61.8747 28.3274 62.155C28.361 62.226 28.3945 62.2991 28.43 62.3721C28.5563 62.6445 28.6767 62.903 28.8227 63.128C28.9667 63.3471 29.1107 63.5642 29.2548 63.7813L34.1676 62.5596L31.4172 62.5497L31.4705 62.4037L32.3189 61.9221C31.5376 60.5464 30.9812 59.0661 30.4859 57.6431C30.3518 57.9036 30.3439 58.2174 30.4544 58.6102L30.6201 59.1964L30.1564 58.8846C29.7993 58.6438 29.6237 58.2352 29.673 57.7615C29.7421 57.1201 30.0321 56.672 30.5392 56.4273C31.9973 55.7207 33.339 54.8661 34.9431 53.8181C34.9746 53.7963 35.0062 53.7746 35.0397 53.7529C34.6767 53.6523 34.361 53.5062 34.071 53.3069L33.4791 52.9003L34.1538 52.8569C34.2051 52.8529 34.2564 52.8529 34.3077 52.8529C34.4399 52.8529 34.5701 52.8628 34.7004 52.8707C34.7655 52.8746 34.8286 52.8806 34.8937 52.8825C35.0141 52.8884 35.1344 52.8944 35.2528 52.8944C35.8013 52.8944 36.3715 52.8134 36.8332 52.2213C36.9082 52.1246 36.9871 52.0319 37.068 51.9391C36.9122 51.9687 36.7583 51.9924 36.6024 52.0042C36.559 52.0082 36.5136 52.0082 36.4702 52.0082C36.0776 52.0082 35.7224 51.8799 35.4186 51.6272L35.0891 51.3529L35.46 51.2029C35.5764 51.1555 35.6889 51.1417 35.7875 51.1279L35.8467 51.12C35.9947 51.0983 36.1427 51.0785 36.2907 51.0588C36.6359 51.0134 36.9931 50.9641 37.3364 50.8911C37.9303 50.7628 38.4137 50.368 38.8043 49.691C38.5932 49.7443 38.3742 49.7917 38.1493 49.8055C38.094 49.8095 38.0388 49.8114 37.9816 49.8114L37.9756 49.8095Z" fill="url(#paint7_linear_206_33847)"/>
<path d="M91.3744 25.3636V31.7327C91.3744 32.6209 91.4277 33.2821 91.5362 33.7163C91.6447 34.1505 91.8539 34.5373 92.1636 34.8788C92.7102 35.4472 93.527 35.8143 94.6102 35.9782V36.4578H84.7588V35.9782C85.8736 35.7926 86.6845 35.3643 87.1916 34.6933C87.5842 34.1979 87.7795 33.211 87.7795 31.7327V20.0346C87.7795 19.0951 87.7282 18.4142 87.6237 17.9898C87.5211 17.5655 87.3297 17.2043 87.0515 16.9062C86.5562 16.3595 85.7907 15.9865 84.7588 15.7911V15.3115C84.9028 15.3214 85.033 15.3273 85.1455 15.3273L86.5089 15.4043C87.0554 15.4358 87.6907 15.4516 88.4148 15.4516C89.5612 15.4516 90.599 15.4043 91.5283 15.3115L93.6967 15.126C94.3774 15.0648 95.0502 15.0332 95.7112 15.0332C96.9305 15.0332 98.0197 15.1575 98.9805 15.4043C99.9414 15.6529 100.752 16.0082 101.413 16.474C102.074 16.9378 102.585 17.5102 102.946 18.1852C103.307 18.8622 103.489 19.6181 103.489 20.455C103.489 21.8484 103.011 22.9359 102.057 23.7175C101.102 24.4971 99.6889 24.955 97.8204 25.0892C98.9766 25.5432 99.9552 26.1669 100.756 26.9563C101.557 27.7458 102.508 29.0347 103.613 30.8228C104.862 32.8261 105.849 34.2216 106.571 35.0071C107.293 35.7926 108.094 36.3492 108.972 36.6808V37.115C107.845 37.0933 106.889 36.9907 106.099 36.8051C105.31 36.6196 104.521 36.288 103.738 35.8143C102.757 35.2045 101.832 34.3834 100.965 33.3512C100.099 32.3189 99.3396 31.1347 98.6885 29.8024L97.8677 28.0833C97.4751 27.2781 97.1298 26.6919 96.8299 26.3248C96.53 25.9577 96.1748 25.707 95.7605 25.5728C95.3481 25.4386 94.7838 25.3715 94.0716 25.3715H91.3764L91.3744 25.3636ZM86.9291 35.6683H91.4514L90.8476 35.2183C90.4964 34.9597 90.2715 34.7545 90.1728 34.5985C90.0742 34.4446 90.0249 34.2117 90.0249 33.9018C90.0249 33.736 90.0229 33.6255 90.017 33.5683C90.011 33.511 90.0091 33.4518 90.0091 33.3906V18.3747C90.0091 18.3135 90.011 18.2503 90.017 18.1892C90.0229 18.128 90.0249 18.0194 90.0249 17.8635C90.0249 17.5753 90.0683 17.3523 90.157 17.1964C90.2439 17.0424 90.4392 16.851 90.7371 16.624L90.8456 16.547L91.7138 15.8799L91.1554 15.9115C90.2162 15.9727 89.3678 16.0043 88.6141 16.0043C88.1485 16.0043 87.5151 15.9885 86.7082 15.9569L87.5289 16.5451C87.8703 16.772 88.0913 16.9714 88.1958 17.1411C88.2984 17.3109 88.3517 17.5517 88.3517 17.8615C88.3616 18.0372 88.3675 18.2069 88.3675 18.3727V33.3887C88.3675 33.5544 88.3616 33.7242 88.3517 33.8998C88.3517 34.2196 88.3044 34.4544 88.2116 34.6045C88.1189 34.7545 87.892 34.9578 87.5309 35.2163L86.9272 35.6663L86.9291 35.6683ZM91.3744 24.7438H94.1466C95.7467 24.7438 96.899 24.5642 97.6014 24.2011C98.2308 23.8813 98.724 23.382 99.0812 22.707C99.4383 22.03 99.6158 21.2523 99.6158 20.374C99.6158 19.4957 99.4067 18.649 98.9884 17.9247C98.5701 17.2023 97.9861 16.6418 97.2383 16.2431C96.4886 15.8464 95.6342 15.647 94.6753 15.647C93.2508 15.647 92.2899 16.0911 91.7947 16.9793C91.5165 17.4845 91.3764 18.2799 91.3764 19.3655V24.7419L91.3744 24.7438ZM107.19 36.4736C106.644 36.1736 106.2 35.9012 105.859 35.6525C105.517 35.4038 105.121 35.0584 104.665 34.6143C104.128 34.036 103.706 33.5347 103.402 33.1123C103.098 32.688 102.593 31.8985 101.893 30.7419C101.232 29.6366 100.636 28.7426 100.103 28.0616C99.5705 27.3807 99.0377 26.832 98.4991 26.4195C97.9624 26.007 97.3685 25.6656 96.7174 25.3971C97.1298 25.8215 97.4711 26.2399 97.7395 26.6524C97.8835 26.8794 98.142 27.359 98.5149 28.0932C98.6293 28.3103 98.7398 28.5215 98.8483 28.7287C98.9568 28.936 99.0634 29.1531 99.166 29.3801C100.271 31.5393 101.459 33.1794 102.729 34.3005C104 35.4216 105.486 36.1479 107.19 36.4775V36.4736ZM97.4159 24.805C98.1084 24.6511 98.7398 24.428 99.314 24.1379C99.8862 23.8497 100.36 23.5182 100.731 23.1471C101.102 22.776 101.39 22.3517 101.591 21.876C101.792 21.4004 101.893 20.905 101.893 20.3879C101.893 19.2609 101.49 18.28 100.685 17.4431C99.8802 16.6062 98.8168 16.0694 97.4948 15.8326C98.0828 16.1523 98.58 16.5352 98.9825 16.9793C99.385 17.4234 99.6888 17.9267 99.896 18.4892C100.103 19.0517 100.206 19.6596 100.206 20.3089C100.206 21.4359 99.9828 22.3576 99.5389 23.0741C99.095 23.7925 98.3866 24.3668 97.4159 24.8011V24.805Z" fill="black"/>
<path d="M110.349 25.9049C110.349 24.4069 110.637 22.976 111.217 21.6121C111.795 20.2483 112.598 19.0522 113.626 18.0239C114.654 16.9956 115.842 16.2022 117.19 15.6377C118.537 15.0752 119.96 14.793 121.457 14.793C123.46 14.793 125.311 15.2903 127.01 16.2871C128.708 17.2838 130.056 18.6358 131.052 20.3391C132.049 22.0444 132.548 23.8977 132.548 25.901C132.548 27.3892 132.266 28.8063 131.703 30.1543C131.141 31.5024 130.342 32.6925 129.31 33.7267C128.278 34.7609 127.094 35.5623 125.763 36.1366C124.431 36.709 123.01 36.9971 121.503 36.9971C119.469 36.9971 117.596 36.5017 115.887 35.509C114.179 34.5182 112.827 33.1721 111.837 31.4727C110.846 29.7734 110.349 27.9161 110.349 25.903V25.9049ZM116.777 35.434C115.858 34.753 115.096 33.9498 114.493 33.0241C113.889 32.1004 113.433 31.0287 113.129 29.8089C112.825 28.5892 112.671 27.253 112.671 25.7964C112.671 23.647 112.999 21.8174 113.656 20.3036C114.311 18.7897 115.353 17.4969 116.777 16.4213C115.548 17.0726 114.498 17.8779 113.624 18.8391C112.752 19.8003 112.085 20.8759 111.626 22.07C111.166 23.2621 110.937 24.5372 110.937 25.8891C110.937 27.2411 111.166 28.5043 111.626 29.7083C112.085 30.9122 112.75 31.9997 113.624 32.9708C114.496 33.9419 115.548 34.7629 116.777 35.434ZM114.252 25.7964C114.252 27.3142 114.421 28.7234 114.763 30.0181C115.104 31.3149 115.592 32.4201 116.227 33.3339C116.862 34.2478 117.626 34.9484 118.52 35.434C119.413 35.9195 120.402 36.1623 121.485 36.1623C123.251 36.1623 124.794 35.4596 126.116 34.0544C126.921 33.1859 127.542 32.0491 127.982 30.6379C128.42 29.2286 128.641 27.6082 128.641 25.7806C128.641 24.1898 128.474 22.7549 128.138 21.472C127.803 20.1911 127.321 19.1016 126.698 18.2035C126.072 17.3055 125.319 16.6127 124.437 16.1272C123.555 15.6417 122.56 15.3989 121.455 15.3989C120.351 15.3989 119.372 15.6456 118.49 16.1351C117.608 16.6265 116.85 17.3272 116.221 18.243C115.592 19.1568 115.106 20.2621 114.765 21.5588C114.423 22.8556 114.254 24.2687 114.254 25.7964H114.252ZM125.281 35.4498C129.062 33.2708 130.95 30.0892 130.95 25.9049C130.95 24.5628 130.741 23.2779 130.322 22.0542C129.904 20.8305 129.31 19.7411 128.541 18.7858C127.771 17.8305 126.869 17.0687 125.838 16.5002C128.099 18.4838 129.229 21.5727 129.229 25.7668C129.229 26.9964 129.119 28.1707 128.896 29.2918C128.673 30.4129 128.367 31.3918 127.974 32.2287C127.779 32.653 127.566 33.03 127.339 33.3596C127.112 33.6912 126.834 34.0228 126.502 34.3583C126.171 34.6938 125.765 35.057 125.279 35.4498H125.281Z" fill="black"/>
<path d="M147.06 25.8758V31.7338C147.06 32.6318 147.119 33.2989 147.238 33.7331C147.356 34.1674 147.581 34.5503 147.912 34.8799C148.51 35.4483 149.378 35.8154 150.515 35.9792V36.4588H140.028V35.9792C141.299 35.7937 142.218 35.3693 142.784 34.7082C143.043 34.42 143.22 34.0647 143.319 33.6463C143.418 33.2279 143.467 32.5904 143.467 31.7338V26.5429L138.744 19.6942L138.574 19.4613C137.676 18.1192 136.924 17.1896 136.321 16.6724C135.717 16.1553 135.058 15.8613 134.346 15.7902V15.3106H144.152V15.7902L143.826 15.806C143.021 15.8474 142.469 15.9678 142.169 16.1691C141.869 16.3705 141.719 16.7099 141.719 17.1836C141.719 17.6573 141.936 18.1961 142.37 18.8258L146.831 25.2087L150.424 20.7916C151.209 19.8106 151.602 18.9225 151.602 18.1271C151.602 17.4047 151.336 16.8442 150.805 16.4455C150.272 16.0488 149.511 15.8277 148.52 15.7862V15.3066H156.823V15.7862C156.296 15.9205 155.803 16.1237 155.343 16.3981C154.883 16.6724 154.433 17.0159 153.995 17.4284C153.555 17.8429 153.068 18.3836 152.531 19.0547L151.555 20.2784L151.322 20.5567L147.062 25.8719L147.06 25.8758ZM142.615 35.6693H147.137L146.533 35.2193C146.182 34.9608 145.957 34.7555 145.858 34.5996C145.76 34.4457 145.71 34.2127 145.71 33.9029C145.71 33.7371 145.708 33.6266 145.703 33.5693C145.697 33.5121 145.695 33.4529 145.695 33.3917V25.8758L141.109 19.3369C140.51 18.4586 140.212 17.7521 140.212 17.2152C140.212 16.927 140.289 16.6705 140.444 16.4474C140.6 16.2244 140.841 16.0152 141.172 15.8198H136.044C136.51 16.0981 136.946 16.4691 137.353 16.927C137.761 17.3869 138.351 18.1744 139.126 19.2896L139.375 19.6468L144.053 26.4324V33.3897C144.053 33.5555 144.047 33.7252 144.037 33.9009C144.037 34.2206 143.99 34.4555 143.897 34.6055C143.804 34.7555 143.578 34.9588 143.217 35.2174L142.613 35.6674L142.615 35.6693ZM152.125 18.0836C152.859 17.1955 153.638 16.4455 154.463 15.8356H150.669C151.196 16.0843 151.57 16.3784 151.791 16.7198C152.012 17.0613 152.125 17.5152 152.125 18.0836Z" fill="black"/>
<path d="M171.78 28.6334H163.803L162.935 30.6169C162.523 31.588 162.315 32.3893 162.315 33.0189C162.315 33.5558 162.436 34.0176 162.679 34.4065C162.921 34.7933 163.282 35.113 163.764 35.3677C164.243 35.6203 164.876 35.8255 165.662 35.9795V36.4591H157.622V35.9953C158.592 35.6637 159.427 35.0874 160.123 34.2604C160.82 33.4334 161.556 32.1485 162.331 30.4018L169.178 14.9062H169.58L177.03 31.6571C177.05 31.6669 177.07 31.6966 177.084 31.742C177.1 31.7874 177.119 31.8367 177.145 31.888C177.171 31.9393 177.198 31.9966 177.23 32.0577L177.91 33.467C178.281 34.2209 178.706 34.7894 179.181 35.1703C179.657 35.5532 180.25 35.8216 180.963 35.9755V36.4552H171.08V35.9755C171.916 35.9144 172.514 35.8157 172.877 35.6815C173.621 35.4032 173.992 34.9176 173.992 34.2249C173.992 33.8834 173.826 33.3268 173.497 32.5512L171.778 28.6314L171.78 28.6334ZM162.657 35.6676C162.306 35.2433 162.057 34.8644 161.913 34.5288C161.769 34.1933 161.696 33.8282 161.696 33.4354C161.696 33.2597 161.702 33.1196 161.712 33.017C161.392 33.6367 161.076 34.1361 160.767 34.5111C160.457 34.888 160.039 35.2729 159.512 35.6657H162.657V35.6676ZM171.486 27.982L167.753 19.5681L164.081 27.982H171.486ZM168.079 18.903L174.043 32.338L174.199 32.6795C174.519 33.3722 174.679 33.8775 174.679 34.1972C174.679 34.6413 174.426 35.1328 173.919 35.6696H178.009C177.543 35.2354 177.141 34.738 176.802 34.1755C176.46 33.613 176.064 32.8295 175.608 31.8268L168.963 16.874L168.081 18.905L168.079 18.903Z" fill="black"/>
<path d="M192.553 15.3086V15.7882C191.314 15.9737 190.42 16.3981 189.873 17.0593C189.625 17.3593 189.453 17.7303 189.354 18.1744C189.256 18.6185 189.206 19.2382 189.206 20.0336V31.8561C189.206 32.6298 189.25 33.2397 189.339 33.6838C189.425 34.1279 189.583 34.495 189.81 34.7831C190.276 35.3713 191.158 35.6654 192.458 35.6654H192.784C193.476 35.6654 194.151 35.5588 194.812 35.3476C195.473 35.1364 196.146 34.795 196.834 34.3252C197.521 33.8555 198.217 33.2634 198.926 32.5509C199.632 31.8384 200.358 30.9956 201.102 30.0245H201.581L199.723 36.4549H182.591V35.9752C183.706 35.7897 184.517 35.3614 185.024 34.6904C185.416 34.195 185.612 33.2081 185.612 31.7298V20.0317C185.612 19.0922 185.56 18.4113 185.456 17.9869C185.353 17.5626 185.162 17.2014 184.884 16.9033C184.367 16.325 183.603 15.952 182.591 15.7882V15.3086H192.551H192.553ZM184.761 35.6693H189.283L188.68 35.2193C188.328 34.9608 188.104 34.7555 188.005 34.5996C187.906 34.4456 187.857 34.2127 187.857 33.9029C187.857 33.7371 187.855 33.6265 187.849 33.5693C187.843 33.5121 187.841 33.4529 187.841 33.3917V18.3757C187.841 18.3145 187.843 18.2514 187.849 18.1902C187.855 18.129 187.857 18.0205 187.857 17.8645C187.857 17.5547 187.91 17.3139 188.019 17.1441C188.127 16.9744 188.346 16.775 188.678 16.5481L189.56 15.8968H184.495L185.363 16.5481C185.724 16.8066 185.951 17.0079 186.044 17.152C186.136 17.2961 186.184 17.5349 186.184 17.8645C186.194 18.0402 186.2 18.2099 186.2 18.3757V33.3917C186.2 33.5575 186.194 33.7272 186.184 33.9029C186.184 34.2226 186.136 34.4575 186.044 34.6075C185.951 34.7575 185.724 34.9608 185.363 35.2193L184.759 35.6693H184.761ZM198.624 35.6693L199.46 32.7877C198.448 33.9956 197.245 34.9568 195.852 35.6693H198.624Z" fill="black"/>
<path d="M91.3744 25.3636V31.7327C91.3744 32.6209 91.4277 33.2821 91.5362 33.7163C91.6447 34.1505 91.8539 34.5373 92.1636 34.8788C92.7102 35.4472 93.527 35.8143 94.6102 35.9782V36.4578H84.7588V35.9782C85.8736 35.7926 86.6845 35.3643 87.1916 34.6933C87.5842 34.1979 87.7795 33.211 87.7795 31.7327V20.0346C87.7795 19.0951 87.7282 18.4142 87.6237 17.9898C87.5211 17.5655 87.3297 17.2043 87.0515 16.9062C86.5562 16.3595 85.7907 15.9865 84.7588 15.7911V15.3115C84.9028 15.3214 85.033 15.3273 85.1455 15.3273L86.5089 15.4043C87.0554 15.4358 87.6907 15.4516 88.4148 15.4516C89.5612 15.4516 90.599 15.4043 91.5283 15.3115L93.6967 15.126C94.3774 15.0648 95.0502 15.0332 95.7112 15.0332C96.9305 15.0332 98.0197 15.1575 98.9805 15.4043C99.9414 15.6529 100.752 16.0082 101.413 16.474C102.074 16.9378 102.585 17.5102 102.946 18.1852C103.307 18.8622 103.489 19.6181 103.489 20.455C103.489 21.8484 103.011 22.9359 102.057 23.7175C101.102 24.4971 99.6889 24.955 97.8204 25.0892C98.9766 25.5432 99.9552 26.1669 100.756 26.9563C101.557 27.7458 102.508 29.0347 103.613 30.8228C104.862 32.8261 105.849 34.2216 106.571 35.0071C107.293 35.7926 108.094 36.3492 108.972 36.6808V37.115C107.845 37.0933 106.889 36.9907 106.099 36.8051C105.31 36.6196 104.521 36.288 103.738 35.8143C102.757 35.2045 101.832 34.3834 100.965 33.3512C100.099 32.3189 99.3396 31.1347 98.6885 29.8024L97.8677 28.0833C97.4751 27.2781 97.1298 26.6919 96.8299 26.3248C96.53 25.9577 96.1748 25.707 95.7605 25.5728C95.3481 25.4386 94.7838 25.3715 94.0716 25.3715H91.3764L91.3744 25.3636ZM86.9291 35.6683H91.4514L90.8476 35.2183C90.4964 34.9597 90.2715 34.7545 90.1728 34.5985C90.0742 34.4446 90.0249 34.2117 90.0249 33.9018C90.0249 33.736 90.0229 33.6255 90.017 33.5683C90.011 33.511 90.0091 33.4518 90.0091 33.3906V18.3747C90.0091 18.3135 90.011 18.2503 90.017 18.1892C90.0229 18.128 90.0249 18.0194 90.0249 17.8635C90.0249 17.5753 90.0683 17.3523 90.157 17.1964C90.2439 17.0424 90.4392 16.851 90.7371 16.624L90.8456 16.547L91.7138 15.8799L91.1554 15.9115C90.2162 15.9727 89.3678 16.0043 88.6141 16.0043C88.1485 16.0043 87.5151 15.9885 86.7082 15.9569L87.5289 16.5451C87.8703 16.772 88.0913 16.9714 88.1958 17.1411C88.2984 17.3109 88.3517 17.5517 88.3517 17.8615C88.3616 18.0372 88.3675 18.2069 88.3675 18.3727V33.3887C88.3675 33.5544 88.3616 33.7242 88.3517 33.8998C88.3517 34.2196 88.3044 34.4544 88.2116 34.6045C88.1189 34.7545 87.892 34.9578 87.5309 35.2163L86.9272 35.6663L86.9291 35.6683ZM91.3744 24.7438H94.1466C95.7467 24.7438 96.899 24.5642 97.6014 24.2011C98.2308 23.8813 98.724 23.382 99.0812 22.707C99.4383 22.03 99.6158 21.2523 99.6158 20.374C99.6158 19.4957 99.4067 18.649 98.9884 17.9247C98.5701 17.2023 97.9861 16.6418 97.2383 16.2431C96.4886 15.8464 95.6342 15.647 94.6753 15.647C93.2508 15.647 92.2899 16.0911 91.7947 16.9793C91.5165 17.4845 91.3764 18.2799 91.3764 19.3655V24.7419L91.3744 24.7438ZM107.19 36.4736C106.644 36.1736 106.2 35.9012 105.859 35.6525C105.517 35.4038 105.121 35.0584 104.665 34.6143C104.128 34.036 103.706 33.5347 103.402 33.1123C103.098 32.688 102.593 31.8985 101.893 30.7419C101.232 29.6366 100.636 28.7426 100.103 28.0616C99.5705 27.3807 99.0377 26.832 98.4991 26.4195C97.9624 26.007 97.3685 25.6656 96.7174 25.3971C97.1298 25.8215 97.4711 26.2399 97.7395 26.6524C97.8835 26.8794 98.142 27.359 98.5149 28.0932C98.6293 28.3103 98.7398 28.5215 98.8483 28.7287C98.9568 28.936 99.0634 29.1531 99.166 29.3801C100.271 31.5393 101.459 33.1794 102.729 34.3005C104 35.4216 105.486 36.1479 107.19 36.4775V36.4736ZM97.4159 24.805C98.1084 24.6511 98.7398 24.428 99.314 24.1379C99.8862 23.8497 100.36 23.5182 100.731 23.1471C101.102 22.776 101.39 22.3517 101.591 21.876C101.792 21.4004 101.893 20.905 101.893 20.3879C101.893 19.2609 101.49 18.28 100.685 17.4431C99.8802 16.6062 98.8168 16.0694 97.4948 15.8326C98.0828 16.1523 98.58 16.5352 98.9825 16.9793C99.385 17.4234 99.6888 17.9267 99.896 18.4892C100.103 19.0517 100.206 19.6596 100.206 20.3089C100.206 21.4359 99.9828 22.3576 99.5389 23.0741C99.095 23.7925 98.3866 24.3668 97.4159 24.8011V24.805Z" fill="url(#paint8_linear_206_33847)"/>
<path d="M110.349 25.9049C110.349 24.4069 110.637 22.976 111.217 21.6121C111.795 20.2483 112.598 19.0522 113.626 18.0239C114.654 16.9956 115.842 16.2022 117.19 15.6377C118.537 15.0752 119.96 14.793 121.457 14.793C123.46 14.793 125.311 15.2903 127.01 16.2871C128.708 17.2838 130.056 18.6358 131.052 20.3391C132.049 22.0444 132.548 23.8977 132.548 25.901C132.548 27.3892 132.266 28.8063 131.703 30.1543C131.141 31.5024 130.342 32.6925 129.31 33.7267C128.278 34.7609 127.094 35.5623 125.763 36.1366C124.431 36.709 123.01 36.9971 121.503 36.9971C119.469 36.9971 117.596 36.5017 115.887 35.509C114.179 34.5182 112.827 33.1721 111.837 31.4727C110.846 29.7734 110.349 27.9161 110.349 25.903V25.9049ZM116.777 35.434C115.858 34.753 115.096 33.9498 114.493 33.0241C113.889 32.1004 113.433 31.0287 113.129 29.8089C112.825 28.5892 112.671 27.253 112.671 25.7964C112.671 23.647 112.999 21.8174 113.656 20.3036C114.311 18.7897 115.353 17.4969 116.777 16.4213C115.548 17.0726 114.498 17.8779 113.624 18.8391C112.752 19.8003 112.085 20.8759 111.626 22.07C111.166 23.2621 110.937 24.5372 110.937 25.8891C110.937 27.2411 111.166 28.5043 111.626 29.7083C112.085 30.9122 112.75 31.9997 113.624 32.9708C114.496 33.9419 115.548 34.7629 116.777 35.434ZM114.252 25.7964C114.252 27.3142 114.421 28.7234 114.763 30.0181C115.104 31.3149 115.592 32.4201 116.227 33.3339C116.862 34.2478 117.626 34.9484 118.52 35.434C119.413 35.9195 120.402 36.1623 121.485 36.1623C123.251 36.1623 124.794 35.4596 126.116 34.0544C126.921 33.1859 127.542 32.0491 127.982 30.6379C128.42 29.2286 128.641 27.6082 128.641 25.7806C128.641 24.1898 128.474 22.7549 128.138 21.472C127.803 20.1911 127.321 19.1016 126.698 18.2035C126.072 17.3055 125.319 16.6127 124.437 16.1272C123.555 15.6417 122.56 15.3989 121.455 15.3989C120.351 15.3989 119.372 15.6456 118.49 16.1351C117.608 16.6265 116.85 17.3272 116.221 18.243C115.592 19.1568 115.106 20.2621 114.765 21.5588C114.423 22.8556 114.254 24.2687 114.254 25.7964H114.252ZM125.281 35.4498C129.062 33.2708 130.95 30.0892 130.95 25.9049C130.95 24.5628 130.741 23.2779 130.322 22.0542C129.904 20.8305 129.31 19.7411 128.541 18.7858C127.771 17.8305 126.869 17.0687 125.838 16.5002C128.099 18.4838 129.229 21.5727 129.229 25.7668C129.229 26.9964 129.119 28.1707 128.896 29.2918C128.673 30.4129 128.367 31.3918 127.974 32.2287C127.779 32.653 127.566 33.03 127.339 33.3596C127.112 33.6912 126.834 34.0228 126.502 34.3583C126.171 34.6938 125.765 35.057 125.279 35.4498H125.281Z" fill="url(#paint9_linear_206_33847)"/>
<path d="M147.06 25.8758V31.7338C147.06 32.6318 147.119 33.2989 147.238 33.7331C147.356 34.1674 147.581 34.5503 147.912 34.8799C148.51 35.4483 149.378 35.8154 150.515 35.9792V36.4588H140.028V35.9792C141.299 35.7937 142.218 35.3693 142.784 34.7082C143.043 34.42 143.22 34.0647 143.319 33.6463C143.418 33.2279 143.467 32.5904 143.467 31.7338V26.5429L138.744 19.6942L138.574 19.4613C137.676 18.1192 136.924 17.1896 136.321 16.6724C135.717 16.1553 135.058 15.8613 134.346 15.7902V15.3106H144.152V15.7902L143.826 15.806C143.021 15.8474 142.469 15.9678 142.169 16.1691C141.869 16.3705 141.719 16.7099 141.719 17.1836C141.719 17.6573 141.936 18.1961 142.37 18.8258L146.831 25.2087L150.424 20.7916C151.209 19.8106 151.602 18.9225 151.602 18.1271C151.602 17.4047 151.336 16.8442 150.805 16.4455C150.272 16.0488 149.511 15.8277 148.52 15.7862V15.3066H156.823V15.7862C156.296 15.9205 155.803 16.1237 155.343 16.3981C154.883 16.6724 154.433 17.0159 153.995 17.4284C153.555 17.8429 153.068 18.3836 152.531 19.0547L151.555 20.2784L151.322 20.5567L147.062 25.8719L147.06 25.8758ZM142.615 35.6693H147.137L146.533 35.2193C146.182 34.9608 145.957 34.7555 145.858 34.5996C145.76 34.4457 145.71 34.2127 145.71 33.9029C145.71 33.7371 145.708 33.6266 145.703 33.5693C145.697 33.5121 145.695 33.4529 145.695 33.3917V25.8758L141.109 19.3369C140.51 18.4586 140.212 17.7521 140.212 17.2152C140.212 16.927 140.289 16.6705 140.444 16.4474C140.6 16.2244 140.841 16.0152 141.172 15.8198H136.044C136.51 16.0981 136.946 16.4691 137.353 16.927C137.761 17.3869 138.351 18.1744 139.126 19.2896L139.375 19.6468L144.053 26.4324V33.3897C144.053 33.5555 144.047 33.7252 144.037 33.9009C144.037 34.2206 143.99 34.4555 143.897 34.6055C143.804 34.7555 143.578 34.9588 143.217 35.2174L142.613 35.6674L142.615 35.6693ZM152.125 18.0836C152.859 17.1955 153.638 16.4455 154.463 15.8356H150.669C151.196 16.0843 151.57 16.3784 151.791 16.7198C152.012 17.0613 152.125 17.5152 152.125 18.0836Z" fill="url(#paint10_linear_206_33847)"/>
<path d="M171.78 28.6334H163.803L162.935 30.6169C162.523 31.588 162.315 32.3893 162.315 33.0189C162.315 33.5558 162.436 34.0176 162.679 34.4065C162.921 34.7933 163.282 35.113 163.764 35.3677C164.243 35.6203 164.876 35.8255 165.662 35.9795V36.4591H157.622V35.9953C158.592 35.6637 159.427 35.0874 160.123 34.2604C160.82 33.4334 161.556 32.1485 162.331 30.4018L169.178 14.9062H169.58L177.03 31.6571C177.05 31.6669 177.07 31.6966 177.084 31.742C177.1 31.7874 177.119 31.8367 177.145 31.888C177.171 31.9393 177.198 31.9966 177.23 32.0577L177.91 33.467C178.281 34.2209 178.706 34.7894 179.181 35.1703C179.657 35.5532 180.25 35.8216 180.963 35.9755V36.4552H171.08V35.9755C171.916 35.9144 172.514 35.8157 172.877 35.6815C173.621 35.4032 173.992 34.9176 173.992 34.2249C173.992 33.8834 173.826 33.3268 173.497 32.5512L171.778 28.6314L171.78 28.6334ZM162.657 35.6676C162.306 35.2433 162.057 34.8644 161.913 34.5288C161.769 34.1933 161.696 33.8282 161.696 33.4354C161.696 33.2597 161.702 33.1196 161.712 33.017C161.392 33.6367 161.076 34.1361 160.767 34.5111C160.457 34.888 160.039 35.2729 159.512 35.6657H162.657V35.6676ZM171.486 27.982L167.753 19.5681L164.081 27.982H171.486ZM168.079 18.903L174.043 32.338L174.199 32.6795C174.519 33.3722 174.679 33.8775 174.679 34.1972C174.679 34.6413 174.426 35.1328 173.919 35.6696H178.009C177.543 35.2354 177.141 34.738 176.802 34.1755C176.46 33.613 176.064 32.8295 175.608 31.8268L168.963 16.874L168.081 18.905L168.079 18.903Z" fill="url(#paint11_linear_206_33847)"/>
<path d="M192.553 15.3086V15.7882C191.314 15.9737 190.42 16.3981 189.873 17.0593C189.625 17.3593 189.453 17.7303 189.354 18.1744C189.256 18.6185 189.206 19.2382 189.206 20.0336V31.8561C189.206 32.6298 189.25 33.2397 189.339 33.6838C189.425 34.1279 189.583 34.495 189.81 34.7831C190.276 35.3713 191.158 35.6654 192.458 35.6654H192.784C193.476 35.6654 194.151 35.5588 194.812 35.3476C195.473 35.1364 196.146 34.795 196.834 34.3252C197.521 33.8555 198.217 33.2634 198.926 32.5509C199.632 31.8384 200.358 30.9956 201.102 30.0245H201.581L199.723 36.4549H182.591V35.9752C183.706 35.7897 184.517 35.3614 185.024 34.6904C185.416 34.195 185.612 33.2081 185.612 31.7298V20.0317C185.612 19.0922 185.56 18.4113 185.456 17.9869C185.353 17.5626 185.162 17.2014 184.884 16.9033C184.367 16.325 183.603 15.952 182.591 15.7882V15.3086H192.551H192.553ZM184.761 35.6693H189.283L188.68 35.2193C188.328 34.9608 188.104 34.7555 188.005 34.5996C187.906 34.4456 187.857 34.2127 187.857 33.9029C187.857 33.7371 187.855 33.6265 187.849 33.5693C187.843 33.5121 187.841 33.4529 187.841 33.3917V18.3757C187.841 18.3145 187.843 18.2514 187.849 18.1902C187.855 18.129 187.857 18.0205 187.857 17.8645C187.857 17.5547 187.91 17.3139 188.019 17.1441C188.127 16.9744 188.346 16.775 188.678 16.5481L189.56 15.8968H184.495L185.363 16.5481C185.724 16.8066 185.951 17.0079 186.044 17.152C186.136 17.2961 186.184 17.5349 186.184 17.8645C186.194 18.0402 186.2 18.2099 186.2 18.3757V33.3917C186.2 33.5575 186.194 33.7272 186.184 33.9029C186.184 34.2226 186.136 34.4575 186.044 34.6075C185.951 34.7575 185.724 34.9608 185.363 35.2193L184.759 35.6693H184.761ZM198.624 35.6693L199.46 32.7877C198.448 33.9956 197.245 34.9568 195.852 35.6693H198.624Z" fill="url(#paint12_linear_206_33847)"/>
<path fill-rule="evenodd" clip-rule="evenodd" d="M94.6025 50.6211H87.1602V51.6211H94.6025V50.6211ZM197.211 50.6211H189.767V51.6211H197.211V50.6211Z" fill="url(#paint13_linear_206_33847)"/>
<path d="M110.059 59.4114V59.0561C110.87 58.9179 111.462 58.6021 111.837 58.1048C112.119 57.7298 112.261 56.9995 112.261 55.914V47.2534C112.261 46.604 112.222 46.1126 112.147 45.779C112.07 45.4454 111.93 45.1652 111.722 44.9362C111.355 44.5079 110.801 44.2336 110.059 44.1112V43.756L110.243 43.7678L111.618 43.8586C112.107 43.8902 112.589 43.904 113.062 43.904C113.459 43.904 113.93 43.8862 114.473 43.8527C115.015 43.8191 115.428 43.7856 115.712 43.756L116.87 43.6296C117.282 43.5842 117.711 43.5605 118.155 43.5605C118.942 43.5605 119.654 43.6513 120.293 43.8349C120.931 44.0184 121.477 44.281 121.927 44.6204C122.379 44.9619 122.726 45.3704 122.971 45.8481C123.215 46.3257 123.338 46.8566 123.338 47.4369C123.338 48.3389 123.054 49.0968 122.483 49.7086C121.913 50.3205 121.086 50.7646 120.001 51.0389C120.903 51.1297 121.698 51.3725 122.387 51.7613C123.075 52.1501 123.604 52.6613 123.975 53.2929C124.346 53.9245 124.531 54.633 124.531 55.4205C124.531 56.062 124.409 56.6383 124.164 57.1475C123.92 57.6568 123.557 58.0989 123.075 58.4778C122.594 58.8568 122.012 59.141 121.333 59.3324C120.652 59.5239 119.907 59.6186 119.098 59.6186C118.677 59.6186 118.07 59.5851 117.275 59.516C116.112 59.4252 115.317 59.366 114.889 59.3443C114.193 59.3068 113.559 59.287 112.985 59.287C112.533 59.287 112.03 59.3028 111.472 59.3324L110.29 59.4015L110.061 59.4133L110.059 59.4114ZM111.677 58.8035C112.281 58.7265 112.786 58.689 113.19 58.689C113.557 58.689 114.035 58.7206 114.625 58.7798L114.899 58.8035L114.498 58.4936C114.238 58.3022 114.072 58.1502 113.999 58.0357C113.926 57.9212 113.891 57.7495 113.891 57.5186V57.1396C113.891 57.0706 113.889 57.0252 113.885 57.0015C113.881 56.9778 113.879 56.96 113.879 56.9442V46.2172C113.879 46.1935 113.879 46.1718 113.885 46.1481C113.889 46.1244 113.891 46.0829 113.891 46.0218V45.6428C113.891 45.4829 113.905 45.3566 113.93 45.2639C113.956 45.1731 114.009 45.0862 114.084 45.0053C114.161 44.9244 114.297 44.8119 114.496 44.6678L115.104 44.2079L114.692 44.2415C114.104 44.2948 113.587 44.3224 113.143 44.3224C112.638 44.3224 112.079 44.281 111.468 44.1961L112.076 44.6658C112.344 44.8652 112.512 45.0191 112.581 45.1296C112.65 45.2402 112.683 45.4099 112.683 45.6408V57.5146C112.683 57.7436 112.65 57.9153 112.581 58.0258C112.512 58.1364 112.344 58.2923 112.076 58.4897L111.675 58.7995L111.677 58.8035ZM114.889 50.956H116.748C117.849 50.956 118.689 50.735 119.271 50.2909C119.668 50.0008 119.985 49.604 120.224 49.1027C120.461 48.6014 120.579 48.0764 120.579 47.5257C120.579 46.8606 120.437 46.2645 120.155 45.7356C119.873 45.2086 119.478 44.7941 118.973 44.4961C118.468 44.1981 117.902 44.0481 117.276 44.0481C116.779 44.0481 116.351 44.1389 115.992 44.3244C115.633 44.5079 115.353 44.7724 115.155 45.1158C114.98 45.4593 114.891 46.006 114.891 46.756V50.954L114.889 50.956ZM114.889 51.4041V56.2337C114.889 57.2285 115.116 57.9291 115.572 58.3396C116.028 58.7482 116.801 58.9535 117.894 58.9535C119.141 58.9535 120.088 58.5982 120.739 57.8857C121.38 57.1831 121.702 56.3067 121.702 55.2587C121.702 54.8146 121.647 54.4041 121.536 54.0251C121.426 53.6462 121.26 53.3008 121.043 52.987C120.826 52.6731 120.564 52.4027 120.258 52.1777C119.952 51.9527 119.605 51.783 119.214 51.6666C118.687 51.4909 117.898 51.4021 116.852 51.4021H114.891L114.889 51.4041ZM119.293 50.7389C120.234 50.4626 120.958 50.0343 121.465 49.454C121.974 48.8738 122.229 48.177 122.229 47.3659C122.229 46.5547 121.972 45.8619 121.461 45.3073C120.948 44.7527 120.193 44.354 119.19 44.1092C120.406 44.9658 121.013 46.0869 121.013 47.4705C121.013 48.9389 120.439 50.0284 119.293 50.7409V50.7389ZM119.82 58.9989C120.538 58.8844 121.169 58.6653 121.712 58.3396C122.254 58.014 122.673 57.6035 122.969 57.1061C123.263 56.6087 123.411 56.058 123.411 55.4541C123.411 54.5896 123.125 53.8218 122.55 53.1488C121.976 52.4758 121.175 51.9666 120.141 51.6231C121.471 52.4876 122.136 53.7034 122.136 55.2705C122.136 57.0607 121.365 58.3041 119.82 58.9989Z" fill="url(#paint14_linear_206_33847)"/>
<path d="M147.656 43.752L148.092 48.0191H147.725C147.328 46.7046 146.736 45.7336 145.953 45.1118C145.17 44.4881 144.152 44.1763 142.897 44.1763H142.255C141.253 44.1763 140.545 44.3697 140.129 44.7566C139.712 45.1434 139.503 45.7868 139.503 46.6888V50.5889H141.028C142.182 50.5889 143.023 50.4073 143.552 50.0441C144.081 49.681 144.442 49.0257 144.641 48.0763H144.984V53.881H144.641C144.487 53.1172 144.284 52.533 144.027 52.1323C143.771 51.7316 143.412 51.4474 142.95 51.2836C142.488 51.1198 141.859 51.0369 141.064 51.0369H139.503V56.0047C139.503 56.7626 139.574 57.3409 139.716 57.7435C139.858 58.1442 140.107 58.4264 140.462 58.5863C140.817 58.7462 141.316 58.8271 141.96 58.8271H143.015C144.055 58.8271 145.041 58.5054 145.975 57.8639C147.007 57.1455 148.021 56.1429 149.013 54.858L149.104 54.7317H149.504L148.151 59.4113H134.606V59.0561C135.431 58.9179 136.032 58.6021 136.407 58.1047C136.697 57.7376 136.843 57.0074 136.843 55.9139V47.2533C136.843 46.5566 136.804 46.0533 136.729 45.7395C136.652 45.4257 136.512 45.1592 136.305 44.9362C135.922 44.5079 135.358 44.2335 134.608 44.1112V43.7559H147.66L147.656 43.752ZM136.21 58.8271H139.558L139.11 58.4936C138.85 58.3021 138.684 58.1501 138.611 58.0357C138.538 57.9212 138.503 57.7495 138.503 57.5185C138.503 57.3962 138.503 57.3133 138.497 57.2718C138.493 57.2304 138.491 57.185 138.491 57.1396V46.0237C138.491 45.9783 138.491 45.9329 138.497 45.8855C138.501 45.8401 138.503 45.7592 138.503 45.6447C138.503 45.4158 138.542 45.2382 138.623 45.1118C138.704 44.9855 138.866 44.8395 139.11 44.6697L139.763 44.1881H136.001L136.654 44.6697C136.914 44.8612 137.08 45.0131 137.153 45.1296C137.226 45.246 137.262 45.4158 137.262 45.6467C137.27 45.777 137.274 45.9033 137.274 46.0257V57.1416C137.274 57.2639 137.27 57.3903 137.262 57.5205C137.262 57.7574 137.228 57.9311 137.159 58.0416C137.09 58.1521 136.922 58.3041 136.654 58.4955L136.206 58.8291L136.21 58.8271ZM144.157 50.0974C143.942 50.2968 143.777 50.4329 143.658 50.504C143.54 50.577 143.293 50.6856 142.918 50.8316C143.347 50.954 143.759 51.2027 144.157 51.5777V50.0974ZM146.795 44.1783H145.144C145.572 44.3539 145.915 44.5454 146.176 44.7526C146.436 44.9599 146.726 45.2757 147.048 45.7039L146.795 44.1783ZM147.334 58.8291L147.975 56.6955C147.701 57.0014 147.427 57.2797 147.155 57.5264C146.882 57.7751 146.576 58.01 146.237 58.231C145.898 58.4521 145.55 58.6514 145.199 58.8271H147.332L147.334 58.8291Z" fill="url(#paint15_linear_206_33847)"/>
<path d="M174.345 43.752L174.7 48.0191H174.333C174.104 47.2316 173.792 46.5507 173.398 45.9763C173.003 45.402 172.545 44.9619 172.021 44.652C171.496 44.3421 170.949 44.1882 170.375 44.1882C169.923 44.1882 169.533 44.2829 169.199 44.4684C168.866 44.654 168.619 44.9145 168.459 45.2421C168.305 45.5559 168.23 46.0612 168.23 46.7559V55.91C168.23 56.5909 168.276 57.0903 168.368 57.408C168.459 57.7258 168.637 58.0021 168.895 58.239C169.361 58.6594 170.042 58.9317 170.937 59.0541V59.4094H162.852V59.0541C163.846 58.9159 164.572 58.6021 165.03 58.1127C165.237 57.8916 165.377 57.6192 165.454 57.2975C165.531 56.9758 165.569 56.5139 165.569 55.91V46.7559C165.569 45.998 165.466 45.4474 165.259 45.104C165.099 44.8217 164.858 44.5967 164.537 44.4329C164.215 44.2691 163.844 44.1862 163.424 44.1862C162.56 44.1862 161.771 44.5296 161.056 45.2125C160.342 45.8974 159.807 46.8329 159.456 48.0171H159.101L159.456 43.75H174.343L174.345 43.752ZM159.837 44.1763L159.677 45.8619C160.007 45.3803 160.285 45.029 160.514 44.8059C160.743 44.5849 161.041 44.3737 161.408 44.1744H159.837V44.1763ZM164.929 58.8271H168.29L167.842 58.4936C167.567 58.2863 167.394 58.1304 167.325 58.0238C167.256 57.9173 167.222 57.7495 167.222 57.5186V57.1396C167.222 57.0784 167.222 57.037 167.216 57.0133C167.21 56.9896 167.21 56.9679 167.21 56.9442V46.2171C167.21 46.1934 167.21 46.1717 167.216 46.1481C167.222 46.1244 167.222 46.0829 167.222 46.0217V45.6428C167.222 45.4138 167.264 45.2362 167.348 45.1099C167.433 44.9836 167.597 44.8375 167.842 44.6678L168.495 44.1862H164.963L165.502 44.6678C165.693 44.8355 165.823 44.9915 165.892 45.1316C165.961 45.2737 165.995 45.4434 165.995 45.6428V46.0217C166.003 46.0908 166.007 46.1559 166.007 46.2171V56.9442C166.007 57.0054 166.003 57.0705 165.995 57.1396V57.5186C165.995 57.7475 165.959 57.9192 165.886 58.0357C165.813 58.1501 165.648 58.3041 165.387 58.4936L164.927 58.8271H164.929ZM173.473 44.1763H171.809C172.214 44.3441 172.555 44.5375 172.83 44.7566C173.106 44.9737 173.392 45.2895 173.69 45.702L173.473 44.1763Z" fill="url(#paint16_linear_206_33847)"/>
<defs>
<linearGradient id="paint0_linear_206_33847" x1="-7.45218" y1="10.1615" x2="69.1338" y2="10.1615" gradientUnits="userSpaceOnUse">
<stop stop-color="#C2B87B"/>
<stop offset="0.26" stop-color="#E8DFA1"/>
<stop offset="0.64" stop-color="#BFB679"/>
<stop offset="1" stop-color="#EFE7A7"/>
</linearGradient>
<linearGradient id="paint1_linear_206_33847" x1="-88.2501" y1="35.2284" x2="73.5143" y2="35.2284" gradientUnits="userSpaceOnUse">
<stop stop-color="#C2B87B"/>
<stop offset="0.26" stop-color="#E8DFA1"/>
<stop offset="0.64" stop-color="#BFB679"/>
<stop offset="1" stop-color="#EFE7A7"/>
</linearGradient>
<linearGradient id="paint2_linear_206_33847" x1="-7.61165" y1="55.1576" x2="68.9742" y2="55.1576" gradientUnits="userSpaceOnUse">
<stop stop-color="#C2B87B"/>
<stop offset="0.26" stop-color="#E8DFA1"/>
<stop offset="0.64" stop-color="#BFB679"/>
<stop offset="1" stop-color="#EFE7A7"/>
</linearGradient>
<linearGradient id="paint3_linear_206_33847" x1="-7.61165" y1="55.1576" x2="68.9742" y2="55.1576" gradientUnits="userSpaceOnUse">
<stop stop-color="#C2B87B"/>
<stop offset="0.26" stop-color="#E8DFA1"/>
<stop offset="0.64" stop-color="#BFB679"/>
<stop offset="1" stop-color="#EFE7A7"/>
</linearGradient>
<linearGradient id="paint4_linear_206_33847" x1="-11.6424" y1="4.0775" x2="70.3023" y2="4.0775" gradientUnits="userSpaceOnUse">
<stop stop-color="#C2B87B"/>
<stop offset="0.26" stop-color="#E8DFA1"/>
<stop offset="0.64" stop-color="#BFB679"/>
<stop offset="1" stop-color="#EFE7A7"/>
</linearGradient>
<linearGradient id="paint5_linear_206_33847" x1="-11.6424" y1="4.0775" x2="70.3023" y2="4.0775" gradientUnits="userSpaceOnUse">
<stop stop-color="#C2B87B"/>
<stop offset="0.26" stop-color="#E8DFA1"/>
<stop offset="0.64" stop-color="#BFB679"/>
<stop offset="1" stop-color="#EFE7A7"/>
</linearGradient>
<linearGradient id="paint6_linear_206_33847" x1="-6.61709" y1="64.1496" x2="68.7869" y2="64.1496" gradientUnits="userSpaceOnUse">
<stop stop-color="#C2B87B"/>
<stop offset="0.26" stop-color="#E8DFA1"/>
<stop offset="0.64" stop-color="#BFB679"/>
<stop offset="1" stop-color="#EFE7A7"/>
</linearGradient>
<linearGradient id="paint7_linear_206_33847" x1="-1.41827" y1="54.7832" x2="61.5891" y2="54.7832" gradientUnits="userSpaceOnUse">
<stop stop-color="#C2B87B"/>
<stop offset="0.26" stop-color="#E8DFA1"/>
<stop offset="0.64" stop-color="#BFB679"/>
<stop offset="1" stop-color="#EFE7A7"/>
</linearGradient>
<linearGradient id="paint8_linear_206_33847" x1="84.7608" y1="25.9517" x2="201.583" y2="25.9517" gradientUnits="userSpaceOnUse">
<stop stop-color="#C2B87B"/>
<stop offset="0.26" stop-color="#E8DFA1"/>
<stop offset="0.64" stop-color="#BFB679"/>
<stop offset="1" stop-color="#EFE7A7"/>
</linearGradient>
<linearGradient id="paint9_linear_206_33847" x1="84.7607" y1="25.9523" x2="201.583" y2="25.9523" gradientUnits="userSpaceOnUse">
<stop stop-color="#C2B87B"/>
<stop offset="0.26" stop-color="#E8DFA1"/>
<stop offset="0.64" stop-color="#BFB679"/>
<stop offset="1" stop-color="#EFE7A7"/>
</linearGradient>
<linearGradient id="paint10_linear_206_33847" x1="84.761" y1="25.9528" x2="201.583" y2="25.9528" gradientUnits="userSpaceOnUse">
<stop stop-color="#C2B87B"/>
<stop offset="0.26" stop-color="#E8DFA1"/>
<stop offset="0.64" stop-color="#BFB679"/>
<stop offset="1" stop-color="#EFE7A7"/>
</linearGradient>
<linearGradient id="paint11_linear_206_33847" x1="84.7608" y1="25.9531" x2="201.583" y2="25.9531" gradientUnits="userSpaceOnUse">
<stop stop-color="#C2B87B"/>
<stop offset="0.26" stop-color="#E8DFA1"/>
<stop offset="0.64" stop-color="#BFB679"/>
<stop offset="1" stop-color="#EFE7A7"/>
</linearGradient>
<linearGradient id="paint12_linear_206_33847" x1="84.7611" y1="25.9528" x2="201.583" y2="25.9528" gradientUnits="userSpaceOnUse">
<stop stop-color="#C2B87B"/>
<stop offset="0.26" stop-color="#E8DFA1"/>
<stop offset="0.64" stop-color="#BFB679"/>
<stop offset="1" stop-color="#EFE7A7"/>
</linearGradient>
<linearGradient id="paint13_linear_206_33847" x1="nan" y1="nan" x2="nan" y2="nan" gradientUnits="userSpaceOnUse">
<stop stop-color="#C2B87B"/>
<stop offset="0.26" stop-color="#E8DFA1"/>
<stop offset="0.64" stop-color="#BFB679"/>
<stop offset="1" stop-color="#EFE7A7"/>
</linearGradient>
<linearGradient id="paint14_linear_206_33847" x1="110.059" y1="51.5876" x2="174.7" y2="51.5876" gradientUnits="userSpaceOnUse">
<stop stop-color="#C2B87B"/>
<stop offset="0.26" stop-color="#E8DFA1"/>
<stop offset="0.64" stop-color="#BFB679"/>
<stop offset="1" stop-color="#EFE7A7"/>
</linearGradient>
<linearGradient id="paint15_linear_206_33847" x1="110.059" y1="51.5876" x2="174.7" y2="51.5876" gradientUnits="userSpaceOnUse">
<stop stop-color="#C2B87B"/>
<stop offset="0.26" stop-color="#E8DFA1"/>
<stop offset="0.64" stop-color="#BFB679"/>
<stop offset="1" stop-color="#EFE7A7"/>
</linearGradient>
<linearGradient id="paint16_linear_206_33847" x1="110.059" y1="51.5876" x2="174.7" y2="51.5876" gradientUnits="userSpaceOnUse">
<stop stop-color="#C2B87B"/>
<stop offset="0.26" stop-color="#E8DFA1"/>
<stop offset="0.64" stop-color="#BFB679"/>
<stop offset="1" stop-color="#EFE7A7"/>
</linearGradient>
</defs>
</svg>
