<svg width="118" height="46" viewBox="0 0 118 46" fill="none" xmlns="http://www.w3.org/2000/svg">
<path d="M7.37442 11.3636V17.7327C7.37442 18.6209 7.42769 19.2821 7.53621 19.7163C7.64473 20.1505 7.85387 20.5373 8.16364 20.8788C8.71018 21.4472 9.52702 21.8143 10.6102 21.9782V22.4578H0.758789V21.9782C1.87356 21.7926 2.68448 21.3643 3.19156 20.6933C3.58419 20.1979 3.77953 19.211 3.77953 17.7327V6.03456C3.77953 5.09508 3.72823 4.41416 3.62365 3.98981C3.52106 3.56546 3.32967 3.20428 3.05147 2.90625C2.55624 2.35953 1.79069 1.9865 0.758789 1.7911V1.31149C0.902822 1.32136 1.03304 1.32728 1.14551 1.32728L2.50888 1.40426C3.05542 1.43584 3.69074 1.45163 4.41485 1.45163C5.56119 1.45163 6.59902 1.40425 7.52832 1.31149L9.6967 1.12596C10.3774 1.06478 11.0502 1.0332 11.7112 1.0332C12.9305 1.0332 14.0197 1.15755 14.9805 1.40426C15.9414 1.65295 16.7523 2.00821 17.4133 2.474C18.0743 2.93783 18.5853 3.5102 18.9464 4.1852C19.3074 4.86218 19.4889 5.61811 19.4889 6.45496C19.4889 7.8484 19.0115 8.93592 18.0565 9.7175C17.1016 10.4971 15.6889 10.955 13.8204 11.0892C14.9766 11.5432 15.9552 12.1669 16.7563 12.9563C17.5573 13.7458 18.5083 15.0347 19.6132 16.8228C20.8622 18.8261 21.8487 20.2216 22.5708 21.0071C23.293 21.7926 24.094 22.3492 24.972 22.6808V23.115C23.8454 23.0933 22.8885 22.9907 22.0993 22.8051C21.3101 22.6196 20.5209 22.288 19.7376 21.8143C18.7569 21.2045 17.8316 20.3834 16.9654 19.3512C16.0992 18.3189 15.3396 17.1347 14.6885 15.8024L13.8677 14.0833C13.4751 13.2781 13.1298 12.6919 12.8299 12.3248C12.53 11.9577 12.1748 11.707 11.7605 11.5728C11.3481 11.4386 10.7838 11.3715 10.0716 11.3715H7.37639L7.37442 11.3636ZM2.92914 21.6683H7.45137L6.84762 21.2183C6.49641 20.9597 6.27148 20.7545 6.17283 20.5985C6.07418 20.4446 6.02485 20.2117 6.02485 19.9018C6.02485 19.736 6.02288 19.6255 6.01696 19.5683C6.01105 19.511 6.00907 19.4518 6.00907 19.3906V4.37468C6.00907 4.3135 6.01105 4.25034 6.01696 4.18915C6.02288 4.12797 6.02485 4.01941 6.02485 3.86349C6.02485 3.57533 6.06826 3.35231 6.15705 3.19639C6.24386 3.04244 6.4392 2.85098 6.73713 2.62401L6.84564 2.54703L7.71379 1.87992L7.15541 1.9115C6.21624 1.97269 5.36783 2.00426 4.61412 2.00426C4.14848 2.00426 3.51513 1.98847 2.70816 1.9569L3.52895 2.54506C3.87028 2.77203 4.09127 2.97138 4.19584 3.14112C4.29844 3.31086 4.35171 3.55165 4.35171 3.86152C4.36158 4.03718 4.36749 4.20692 4.36749 4.37271V19.3887C4.36749 19.5544 4.36158 19.7242 4.35171 19.8998C4.35171 20.2196 4.30436 20.4544 4.21163 20.6045C4.11889 20.7545 3.89199 20.9578 3.53092 21.2163L2.92717 21.6663L2.92914 21.6683ZM7.37442 10.7438H10.1466C11.7467 10.7438 12.899 10.5642 13.6014 10.2011C14.2308 9.88132 14.724 9.38197 15.0812 8.70697C15.4383 8.02999 15.6158 7.25235 15.6158 6.37405C15.6158 5.49575 15.4067 4.64903 14.9884 3.92469C14.5701 3.20231 13.9861 2.64177 13.2383 2.24308C12.4886 1.84637 11.6342 1.64702 10.6753 1.64702C9.25079 1.64702 8.28991 2.09111 7.79468 2.97927C7.51648 3.48454 7.37639 4.27995 7.37639 5.36549V10.7419L7.37442 10.7438ZM23.1904 22.4736C22.6439 22.1736 22.1999 21.9012 21.8586 21.6525C21.5172 21.4038 21.1207 21.0584 20.6649 20.6143C20.1282 20.036 19.706 19.5347 19.4021 19.1123C19.0983 18.688 18.5932 17.8985 17.8927 16.7419C17.2318 15.6366 16.6359 14.7426 16.1032 14.0616C15.5705 13.3807 15.0377 12.832 14.4991 12.4195C13.9624 12.007 13.3685 11.6656 12.7174 11.3971C13.1298 11.8215 13.4711 12.2399 13.7395 12.6524C13.8835 12.8794 14.142 13.359 14.5149 14.0932C14.6293 14.3103 14.7398 14.5215 14.8483 14.7287C14.9568 14.936 15.0634 15.1531 15.166 15.3801C16.2709 17.5393 17.4587 19.1794 18.7293 20.3005C20 21.4216 21.4857 22.1479 23.1904 22.4775V22.4736ZM13.4159 10.805C14.1084 10.6511 14.7398 10.428 15.314 10.1379C15.8862 9.84974 16.3597 9.51816 16.7306 9.1471C17.1016 8.77604 17.3896 8.3517 17.5909 7.87603C17.7921 7.40037 17.8927 6.90497 17.8927 6.38786C17.8927 5.26088 17.4902 4.27995 16.6852 3.4431C15.8802 2.60625 14.8168 2.0694 13.4948 1.83255C14.0828 2.15229 14.58 2.53519 14.9825 2.97927C15.385 3.42336 15.6888 3.92666 15.896 4.48916C16.1032 5.05167 16.2058 5.65956 16.2058 6.30891C16.2058 7.4359 15.9828 8.35762 15.5389 9.07407C15.095 9.7925 14.3866 10.3668 13.4159 10.8011V10.805Z" fill="black"/>
<path d="M26.3491 11.9049C26.3491 10.4069 26.6372 8.97596 27.2173 7.61213C27.7954 6.2483 28.5984 5.05223 29.6264 4.02393C30.6543 2.99563 31.8421 2.2022 33.1897 1.63772C34.5373 1.07521 35.9598 0.792969 37.4574 0.792969C39.46 0.792969 41.3108 1.29034 43.0096 2.28706C44.7083 3.28379 46.0559 4.63578 47.0523 6.33909C48.0487 8.04437 48.5479 9.89767 48.5479 11.901C48.5479 13.3892 48.2657 14.8063 47.7034 16.1543C47.1411 17.5024 46.342 18.6925 45.3101 19.7267C44.2782 20.7609 43.0944 21.5623 41.7626 22.1366C40.4308 22.709 39.0102 22.9971 37.5028 22.9971C35.4685 22.9971 33.5961 22.5017 31.8875 21.509C30.1788 20.5182 28.8273 19.1721 27.8368 17.4727C26.8463 15.7734 26.3491 13.9161 26.3491 11.903V11.9049ZM32.7773 21.434C31.8579 20.753 31.0963 19.9498 30.4925 19.0241C29.8888 18.1004 29.433 17.0287 29.1291 15.8089C28.8253 14.5892 28.6714 13.253 28.6714 11.7964C28.6714 9.64701 28.9989 7.81739 29.6559 6.30356C30.311 4.78973 31.3528 3.49694 32.7773 2.42128C31.5481 3.0726 30.4984 3.87787 29.6244 4.83906C28.7523 5.80026 28.0854 6.87594 27.6257 8.07003C27.166 9.26215 26.9371 10.5372 26.9371 11.8891C26.9371 13.2411 27.166 14.5043 27.6257 15.7083C28.0854 16.9122 28.7503 17.9997 29.6244 18.9708C30.4965 19.9419 31.5481 20.7629 32.7773 21.434ZM30.2518 11.7964C30.2518 13.3142 30.4215 14.7234 30.7628 16.0181C31.1042 17.3149 31.5915 18.4201 32.2268 19.334C32.8622 20.2478 33.6257 20.9484 34.5195 21.434C35.4133 21.9195 36.4018 22.1623 37.485 22.1623C39.2509 22.1623 40.7938 21.4596 42.1158 20.0544C42.9208 19.1859 43.5423 18.0491 43.9823 16.6379C44.4203 15.2286 44.6413 13.6082 44.6413 11.7806C44.6413 10.1898 44.4735 8.7549 44.1381 7.47199C43.8027 6.19106 43.3213 5.10157 42.6978 4.20354C42.0723 3.3055 41.3186 2.61273 40.4367 2.1272C39.5547 1.64166 38.5603 1.3989 37.4554 1.3989C36.3505 1.3989 35.3719 1.64562 34.4899 2.1351C33.608 2.62655 32.8503 3.32721 32.2209 4.24301C31.5915 5.15684 31.1061 6.26211 30.7648 7.55883C30.4235 8.85556 30.2538 10.2687 30.2538 11.7964H30.2518ZM41.2812 21.4498C45.0615 19.2708 46.9497 16.0892 46.9497 11.9049C46.9497 10.5628 46.7406 9.27793 46.3223 8.05424C45.904 6.83054 45.3101 5.74105 44.5406 4.78578C43.7711 3.83051 42.8695 3.06866 41.8376 2.50023C44.0987 4.4838 45.2292 7.57265 45.2292 11.7668C45.2292 12.9964 45.1187 14.1707 44.8958 15.2918C44.6728 16.4129 44.367 17.3918 43.9744 18.2287C43.779 18.653 43.5659 19.03 43.339 19.3596C43.1121 19.6912 42.8339 20.0228 42.5025 20.3583C42.171 20.6938 41.7646 21.057 41.2792 21.4498H41.2812Z" fill="black"/>
<path d="M63.06 11.8758V17.7338C63.06 18.6318 63.1192 19.2989 63.2376 19.7331C63.356 20.1674 63.5809 20.5503 63.9124 20.8799C64.5102 21.4483 65.3784 21.8154 66.5148 21.9792V22.4588H56.0281V21.9792C57.2987 21.7937 58.2182 21.3693 58.7844 20.7082C59.0429 20.42 59.2205 20.0647 59.3191 19.6463C59.4178 19.2279 59.4671 18.5904 59.4671 17.7338V12.5429L54.7436 5.69418L54.5739 5.46129C53.6762 4.11917 52.9245 3.18955 52.3207 2.67244C51.717 2.15533 51.058 1.86125 50.3457 1.7902V1.31059H60.1517V1.7902L59.8262 1.80598C59.0212 1.84743 58.4687 1.96783 58.1688 2.16915C57.8689 2.37047 57.719 2.70995 57.719 3.18364C57.719 3.65732 57.936 4.19615 58.3701 4.82576L62.8312 11.2087L66.4241 6.79156C67.2094 5.81063 67.602 4.92246 67.602 4.12706C67.602 3.40468 67.3356 2.84416 66.8049 2.44547C66.2722 2.04876 65.5106 1.8277 64.5201 1.78625V1.30664H72.8227V1.78625C72.2959 1.92046 71.8026 2.12375 71.3429 2.39809C70.8832 2.67244 70.4333 3.01587 69.9953 3.42837C69.5553 3.84285 69.068 4.38364 68.5313 5.0547L67.5546 6.2784L67.3218 6.55669L63.062 11.8719L63.06 11.8758ZM58.6147 21.6693H63.137L62.5332 21.2193C62.182 20.9608 61.9571 20.7555 61.8584 20.5996C61.7598 20.4457 61.7105 20.2127 61.7105 19.9029C61.7105 19.7371 61.7085 19.6266 61.7026 19.5693C61.6967 19.5121 61.6947 19.4529 61.6947 19.3917V11.8758L57.1093 5.33694C56.5095 4.45864 56.2116 3.75206 56.2116 3.21521C56.2116 2.92705 56.2885 2.67046 56.4444 2.44744C56.6003 2.22441 56.841 2.0152 57.1724 1.8198H52.0445C52.5101 2.09809 52.9462 2.46914 53.3526 2.92704C53.761 3.38692 54.351 4.17443 55.1264 5.28957L55.375 5.64681L60.0531 12.4324V19.3897C60.0531 19.5555 60.0472 19.7252 60.0373 19.9009C60.0373 20.2206 59.99 20.4555 59.8972 20.6055C59.8045 20.7555 59.5776 20.9588 59.2165 21.2174L58.6128 21.6674L58.6147 21.6693ZM68.1248 4.08364C68.8588 3.19548 69.6382 2.44547 70.4629 1.83559H66.6687C67.1955 2.08428 67.5704 2.37836 67.7914 2.71981C68.0124 3.06126 68.1248 3.51522 68.1248 4.08364Z" fill="black"/>
<path d="M87.7802 14.6334H79.8031L78.935 16.6169C78.5226 17.588 78.3155 18.3893 78.3155 19.0189C78.3155 19.5558 78.4358 20.0176 78.6785 20.4065C78.9212 20.7933 79.2823 21.113 79.7637 21.3677C80.2431 21.6203 80.8765 21.8255 81.6618 21.9795V22.4591H73.6216V21.9953C74.5923 21.6637 75.4269 21.0874 76.1234 20.2604C76.8199 19.4334 77.5558 18.1485 78.3312 16.4018L85.1777 0.90625H85.5802L93.0305 17.6571C93.0502 17.6669 93.0699 17.6966 93.0837 17.742C93.0995 17.7874 93.1193 17.8367 93.1449 17.888C93.1706 17.9393 93.1982 17.9966 93.2297 18.0577L93.9105 19.467C94.2814 20.2209 94.7056 20.7894 95.1811 21.1703C95.6566 21.5532 96.2505 21.8216 96.9628 21.9755V22.4552H87.0798V21.9755C87.9163 21.9144 88.5142 21.8157 88.8772 21.6815C89.621 21.4032 89.992 20.9176 89.992 20.2249C89.992 19.8834 89.8262 19.3268 89.4967 18.5512L87.7782 14.6314L87.7802 14.6334ZM78.6568 21.6676C78.3056 21.2433 78.057 20.8644 77.913 20.5288C77.7689 20.1933 77.6959 19.8282 77.6959 19.4354C77.6959 19.2597 77.7018 19.1196 77.7117 19.017C77.3921 19.6367 77.0764 20.1361 76.7666 20.5111C76.4569 20.888 76.0386 21.2729 75.5118 21.6657H78.6568V21.6676ZM87.4862 13.982L83.7532 5.56814L80.0813 13.982H87.4862ZM84.0787 4.903L90.0433 18.338L90.1991 18.6795C90.5188 19.3722 90.6786 19.8775 90.6786 20.1972C90.6786 20.6413 90.4261 21.1328 89.919 21.6696H94.0091C93.5435 21.2354 93.141 20.738 92.8016 20.1755C92.4603 19.613 92.0637 18.8295 91.6079 17.8268L84.9627 2.87404L84.0807 4.90498L84.0787 4.903Z" fill="black"/>
<path d="M108.553 1.30859V1.7882C107.314 1.97373 106.42 2.39808 105.873 3.05927C105.625 3.35927 105.453 3.73032 105.354 4.1744C105.256 4.61849 105.206 5.23824 105.206 6.03364V17.8561C105.206 18.6298 105.25 19.2397 105.339 19.6838C105.425 20.1279 105.583 20.495 105.81 20.7831C106.276 21.3713 107.158 21.6654 108.458 21.6654H108.784C109.476 21.6654 110.151 21.5588 110.812 21.3476C111.473 21.1364 112.146 20.795 112.834 20.3252C113.521 19.8555 114.217 19.2634 114.926 18.5509C115.632 17.8384 116.358 16.9956 117.102 16.0245H117.581L115.723 22.4549H98.5908V21.9752C99.7056 21.7897 100.517 21.3614 101.024 20.6904C101.416 20.195 101.612 19.2081 101.612 17.7298V6.03167C101.612 5.09218 101.56 4.41126 101.456 3.98691C101.353 3.56257 101.162 3.20137 100.884 2.90334C100.367 2.32504 99.603 1.95202 98.5908 1.7882V1.30859H108.551H108.553ZM100.761 21.6693H105.283L104.68 21.2193C104.328 20.9608 104.104 20.7555 104.005 20.5996C103.906 20.4456 103.857 20.2127 103.857 19.9029C103.857 19.7371 103.855 19.6265 103.849 19.5693C103.843 19.5121 103.841 19.4529 103.841 19.3917V4.37573C103.841 4.31454 103.843 4.25138 103.849 4.1902C103.855 4.12901 103.857 4.02045 103.857 3.86453C103.857 3.55466 103.91 3.31388 104.019 3.14414C104.127 2.9744 104.346 2.77505 104.678 2.54807L105.56 1.89675H100.495L101.363 2.54807C101.724 2.80663 101.951 3.00795 102.044 3.15203C102.136 3.29611 102.184 3.53492 102.184 3.86453C102.194 4.04019 102.2 4.20994 102.2 4.37573V19.3917C102.2 19.5575 102.194 19.7272 102.184 19.9029C102.184 20.2226 102.136 20.4575 102.044 20.6075C101.951 20.7575 101.724 20.9608 101.363 21.2193L100.759 21.6693H100.761ZM114.624 21.6693L115.46 18.7877C114.448 19.9956 113.245 20.9568 111.852 21.6693H114.624Z" fill="black"/>
<path d="M7.37442 11.3636V17.7327C7.37442 18.6209 7.42769 19.2821 7.53621 19.7163C7.64473 20.1505 7.85387 20.5373 8.16364 20.8788C8.71018 21.4472 9.52702 21.8143 10.6102 21.9782V22.4578H0.758789V21.9782C1.87356 21.7926 2.68448 21.3643 3.19156 20.6933C3.58419 20.1979 3.77953 19.211 3.77953 17.7327V6.03456C3.77953 5.09508 3.72823 4.41416 3.62365 3.98981C3.52106 3.56546 3.32967 3.20428 3.05147 2.90625C2.55624 2.35953 1.79069 1.9865 0.758789 1.7911V1.31149C0.902822 1.32136 1.03304 1.32728 1.14551 1.32728L2.50888 1.40426C3.05542 1.43584 3.69074 1.45163 4.41485 1.45163C5.56119 1.45163 6.59902 1.40425 7.52832 1.31149L9.6967 1.12596C10.3774 1.06478 11.0502 1.0332 11.7112 1.0332C12.9305 1.0332 14.0197 1.15755 14.9805 1.40426C15.9414 1.65295 16.7523 2.00821 17.4133 2.474C18.0743 2.93783 18.5853 3.5102 18.9464 4.1852C19.3074 4.86218 19.4889 5.61811 19.4889 6.45496C19.4889 7.8484 19.0115 8.93592 18.0565 9.7175C17.1016 10.4971 15.6889 10.955 13.8204 11.0892C14.9766 11.5432 15.9552 12.1669 16.7563 12.9563C17.5573 13.7458 18.5083 15.0347 19.6132 16.8228C20.8622 18.8261 21.8487 20.2216 22.5708 21.0071C23.293 21.7926 24.094 22.3492 24.972 22.6808V23.115C23.8454 23.0933 22.8885 22.9907 22.0993 22.8051C21.3101 22.6196 20.5209 22.288 19.7376 21.8143C18.7569 21.2045 17.8316 20.3834 16.9654 19.3512C16.0992 18.3189 15.3396 17.1347 14.6885 15.8024L13.8677 14.0833C13.4751 13.2781 13.1298 12.6919 12.8299 12.3248C12.53 11.9577 12.1748 11.707 11.7605 11.5728C11.3481 11.4386 10.7838 11.3715 10.0716 11.3715H7.37639L7.37442 11.3636ZM2.92914 21.6683H7.45137L6.84762 21.2183C6.49641 20.9597 6.27148 20.7545 6.17283 20.5985C6.07418 20.4446 6.02485 20.2117 6.02485 19.9018C6.02485 19.736 6.02288 19.6255 6.01696 19.5683C6.01105 19.511 6.00907 19.4518 6.00907 19.3906V4.37468C6.00907 4.3135 6.01105 4.25034 6.01696 4.18915C6.02288 4.12797 6.02485 4.01941 6.02485 3.86349C6.02485 3.57533 6.06826 3.35231 6.15705 3.19639C6.24386 3.04244 6.4392 2.85098 6.73713 2.62401L6.84564 2.54703L7.71379 1.87992L7.15541 1.9115C6.21624 1.97269 5.36783 2.00426 4.61412 2.00426C4.14848 2.00426 3.51513 1.98847 2.70816 1.9569L3.52895 2.54506C3.87028 2.77203 4.09127 2.97138 4.19584 3.14112C4.29844 3.31086 4.35171 3.55165 4.35171 3.86152C4.36158 4.03718 4.36749 4.20692 4.36749 4.37271V19.3887C4.36749 19.5544 4.36158 19.7242 4.35171 19.8998C4.35171 20.2196 4.30436 20.4544 4.21163 20.6045C4.11889 20.7545 3.89199 20.9578 3.53092 21.2163L2.92717 21.6663L2.92914 21.6683ZM7.37442 10.7438H10.1466C11.7467 10.7438 12.899 10.5642 13.6014 10.2011C14.2308 9.88132 14.724 9.38197 15.0812 8.70697C15.4383 8.02999 15.6158 7.25235 15.6158 6.37405C15.6158 5.49575 15.4067 4.64903 14.9884 3.92469C14.5701 3.20231 13.9861 2.64177 13.2383 2.24308C12.4886 1.84637 11.6342 1.64702 10.6753 1.64702C9.25079 1.64702 8.28991 2.09111 7.79468 2.97927C7.51648 3.48454 7.37639 4.27995 7.37639 5.36549V10.7419L7.37442 10.7438ZM23.1904 22.4736C22.6439 22.1736 22.1999 21.9012 21.8586 21.6525C21.5172 21.4038 21.1207 21.0584 20.6649 20.6143C20.1282 20.036 19.706 19.5347 19.4021 19.1123C19.0983 18.688 18.5932 17.8985 17.8927 16.7419C17.2318 15.6366 16.6359 14.7426 16.1032 14.0616C15.5705 13.3807 15.0377 12.832 14.4991 12.4195C13.9624 12.007 13.3685 11.6656 12.7174 11.3971C13.1298 11.8215 13.4711 12.2399 13.7395 12.6524C13.8835 12.8794 14.142 13.359 14.5149 14.0932C14.6293 14.3103 14.7398 14.5215 14.8483 14.7287C14.9568 14.936 15.0634 15.1531 15.166 15.3801C16.2709 17.5393 17.4587 19.1794 18.7293 20.3005C20 21.4216 21.4857 22.1479 23.1904 22.4775V22.4736ZM13.4159 10.805C14.1084 10.6511 14.7398 10.428 15.314 10.1379C15.8862 9.84974 16.3597 9.51816 16.7306 9.1471C17.1016 8.77604 17.3896 8.3517 17.5909 7.87603C17.7921 7.40037 17.8927 6.90497 17.8927 6.38786C17.8927 5.26088 17.4902 4.27995 16.6852 3.4431C15.8802 2.60625 14.8168 2.0694 13.4948 1.83255C14.0828 2.15229 14.58 2.53519 14.9825 2.97927C15.385 3.42336 15.6888 3.92666 15.896 4.48916C16.1032 5.05167 16.2058 5.65956 16.2058 6.30891C16.2058 7.4359 15.9828 8.35762 15.5389 9.07407C15.095 9.7925 14.3866 10.3668 13.4159 10.8011V10.805Z" fill="url(#paint0_linear_43_62)"/>
<path d="M26.3491 11.9049C26.3491 10.4069 26.6372 8.97596 27.2173 7.61213C27.7954 6.2483 28.5984 5.05223 29.6264 4.02393C30.6543 2.99563 31.8421 2.2022 33.1897 1.63772C34.5373 1.07521 35.9598 0.792969 37.4574 0.792969C39.46 0.792969 41.3108 1.29034 43.0096 2.28706C44.7083 3.28379 46.0559 4.63578 47.0523 6.33909C48.0487 8.04437 48.5479 9.89767 48.5479 11.901C48.5479 13.3892 48.2657 14.8063 47.7034 16.1543C47.1411 17.5024 46.342 18.6925 45.3101 19.7267C44.2782 20.7609 43.0944 21.5623 41.7626 22.1366C40.4308 22.709 39.0102 22.9971 37.5028 22.9971C35.4685 22.9971 33.5961 22.5017 31.8875 21.509C30.1788 20.5182 28.8273 19.1721 27.8368 17.4727C26.8463 15.7734 26.3491 13.9161 26.3491 11.903V11.9049ZM32.7773 21.434C31.8579 20.753 31.0963 19.9498 30.4925 19.0241C29.8888 18.1004 29.433 17.0287 29.1291 15.8089C28.8253 14.5892 28.6714 13.253 28.6714 11.7964C28.6714 9.64701 28.9989 7.81739 29.6559 6.30356C30.311 4.78973 31.3528 3.49694 32.7773 2.42128C31.5481 3.0726 30.4984 3.87787 29.6244 4.83906C28.7523 5.80026 28.0854 6.87594 27.6257 8.07003C27.166 9.26215 26.9371 10.5372 26.9371 11.8891C26.9371 13.2411 27.166 14.5043 27.6257 15.7083C28.0854 16.9122 28.7503 17.9997 29.6244 18.9708C30.4965 19.9419 31.5481 20.7629 32.7773 21.434ZM30.2518 11.7964C30.2518 13.3142 30.4215 14.7234 30.7628 16.0181C31.1042 17.3149 31.5915 18.4201 32.2268 19.334C32.8622 20.2478 33.6257 20.9484 34.5195 21.434C35.4133 21.9195 36.4018 22.1623 37.485 22.1623C39.2509 22.1623 40.7938 21.4596 42.1158 20.0544C42.9208 19.1859 43.5423 18.0491 43.9823 16.6379C44.4203 15.2286 44.6413 13.6082 44.6413 11.7806C44.6413 10.1898 44.4735 8.7549 44.1381 7.47199C43.8027 6.19106 43.3213 5.10157 42.6978 4.20354C42.0723 3.3055 41.3186 2.61273 40.4367 2.1272C39.5547 1.64166 38.5603 1.3989 37.4554 1.3989C36.3505 1.3989 35.3719 1.64562 34.4899 2.1351C33.608 2.62655 32.8503 3.32721 32.2209 4.24301C31.5915 5.15684 31.1061 6.26211 30.7648 7.55883C30.4235 8.85556 30.2538 10.2687 30.2538 11.7964H30.2518ZM41.2812 21.4498C45.0615 19.2708 46.9497 16.0892 46.9497 11.9049C46.9497 10.5628 46.7406 9.27793 46.3223 8.05424C45.904 6.83054 45.3101 5.74105 44.5406 4.78578C43.7711 3.83051 42.8695 3.06866 41.8376 2.50023C44.0987 4.4838 45.2292 7.57265 45.2292 11.7668C45.2292 12.9964 45.1187 14.1707 44.8958 15.2918C44.6728 16.4129 44.367 17.3918 43.9744 18.2287C43.779 18.653 43.5659 19.03 43.339 19.3596C43.1121 19.6912 42.8339 20.0228 42.5025 20.3583C42.171 20.6938 41.7646 21.057 41.2792 21.4498H41.2812Z" fill="url(#paint1_linear_43_62)"/>
<path d="M63.06 11.8758V17.7338C63.06 18.6318 63.1192 19.2989 63.2376 19.7331C63.356 20.1674 63.5809 20.5503 63.9124 20.8799C64.5102 21.4483 65.3784 21.8154 66.5148 21.9792V22.4588H56.0281V21.9792C57.2987 21.7937 58.2182 21.3693 58.7844 20.7082C59.0429 20.42 59.2205 20.0647 59.3191 19.6463C59.4178 19.2279 59.4671 18.5904 59.4671 17.7338V12.5429L54.7436 5.69418L54.5739 5.46129C53.6762 4.11917 52.9245 3.18955 52.3207 2.67244C51.717 2.15533 51.058 1.86125 50.3457 1.7902V1.31059H60.1517V1.7902L59.8262 1.80598C59.0212 1.84743 58.4687 1.96783 58.1688 2.16915C57.8689 2.37047 57.719 2.70995 57.719 3.18364C57.719 3.65732 57.936 4.19615 58.3701 4.82576L62.8312 11.2087L66.4241 6.79156C67.2094 5.81063 67.602 4.92246 67.602 4.12706C67.602 3.40468 67.3356 2.84416 66.8049 2.44547C66.2722 2.04876 65.5106 1.8277 64.5201 1.78625V1.30664H72.8227V1.78625C72.2959 1.92046 71.8026 2.12375 71.3429 2.39809C70.8832 2.67244 70.4333 3.01587 69.9953 3.42837C69.5553 3.84285 69.068 4.38364 68.5313 5.0547L67.5546 6.2784L67.3218 6.55669L63.062 11.8719L63.06 11.8758ZM58.6147 21.6693H63.137L62.5332 21.2193C62.182 20.9608 61.9571 20.7555 61.8584 20.5996C61.7598 20.4457 61.7105 20.2127 61.7105 19.9029C61.7105 19.7371 61.7085 19.6266 61.7026 19.5693C61.6967 19.5121 61.6947 19.4529 61.6947 19.3917V11.8758L57.1093 5.33694C56.5095 4.45864 56.2116 3.75206 56.2116 3.21521C56.2116 2.92705 56.2885 2.67046 56.4444 2.44744C56.6003 2.22441 56.841 2.0152 57.1724 1.8198H52.0445C52.5101 2.09809 52.9462 2.46914 53.3526 2.92704C53.761 3.38692 54.351 4.17443 55.1264 5.28957L55.375 5.64681L60.0531 12.4324V19.3897C60.0531 19.5555 60.0472 19.7252 60.0373 19.9009C60.0373 20.2206 59.99 20.4555 59.8972 20.6055C59.8045 20.7555 59.5776 20.9588 59.2165 21.2174L58.6128 21.6674L58.6147 21.6693ZM68.1248 4.08364C68.8588 3.19548 69.6382 2.44547 70.4629 1.83559H66.6687C67.1955 2.08428 67.5704 2.37836 67.7914 2.71981C68.0124 3.06126 68.1248 3.51522 68.1248 4.08364Z" fill="url(#paint2_linear_43_62)"/>
<path d="M87.7802 14.6334H79.8031L78.935 16.6169C78.5226 17.588 78.3155 18.3893 78.3155 19.0189C78.3155 19.5558 78.4358 20.0176 78.6785 20.4065C78.9212 20.7933 79.2823 21.113 79.7637 21.3677C80.2431 21.6203 80.8765 21.8255 81.6618 21.9795V22.4591H73.6216V21.9953C74.5923 21.6637 75.4269 21.0874 76.1234 20.2604C76.8199 19.4334 77.5558 18.1485 78.3312 16.4018L85.1777 0.90625H85.5802L93.0305 17.6571C93.0502 17.6669 93.0699 17.6966 93.0837 17.742C93.0995 17.7874 93.1193 17.8367 93.1449 17.888C93.1706 17.9393 93.1982 17.9966 93.2297 18.0577L93.9105 19.467C94.2814 20.2209 94.7056 20.7894 95.1811 21.1703C95.6566 21.5532 96.2505 21.8216 96.9628 21.9755V22.4552H87.0798V21.9755C87.9163 21.9144 88.5142 21.8157 88.8772 21.6815C89.621 21.4032 89.992 20.9176 89.992 20.2249C89.992 19.8834 89.8262 19.3268 89.4967 18.5512L87.7782 14.6314L87.7802 14.6334ZM78.6568 21.6676C78.3056 21.2433 78.057 20.8644 77.913 20.5288C77.7689 20.1933 77.6959 19.8282 77.6959 19.4354C77.6959 19.2597 77.7018 19.1196 77.7117 19.017C77.3921 19.6367 77.0764 20.1361 76.7666 20.5111C76.4569 20.888 76.0386 21.2729 75.5118 21.6657H78.6568V21.6676ZM87.4862 13.982L83.7532 5.56814L80.0813 13.982H87.4862ZM84.0787 4.903L90.0433 18.338L90.1991 18.6795C90.5188 19.3722 90.6786 19.8775 90.6786 20.1972C90.6786 20.6413 90.4261 21.1328 89.919 21.6696H94.0091C93.5435 21.2354 93.141 20.738 92.8016 20.1755C92.4603 19.613 92.0637 18.8295 91.6079 17.8268L84.9627 2.87404L84.0807 4.90498L84.0787 4.903Z" fill="url(#paint3_linear_43_62)"/>
<path d="M108.553 1.30859V1.7882C107.314 1.97373 106.42 2.39808 105.873 3.05927C105.625 3.35927 105.453 3.73032 105.354 4.1744C105.256 4.61849 105.206 5.23824 105.206 6.03364V17.8561C105.206 18.6298 105.25 19.2397 105.339 19.6838C105.425 20.1279 105.583 20.495 105.81 20.7831C106.276 21.3713 107.158 21.6654 108.458 21.6654H108.784C109.476 21.6654 110.151 21.5588 110.812 21.3476C111.473 21.1364 112.146 20.795 112.834 20.3252C113.521 19.8555 114.217 19.2634 114.926 18.5509C115.632 17.8384 116.358 16.9956 117.102 16.0245H117.581L115.723 22.4549H98.5908V21.9752C99.7056 21.7897 100.517 21.3614 101.024 20.6904C101.416 20.195 101.612 19.2081 101.612 17.7298V6.03167C101.612 5.09218 101.56 4.41126 101.456 3.98691C101.353 3.56257 101.162 3.20137 100.884 2.90334C100.367 2.32504 99.603 1.95202 98.5908 1.7882V1.30859H108.551H108.553ZM100.761 21.6693H105.283L104.68 21.2193C104.328 20.9608 104.104 20.7555 104.005 20.5996C103.906 20.4456 103.857 20.2127 103.857 19.9029C103.857 19.7371 103.855 19.6265 103.849 19.5693C103.843 19.5121 103.841 19.4529 103.841 19.3917V4.37573C103.841 4.31454 103.843 4.25138 103.849 4.1902C103.855 4.12901 103.857 4.02045 103.857 3.86453C103.857 3.55466 103.91 3.31388 104.019 3.14414C104.127 2.9744 104.346 2.77505 104.678 2.54807L105.56 1.89675H100.495L101.363 2.54807C101.724 2.80663 101.951 3.00795 102.044 3.15203C102.136 3.29611 102.184 3.53492 102.184 3.86453C102.194 4.04019 102.2 4.20994 102.2 4.37573V19.3917C102.2 19.5575 102.194 19.7272 102.184 19.9029C102.184 20.2226 102.136 20.4575 102.044 20.6075C101.951 20.7575 101.724 20.9608 101.363 21.2193L100.759 21.6693H100.761ZM114.624 21.6693L115.46 18.7877C114.448 19.9956 113.245 20.9568 111.852 21.6693H114.624Z" fill="url(#paint4_linear_43_62)"/>
<path fill-rule="evenodd" clip-rule="evenodd" d="M10.6025 36.6211H3.16016V37.6211H10.6025V36.6211ZM113.211 36.6211H105.767V37.6211H113.211V36.6211Z" fill="url(#paint5_linear_43_62)"/>
<path d="M26.0591 45.4114V45.0561C26.87 44.9179 27.4619 44.6021 27.8368 44.1048C28.1189 43.7298 28.261 42.9995 28.261 41.914V33.2534C28.261 32.604 28.2215 32.1126 28.1466 31.779C28.0696 31.4454 27.9295 31.1652 27.7224 30.9362C27.3554 30.5079 26.8009 30.2336 26.0591 30.1112V29.756L26.2426 29.7678L27.6178 29.8586C28.1071 29.8902 28.5885 29.904 29.0621 29.904C29.4587 29.904 29.9302 29.8862 30.4728 29.8527C31.0154 29.8191 31.4278 29.7856 31.7119 29.756L32.8701 29.6296C33.2824 29.5842 33.7106 29.5605 34.1545 29.5605C34.9418 29.5605 35.654 29.6513 36.2933 29.8349C36.9306 30.0184 37.4771 30.281 37.927 30.6204C38.3788 30.9619 38.7261 31.3704 38.9707 31.8481C39.2154 32.3257 39.3377 32.8566 39.3377 33.4369C39.3377 34.3389 39.0536 35.0968 38.4834 35.7086C37.9132 36.3205 37.0865 36.7646 36.0013 37.0389C36.903 37.1297 37.6981 37.3725 38.3867 37.7613C39.0753 38.1501 39.6041 38.6613 39.975 39.2929C40.3459 39.9245 40.5314 40.633 40.5314 41.4205C40.5314 42.062 40.4091 42.6383 40.1644 43.1475C39.9198 43.6567 39.5567 44.0989 39.0753 44.4778C38.5939 44.8568 38.0118 45.141 37.3331 45.3324C36.6524 45.5239 35.9066 45.6186 35.0976 45.6186C34.6774 45.6186 34.0697 45.5851 33.2745 45.516C32.1124 45.4252 31.3173 45.366 30.8891 45.3443C30.1926 45.3068 29.5593 45.287 28.9851 45.287C28.5333 45.287 28.0302 45.3028 27.4718 45.3324L26.2899 45.4015L26.0611 45.4133L26.0591 45.4114ZM27.677 44.8035C28.2807 44.7265 28.7858 44.689 29.1903 44.689C29.5573 44.689 30.0348 44.7206 30.6247 44.7798L30.899 44.8035L30.4984 44.4936C30.238 44.3022 30.0723 44.1502 29.9993 44.0357C29.9263 43.9212 29.8907 43.7495 29.8907 43.5186V43.1396C29.8907 43.0706 29.8888 43.0252 29.8848 43.0015C29.8809 42.9778 29.8789 42.96 29.8789 42.9442V32.2172C29.8789 32.1935 29.8789 32.1718 29.8848 32.1481C29.8888 32.1244 29.8907 32.0829 29.8907 32.0218V31.6428C29.8907 31.4829 29.9046 31.3566 29.9302 31.2639C29.9559 31.1731 30.0091 31.0862 30.0841 31.0053C30.1611 30.9244 30.2972 30.8119 30.4965 30.6678L31.1042 30.2079L30.6918 30.2415C30.1038 30.2948 29.5869 30.3224 29.143 30.3224C28.6379 30.3224 28.0795 30.281 27.4678 30.1961L28.0755 30.6658C28.3439 30.8652 28.5116 31.0191 28.5806 31.1296C28.6497 31.2402 28.6832 31.4099 28.6832 31.6408V43.5146C28.6832 43.7436 28.6497 43.9153 28.5806 44.0258C28.5116 44.1364 28.3439 44.2923 28.0755 44.4897L27.675 44.7995L27.677 44.8035ZM30.8891 36.956H32.7477C33.8487 36.956 34.6892 36.735 35.2712 36.2909C35.6678 36.0008 35.9855 35.604 36.2242 35.1027C36.461 34.6014 36.5794 34.0764 36.5794 33.5257C36.5794 32.8606 36.4373 32.2645 36.1552 31.7356C35.873 31.2086 35.4784 30.7941 34.9733 30.4961C34.4682 30.1981 33.902 30.0481 33.2765 30.0481C32.7793 30.0481 32.3511 30.1389 31.992 30.3244C31.6329 30.5079 31.3528 30.7724 31.1555 31.1158C30.9799 31.4593 30.8911 32.006 30.8911 32.756V36.954L30.8891 36.956ZM30.8891 37.4041V42.2337C30.8891 43.2285 31.116 43.9291 31.5718 44.3396C32.0276 44.7482 32.801 44.9535 33.8941 44.9535C35.141 44.9535 36.0881 44.5982 36.7392 43.8857C37.3804 43.1831 37.702 42.3067 37.702 41.2587C37.702 40.8146 37.6468 40.4041 37.5363 40.0251C37.4258 39.6462 37.2601 39.3008 37.043 38.987C36.826 38.6731 36.5636 38.4028 36.2578 38.1777C35.952 37.9527 35.6047 37.783 35.214 37.6666C34.6872 37.4909 33.898 37.4021 32.8523 37.4021H30.8911L30.8891 37.4041ZM35.293 36.7389C36.2341 36.4626 36.9582 36.0343 37.4653 35.454C37.9743 34.8738 38.2288 34.177 38.2288 33.3659C38.2288 32.5547 37.9723 31.8619 37.4613 31.3073C36.9483 30.7527 36.1927 30.354 35.1904 30.1092C36.4058 30.9658 37.0135 32.0869 37.0135 33.4705C37.0135 34.9389 36.4393 36.0284 35.293 36.7409V36.7389ZM35.8198 44.9989C36.538 44.8844 37.1693 44.6653 37.7119 44.3396C38.2545 44.014 38.6728 43.6035 38.9687 43.1061C39.2627 42.6087 39.4107 42.058 39.4107 41.4541C39.4107 40.5896 39.1246 39.8218 38.5505 39.1488C37.9763 38.4758 37.1752 37.9666 36.1414 37.6231C37.4712 38.4876 38.1361 39.7034 38.1361 41.2705C38.1361 43.0607 37.3647 44.3041 35.8198 44.9989Z" fill="url(#paint6_linear_43_62)"/>
<path d="M63.6557 29.752L64.0917 34.0191H63.7248C63.3282 32.7046 62.7363 31.7336 61.953 31.1118C61.1697 30.4881 60.1516 30.1763 58.8967 30.1763H58.2555C57.2532 30.1763 56.5448 30.3697 56.1285 30.7566C55.7122 31.1434 55.5031 31.7868 55.5031 32.6888V36.5889H57.0282C58.1825 36.5889 59.023 36.4073 59.5518 36.0441C60.0805 35.681 60.4416 35.0257 60.6409 34.0763H60.9842V39.881H60.6409C60.487 39.1172 60.2838 38.533 60.0273 38.1323C59.7708 37.7316 59.4117 37.4474 58.95 37.2836C58.4883 37.1198 57.8589 37.0369 57.0637 37.0369H55.5031V42.0047C55.5031 42.7626 55.5741 43.3409 55.7161 43.7435C55.8582 44.1442 56.1068 44.4264 56.462 44.5863C56.8171 44.7462 57.3163 44.8271 57.9595 44.8271H59.0151C60.0549 44.8271 61.0414 44.5054 61.9747 43.8639C63.0066 43.1455 64.0207 42.1429 65.0132 40.858L65.1039 40.7317H65.5044L64.1509 45.4113H50.606V45.0561C51.4307 44.9179 52.0325 44.6021 52.4073 44.1047C52.6974 43.7376 52.8434 43.0074 52.8434 41.9139V33.2533C52.8434 32.5566 52.8039 32.0533 52.7289 31.7395C52.652 31.4257 52.5119 31.1592 52.3047 30.9362C51.922 30.5079 51.3577 30.2335 50.6079 30.1112V29.7559H63.6596L63.6557 29.752ZM52.21 44.8271H55.5583L55.1104 44.4936C54.85 44.3021 54.6842 44.1501 54.6112 44.0357C54.5382 43.9212 54.5027 43.7495 54.5027 43.5185C54.5027 43.3962 54.5027 43.3133 54.4968 43.2718C54.4929 43.2304 54.4909 43.185 54.4909 43.1396V32.0237C54.4909 31.9783 54.4909 31.9329 54.4968 31.8855C54.5008 31.8401 54.5027 31.7592 54.5027 31.6447C54.5027 31.4158 54.5422 31.2382 54.6231 31.1118C54.704 30.9855 54.8658 30.8395 55.1104 30.6697L55.7635 30.1881H52.0009L52.654 30.6697C52.9144 30.8612 53.0802 31.0131 53.1532 31.1296C53.2262 31.246 53.2617 31.4158 53.2617 31.6467C53.2696 31.777 53.2735 31.9033 53.2735 32.0257V43.1416C53.2735 43.2639 53.2696 43.3903 53.2617 43.5205C53.2617 43.7574 53.2281 43.9311 53.1591 44.0416C53.09 44.1521 52.9223 44.3041 52.654 44.4955L52.2061 44.8291L52.21 44.8271ZM60.1575 36.0974C59.9424 36.2968 59.7767 36.4329 59.6583 36.504C59.5399 36.577 59.2933 36.6856 58.9184 36.8316C59.3466 36.954 59.7589 37.2027 60.1575 37.5777V36.0974ZM62.7954 30.1783H61.144C61.5722 30.3539 61.9155 30.5454 62.1759 30.7526C62.4364 30.9599 62.7264 31.2757 63.048 31.7039L62.7954 30.1783ZM63.3341 44.8291L63.9753 42.6955C63.7011 43.0014 63.4268 43.2797 63.1545 43.5264C62.8823 43.7751 62.5764 44.01 62.2371 44.231C61.8977 44.4521 61.5505 44.6515 61.1992 44.8271H63.3321L63.3341 44.8291Z" fill="url(#paint7_linear_43_62)"/>
<path d="M90.3449 29.752L90.7 34.0191H90.333C90.1041 33.2316 89.7924 32.5507 89.3978 31.9763C89.0032 31.402 88.5454 30.9619 88.0206 30.652C87.4958 30.3421 86.9492 30.1882 86.3751 30.1882C85.9233 30.1882 85.5326 30.2829 85.1991 30.4684C84.8657 30.654 84.6191 30.9145 84.4592 31.2421C84.3053 31.5559 84.2304 32.0612 84.2304 32.7559V41.91C84.2304 42.5909 84.2758 43.0903 84.3685 43.408C84.4593 43.7258 84.6368 44.0021 84.8953 44.239C85.3609 44.6594 86.0416 44.9317 86.9374 45.0541V45.4094H78.8518V45.0541C79.8463 44.9159 80.5723 44.6021 81.0301 44.1127C81.2373 43.8916 81.3773 43.6192 81.4543 43.2975C81.5312 42.9758 81.5687 42.5139 81.5687 41.91V32.7559C81.5687 31.998 81.4661 31.4474 81.259 31.104C81.0991 30.8217 80.8584 30.5967 80.5368 30.4329C80.2152 30.2691 79.8443 30.1862 79.424 30.1862C78.5598 30.1862 77.7706 30.5296 77.0564 31.2125C76.3421 31.8974 75.8074 32.8329 75.4562 34.0171H75.1011L75.4562 29.75H90.3429L90.3449 29.752ZM75.837 30.1763L75.6772 31.8619C76.0067 31.3803 76.2849 31.029 76.5138 30.8059C76.7427 30.5849 77.0406 30.3737 77.4076 30.1744H75.837V30.1763ZM80.9295 44.8271H84.2896L83.8417 44.4936C83.5674 44.2863 83.3938 44.1304 83.3247 44.0238C83.2557 43.9173 83.2222 43.7495 83.2222 43.5186V43.1396C83.2222 43.0784 83.2221 43.037 83.2162 43.0133C83.2103 42.9896 83.2103 42.9679 83.2103 42.9442V32.2171C83.2103 32.1934 83.2103 32.1717 83.2162 32.1481C83.2221 32.1244 83.2222 32.0829 83.2222 32.0217V31.6428C83.2222 31.4138 83.2636 31.2362 83.3484 31.1099C83.4333 30.9836 83.597 30.8375 83.8417 30.6678L84.4948 30.1862H80.963L81.5016 30.6678C81.693 30.8355 81.8233 30.9915 81.8923 31.1316C81.9614 31.2737 81.9949 31.4434 81.9949 31.6428V32.0217C82.0028 32.0908 82.0067 32.1559 82.0067 32.2171V42.9442C82.0067 43.0054 82.0028 43.0705 81.9949 43.1396V43.5186C81.9949 43.7475 81.9594 43.9192 81.8864 44.0357C81.8134 44.1501 81.6476 44.3041 81.3872 44.4936L80.9275 44.8271H80.9295ZM89.4728 30.1763H87.8095C88.214 30.3441 88.5553 30.5375 88.8296 30.7566C89.1058 30.9737 89.3919 31.2895 89.6898 31.702L89.4728 30.1763Z" fill="url(#paint8_linear_43_62)"/>
<defs>
<linearGradient id="paint0_linear_43_62" x1="0.760762" y1="11.9517" x2="117.583" y2="11.9517" gradientUnits="userSpaceOnUse">
<stop stop-color="#C2B87B"/>
<stop offset="0.26" stop-color="#E8DFA1"/>
<stop offset="0.64" stop-color="#BFB679"/>
<stop offset="1" stop-color="#EFE7A7"/>
</linearGradient>
<linearGradient id="paint1_linear_43_62" x1="0.760654" y1="11.9523" x2="117.583" y2="11.9523" gradientUnits="userSpaceOnUse">
<stop stop-color="#C2B87B"/>
<stop offset="0.26" stop-color="#E8DFA1"/>
<stop offset="0.64" stop-color="#BFB679"/>
<stop offset="1" stop-color="#EFE7A7"/>
</linearGradient>
<linearGradient id="paint2_linear_43_62" x1="0.761009" y1="11.9528" x2="117.583" y2="11.9528" gradientUnits="userSpaceOnUse">
<stop stop-color="#C2B87B"/>
<stop offset="0.26" stop-color="#E8DFA1"/>
<stop offset="0.64" stop-color="#BFB679"/>
<stop offset="1" stop-color="#EFE7A7"/>
</linearGradient>
<linearGradient id="paint3_linear_43_62" x1="0.760818" y1="11.9531" x2="117.583" y2="11.9531" gradientUnits="userSpaceOnUse">
<stop stop-color="#C2B87B"/>
<stop offset="0.26" stop-color="#E8DFA1"/>
<stop offset="0.64" stop-color="#BFB679"/>
<stop offset="1" stop-color="#EFE7A7"/>
</linearGradient>
<linearGradient id="paint4_linear_43_62" x1="0.76111" y1="11.9528" x2="117.583" y2="11.9528" gradientUnits="userSpaceOnUse">
<stop stop-color="#C2B87B"/>
<stop offset="0.26" stop-color="#E8DFA1"/>
<stop offset="0.64" stop-color="#BFB679"/>
<stop offset="1" stop-color="#EFE7A7"/>
</linearGradient>
<linearGradient id="paint5_linear_43_62" x1="nan" y1="nan" x2="nan" y2="nan" gradientUnits="userSpaceOnUse">
<stop stop-color="#C2B87B"/>
<stop offset="0.26" stop-color="#E8DFA1"/>
<stop offset="0.64" stop-color="#BFB679"/>
<stop offset="1" stop-color="#EFE7A7"/>
</linearGradient>
<linearGradient id="paint6_linear_43_62" x1="26.0591" y1="37.5876" x2="90.7001" y2="37.5876" gradientUnits="userSpaceOnUse">
<stop stop-color="#C2B87B"/>
<stop offset="0.26" stop-color="#E8DFA1"/>
<stop offset="0.64" stop-color="#BFB679"/>
<stop offset="1" stop-color="#EFE7A7"/>
</linearGradient>
<linearGradient id="paint7_linear_43_62" x1="26.0593" y1="37.5876" x2="90.7003" y2="37.5876" gradientUnits="userSpaceOnUse">
<stop stop-color="#C2B87B"/>
<stop offset="0.26" stop-color="#E8DFA1"/>
<stop offset="0.64" stop-color="#BFB679"/>
<stop offset="1" stop-color="#EFE7A7"/>
</linearGradient>
<linearGradient id="paint8_linear_43_62" x1="26.059" y1="37.5876" x2="90.7" y2="37.5876" gradientUnits="userSpaceOnUse">
<stop stop-color="#C2B87B"/>
<stop offset="0.26" stop-color="#E8DFA1"/>
<stop offset="0.64" stop-color="#BFB679"/>
<stop offset="1" stop-color="#EFE7A7"/>
</linearGradient>
</defs>
</svg>
