<svg width="136" height="120" viewBox="0 0 136 120" fill="none" xmlns="http://www.w3.org/2000/svg">
<path d="M7.66803 80.296V87.6783C7.66803 88.7077 7.72978 89.4741 7.85556 89.9774C7.98134 90.4807 8.22375 90.9291 8.58279 91.3248C9.21627 91.9837 10.1631 92.4092 11.4186 92.5991V93.155H0V92.5991C1.29211 92.384 2.23203 91.8876 2.81976 91.1098C3.27486 90.5356 3.50127 89.3918 3.50127 87.6783V74.1192C3.50127 73.0303 3.44181 72.2411 3.3206 71.7492C3.20168 71.2574 2.97985 70.8387 2.6574 70.4933C2.08338 69.8596 1.19606 69.4272 0 69.2007V68.6448C0.166945 68.6563 0.317879 68.6631 0.448234 68.6631L2.02849 68.7523C2.66197 68.789 3.39836 68.8073 4.23765 68.8073C5.56635 68.8073 6.76927 68.7523 7.84641 68.6448L10.3597 68.4298C11.1487 68.3589 11.9285 68.3223 12.6947 68.3223C14.108 68.3223 15.3704 68.4664 16.4841 68.7523C17.5978 69.0406 18.5377 69.4524 19.3039 69.9923C20.07 70.5299 20.6623 71.1933 21.0808 71.9757C21.4993 72.7604 21.7097 73.6365 21.7097 74.6065C21.7097 76.2216 21.1563 77.4821 20.0494 78.388C18.9425 79.2917 17.3051 79.8224 15.1394 79.978C16.4795 80.5041 17.6138 81.227 18.5423 82.1421C19.4708 83.0572 20.5731 84.551 21.8538 86.6237C23.3014 88.9457 24.4448 90.563 25.2819 91.4735C26.1189 92.384 27.0474 93.0292 28.065 93.4135V93.9168C26.7592 93.8916 25.65 93.7727 24.7353 93.5576C23.8205 93.3426 22.9057 92.9582 21.9978 92.4092C20.8612 91.7023 19.7887 90.7506 18.7847 89.5542C17.7808 88.3577 16.9003 86.9851 16.1456 85.4409L15.1943 83.4484C14.7392 82.515 14.339 81.8356 13.9913 81.4101C13.6437 80.9845 13.2321 80.694 12.7518 80.5385C12.2739 80.3829 11.6198 80.3051 10.7942 80.3051H7.67031L7.66803 80.296ZM2.51561 92.2399H7.75721L7.05742 91.7183C6.65035 91.4186 6.38964 91.1807 6.27529 91C6.16095 90.8216 6.10378 90.5516 6.10378 90.1924C6.10378 90.0003 6.10149 89.8722 6.09463 89.8058C6.08777 89.7395 6.08548 89.6709 6.08548 89.5999V72.1953C6.08548 72.1244 6.08777 72.0512 6.09463 71.9803C6.10149 71.9093 6.10378 71.7835 6.10378 71.6028C6.10378 71.2688 6.15409 71.0103 6.257 70.8296C6.35762 70.6511 6.58403 70.4292 6.92935 70.1661L7.05513 70.0769L8.06138 69.3037L7.41418 69.3403C6.32561 69.4112 5.34223 69.4478 4.46863 69.4478C3.92892 69.4478 3.19482 69.4295 2.25947 69.3929L3.21083 70.0746C3.60646 70.3377 3.8626 70.5688 3.98381 70.7655C4.10273 70.9622 4.16447 71.2413 4.16447 71.6005C4.17591 71.8041 4.18277 72.0008 4.18277 72.193V89.5976C4.18277 89.7898 4.17591 89.9865 4.16447 90.1902C4.16447 90.5608 4.10959 90.833 4.0021 91.0069C3.89462 91.1807 3.63162 91.4163 3.21311 91.716L2.51332 92.2376L2.51561 92.2399ZM7.66803 79.5776H10.8811C12.7358 79.5776 14.0714 79.3694 14.8855 78.9485C15.6151 78.5779 16.1868 77.9991 16.6007 77.2167C17.0147 76.4321 17.2205 75.5307 17.2205 74.5127C17.2205 73.4947 16.9781 72.5133 16.4932 71.6737C16.0084 70.8364 15.3315 70.1867 14.4647 69.7246C13.5957 69.2648 12.6055 69.0337 11.494 69.0337C9.84288 69.0337 8.72916 69.5485 8.15514 70.5779C7.83269 71.1636 7.67031 72.0855 7.67031 73.3437V79.5753L7.66803 79.5776ZM25.9999 93.1733C25.3665 92.8256 24.8519 92.5099 24.4563 92.2216C24.0606 91.9334 23.601 91.533 23.0727 91.0183C22.4506 90.348 21.9613 89.7669 21.6091 89.2774C21.2569 88.7855 20.6714 87.8705 19.8596 86.5299C19.0935 85.2488 18.4028 84.2125 17.7853 83.4232C17.1679 82.634 16.5504 81.998 15.9261 81.5199C15.304 81.0417 14.6157 80.646 13.861 80.3349C14.339 80.8267 14.7346 81.3117 15.0456 81.7898C15.2126 82.0529 15.5121 82.6088 15.9444 83.4598C16.077 83.7115 16.2051 83.9562 16.3309 84.1964C16.4566 84.4366 16.5801 84.6883 16.6991 84.9514C17.9797 87.4541 19.3565 89.3552 20.8292 90.6546C22.302 91.954 24.0241 92.7958 25.9999 93.1779V93.1733ZM14.6706 79.6485C15.4733 79.4701 16.2051 79.2116 16.8706 78.8753C17.5338 78.5413 18.0826 78.157 18.5126 77.7269C18.9425 77.2968 19.2764 76.805 19.5097 76.2536C19.7429 75.7023 19.8596 75.1281 19.8596 74.5287C19.8596 73.2225 19.393 72.0855 18.46 71.1155C17.5269 70.1455 16.2943 69.5233 14.762 69.2488C15.4435 69.6194 16.0198 70.0632 16.4864 70.5779C16.9529 71.0926 17.3051 71.676 17.5452 72.328C17.7853 72.98 17.9043 73.6846 17.9043 74.4372C17.9043 75.7435 17.6458 76.8118 17.1313 77.6423C16.6167 78.475 15.7957 79.1407 14.6706 79.644V79.6485Z" fill="black"/>
<path d="M29.6611 80.9245C29.6611 79.1882 29.995 77.5296 30.6674 75.9488C31.3374 74.3681 32.2682 72.9817 33.4597 71.7898C34.6512 70.598 36.0279 69.6783 37.5899 69.024C39.1518 68.3721 40.8007 68.0449 42.5365 68.0449C44.8577 68.0449 47.0028 68.6214 48.9719 69.7767C50.9409 70.932 52.5029 72.499 53.6577 74.4733C54.8126 76.4498 55.3912 78.598 55.3912 80.92C55.3912 82.6449 55.0642 84.2874 54.4124 85.8499C53.7607 87.4124 52.8345 88.7918 51.6384 89.9906C50.4423 91.1893 49.0702 92.1181 47.5265 92.7838C45.9829 93.4473 44.3363 93.7813 42.5891 93.7813C40.2313 93.7813 38.061 93.2071 36.0805 92.0564C34.1 90.9079 32.5335 89.3477 31.3855 87.3781C30.2374 85.4084 29.6611 83.2557 29.6611 80.9222V80.9245ZM37.1119 91.9694C36.0462 91.1802 35.1635 90.2491 34.4637 89.1762C33.7639 88.1055 33.2356 86.8633 32.8834 85.4496C32.5312 84.0358 32.3528 82.487 32.3528 80.7987C32.3528 78.3074 32.7325 76.1868 33.494 74.4321C34.2533 72.6775 35.4608 71.179 37.1119 69.9323C35.6872 70.6872 34.4705 71.6206 33.4574 72.7347C32.4466 73.8488 31.6736 75.0955 31.1408 76.4796C30.6079 77.8613 30.3426 79.3392 30.3426 80.9062C30.3426 82.4733 30.6079 83.9374 31.1408 85.3329C31.6736 86.7284 32.4443 87.9889 33.4574 89.1144C34.4682 90.2399 35.6872 91.1916 37.1119 91.9694ZM34.1847 80.7987C34.1847 82.5579 34.3813 84.1913 34.777 85.692C35.1726 87.195 35.7375 88.4762 36.4739 89.5353C37.2102 90.5945 38.0953 91.4067 39.1313 91.9694C40.1672 92.5322 41.313 92.8136 42.5685 92.8136C44.6153 92.8136 46.4036 91.9992 47.9359 90.3703C48.8689 89.3638 49.5893 88.0461 50.0993 86.4104C50.607 84.777 50.8631 82.8988 50.8631 80.7804C50.8631 78.9365 50.6687 77.2734 50.28 75.7864C49.8912 74.3017 49.3332 73.0389 48.6105 71.998C47.8856 70.9571 47.012 70.1542 45.9897 69.5914C44.9675 69.0286 43.8149 68.7472 42.5342 68.7472C41.2535 68.7472 40.1192 69.0332 39.097 69.6005C38.0747 70.1702 37.1965 70.9823 36.467 72.0438C35.7375 73.103 35.1749 74.3841 34.7793 75.8871C34.3836 77.3901 34.1869 79.0281 34.1869 80.7987H34.1847ZM46.9685 91.9877C51.3502 89.4621 53.5388 85.7744 53.5388 80.9245C53.5388 79.3689 53.2964 77.8796 52.8116 76.4613C52.3268 75.0429 51.6384 73.7801 50.7465 72.6729C49.8546 71.5656 48.8095 70.6826 47.6134 70.0238C50.2342 72.3229 51.5446 75.9031 51.5446 80.7644C51.5446 82.1896 51.4166 83.5508 51.1581 84.8502C50.8997 86.1496 50.5453 87.2843 50.0902 88.2542C49.8638 88.7461 49.6168 89.183 49.3538 89.5651C49.0908 89.9494 48.7683 90.3337 48.3841 90.7226C47.9999 91.1115 47.5288 91.5325 46.9662 91.9877H46.9685Z" fill="black"/>
<path d="M72.2115 80.8872V87.677C72.2115 88.7179 72.2801 89.4912 72.4173 89.9945C72.5545 90.4977 72.8152 90.9415 73.1994 91.3236C73.8924 91.9824 74.8986 92.408 76.2159 92.5978V93.1537H64.0609V92.5978C65.5337 92.3828 66.5994 91.8909 67.2557 91.1246C67.5553 90.7906 67.7612 90.3788 67.8755 89.8938C67.9898 89.4088 68.047 88.6699 68.047 87.677V81.6605L62.5721 73.7222L62.3755 73.4523C61.3349 71.8967 60.4636 70.8192 59.7638 70.2198C59.064 69.6204 58.3002 69.2796 57.4746 69.1972V68.6413H68.8406V69.1972L68.4632 69.2155C67.5302 69.2635 66.8898 69.4031 66.5422 69.6364C66.1946 69.8698 66.0208 70.2633 66.0208 70.8123C66.0208 71.3613 66.2724 71.9859 66.7755 72.7156L71.9462 80.114L76.1107 74.9942C77.0209 73.8572 77.476 72.8277 77.476 71.9058C77.476 71.0685 77.1672 70.4188 76.5521 69.9567C75.9346 69.4969 75.0518 69.2407 73.9038 69.1926V68.6367H83.5272V69.1926C82.9165 69.3482 82.3448 69.5838 81.812 69.9018C81.2791 70.2198 80.7577 70.6178 80.25 71.096C79.74 71.5764 79.1751 72.2032 78.5531 72.981L77.4211 74.3994L77.1512 74.7219L72.2138 80.8826L72.2115 80.8872ZM67.0591 92.2387H72.3007L71.6009 91.7171C71.1938 91.4174 70.9331 91.1795 70.8188 90.9987C70.7044 90.8203 70.6472 90.5504 70.6472 90.1912C70.6472 89.999 70.645 89.8709 70.6381 89.8046C70.6312 89.7382 70.6289 89.6696 70.6289 89.5987V80.8872L65.3142 73.3081C64.6189 72.2901 64.2736 71.4711 64.2736 70.8489C64.2736 70.5149 64.3628 70.2175 64.5435 69.959C64.7241 69.7005 65.0031 69.458 65.3873 69.2315H59.4436C59.9834 69.5541 60.4888 69.9842 60.9599 70.5149C61.4333 71.0479 62.117 71.9607 63.0158 73.2532L63.304 73.6673L68.7262 81.5323V89.5964C68.7262 89.7886 68.7194 89.9853 68.7079 90.1889C68.7079 90.5595 68.653 90.8317 68.5456 91.0056C68.4381 91.1795 68.1751 91.4151 67.7566 91.7148L67.0568 92.2364L67.0591 92.2387ZM78.082 71.8555C78.9327 70.826 79.8361 69.9567 80.792 69.2498H76.3943C77.0049 69.5381 77.4394 69.8789 77.6955 70.2747C77.9517 70.6705 78.082 71.1966 78.082 71.8555Z" fill="black"/>
<path d="M100.867 84.0866H91.621L90.6147 86.3857C90.1368 87.5112 89.8966 88.44 89.8966 89.1698C89.8966 89.792 90.0361 90.3273 90.3174 90.778C90.5987 91.2264 91.0172 91.597 91.5752 91.8921C92.1309 92.1849 92.865 92.4229 93.7752 92.6013V93.1572H84.4561V92.6196C85.5812 92.2353 86.5486 91.5673 87.3559 90.6087C88.1631 89.6502 89.0162 88.1609 89.9149 86.1363L97.8505 68.1758H98.317L106.952 87.5913C106.975 87.6027 106.998 87.637 107.014 87.6897C107.032 87.7423 107.055 87.7995 107.085 87.8589C107.115 87.9184 107.147 87.9848 107.183 88.0557L107.972 89.6891C108.402 90.563 108.894 91.2218 109.445 91.6633C109.996 92.1072 110.685 92.4183 111.51 92.5967V93.1526H100.055V92.5967C101.025 92.5258 101.718 92.4114 102.138 92.2559C103.001 91.9333 103.431 91.3705 103.431 90.5675C103.431 90.1718 103.239 89.5267 102.857 88.6276L100.865 84.0843L100.867 84.0866ZM90.2923 92.2398C89.8852 91.748 89.597 91.3088 89.4301 90.9199C89.2632 90.5309 89.1785 90.1077 89.1785 89.6525C89.1785 89.4489 89.1854 89.2865 89.1968 89.1675C88.8263 89.8858 88.4604 90.4646 88.1014 90.8993C87.7424 91.3362 87.2575 91.7823 86.6469 92.2376H90.2923V92.2398ZM100.526 83.3316L96.1994 73.5793L91.9434 83.3316H100.526ZM96.5767 72.8083L103.49 88.3805L103.671 88.7763C104.041 89.5793 104.226 90.1649 104.226 90.5355C104.226 91.0503 103.934 91.6199 103.346 92.2421H108.087C107.547 91.7388 107.081 91.1623 106.687 90.5104C106.292 89.8584 105.832 88.9502 105.304 87.788L97.6012 70.4566L96.579 72.8106L96.5767 72.8083Z" fill="black"/>
<path d="M124.941 68.6406V69.1965C123.505 69.4116 122.469 69.9034 121.836 70.6698C121.547 71.0175 121.348 71.4476 121.234 71.9623C121.12 72.4771 121.063 73.1954 121.063 74.1173V87.8205C121.063 88.7173 121.113 89.4242 121.216 89.9389C121.316 90.4536 121.499 90.8791 121.762 91.2131C122.302 91.8948 123.324 92.2357 124.831 92.2357H125.209C126.011 92.2357 126.794 92.1122 127.56 91.8674C128.326 91.6226 129.106 91.2268 129.904 90.6824C130.7 90.1379 131.507 89.4516 132.328 88.6258C133.147 87.7999 133.988 86.8231 134.85 85.6975H135.406L133.252 93.1508H113.395V92.5949C114.687 92.3798 115.627 91.8834 116.214 91.1056C116.669 90.5314 116.896 89.3876 116.896 87.6741V74.115C116.896 73.0261 116.836 72.2369 116.715 71.745C116.596 71.2532 116.374 70.8345 116.052 70.4891C115.453 69.8188 114.568 69.3864 113.395 69.1965V68.6406H124.939H124.941ZM115.91 92.2403H121.152L120.452 91.7187C120.045 91.419 119.784 91.1811 119.67 91.0004C119.555 90.8219 119.498 90.552 119.498 90.1928C119.498 90.0007 119.496 89.8725 119.489 89.8062C119.482 89.7399 119.48 89.6712 119.48 89.6003V72.1957C119.48 72.1248 119.482 72.0516 119.489 71.9806C119.496 71.9097 119.498 71.7839 119.498 71.6032C119.498 71.244 119.56 70.9649 119.686 70.7682C119.812 70.5714 120.065 70.3404 120.45 70.0773L121.472 69.3224H115.601L116.608 70.0773C117.026 70.377 117.289 70.6103 117.397 70.7773C117.504 70.9443 117.559 71.2211 117.559 71.6032C117.57 71.8068 117.577 72.0035 117.577 72.1957V89.6003C117.577 89.7925 117.57 89.9892 117.559 90.1928C117.559 90.5634 117.504 90.8356 117.397 91.0095C117.289 91.1834 117.026 91.419 116.608 91.7187L115.908 92.2403H115.91ZM131.978 92.2403L132.948 88.9003C131.774 90.3003 130.379 91.4144 128.765 92.2403H131.978Z" fill="black"/>
<path d="M7.66803 80.296V87.6783C7.66803 88.7077 7.72978 89.4741 7.85556 89.9774C7.98134 90.4807 8.22375 90.9291 8.58279 91.3248C9.21627 91.9837 10.1631 92.4092 11.4186 92.5991V93.155H0V92.5991C1.29211 92.384 2.23203 91.8876 2.81976 91.1098C3.27486 90.5356 3.50127 89.3918 3.50127 87.6783V74.1192C3.50127 73.0303 3.44181 72.2411 3.3206 71.7492C3.20168 71.2574 2.97985 70.8387 2.6574 70.4933C2.08338 69.8596 1.19606 69.4272 0 69.2007V68.6448C0.166945 68.6563 0.317879 68.6631 0.448234 68.6631L2.02849 68.7523C2.66197 68.789 3.39836 68.8073 4.23765 68.8073C5.56635 68.8073 6.76927 68.7523 7.84641 68.6448L10.3597 68.4298C11.1487 68.3589 11.9285 68.3223 12.6947 68.3223C14.108 68.3223 15.3704 68.4664 16.4841 68.7523C17.5978 69.0406 18.5377 69.4524 19.3039 69.9923C20.07 70.5299 20.6623 71.1933 21.0808 71.9757C21.4993 72.7604 21.7097 73.6365 21.7097 74.6065C21.7097 76.2216 21.1563 77.4821 20.0494 78.388C18.9425 79.2917 17.3051 79.8224 15.1394 79.978C16.4795 80.5041 17.6138 81.227 18.5423 82.1421C19.4708 83.0572 20.5731 84.551 21.8538 86.6237C23.3014 88.9457 24.4448 90.563 25.2819 91.4735C26.1189 92.384 27.0474 93.0292 28.065 93.4135V93.9168C26.7592 93.8916 25.65 93.7727 24.7353 93.5576C23.8205 93.3426 22.9057 92.9582 21.9978 92.4092C20.8612 91.7023 19.7887 90.7506 18.7847 89.5542C17.7808 88.3577 16.9003 86.9851 16.1456 85.4409L15.1943 83.4484C14.7392 82.515 14.339 81.8356 13.9913 81.4101C13.6437 80.9845 13.2321 80.694 12.7518 80.5385C12.2739 80.3829 11.6198 80.3051 10.7942 80.3051H7.67031L7.66803 80.296ZM2.51561 92.2399H7.75721L7.05742 91.7183C6.65035 91.4186 6.38964 91.1807 6.27529 91C6.16095 90.8216 6.10378 90.5516 6.10378 90.1924C6.10378 90.0003 6.10149 89.8722 6.09463 89.8058C6.08777 89.7395 6.08548 89.6709 6.08548 89.5999V72.1953C6.08548 72.1244 6.08777 72.0512 6.09463 71.9803C6.10149 71.9093 6.10378 71.7835 6.10378 71.6028C6.10378 71.2688 6.15409 71.0103 6.257 70.8296C6.35762 70.6511 6.58403 70.4292 6.92935 70.1661L7.05513 70.0769L8.06138 69.3037L7.41418 69.3403C6.32561 69.4112 5.34223 69.4478 4.46863 69.4478C3.92892 69.4478 3.19482 69.4295 2.25947 69.3929L3.21083 70.0746C3.60646 70.3377 3.8626 70.5688 3.98381 70.7655C4.10273 70.9622 4.16447 71.2413 4.16447 71.6005C4.17591 71.8041 4.18277 72.0008 4.18277 72.193V89.5976C4.18277 89.7898 4.17591 89.9865 4.16447 90.1902C4.16447 90.5608 4.10959 90.833 4.0021 91.0069C3.89462 91.1807 3.63162 91.4163 3.21311 91.716L2.51332 92.2376L2.51561 92.2399ZM7.66803 79.5776H10.8811C12.7358 79.5776 14.0714 79.3694 14.8855 78.9485C15.6151 78.5779 16.1868 77.9991 16.6007 77.2167C17.0147 76.4321 17.2205 75.5307 17.2205 74.5127C17.2205 73.4947 16.9781 72.5133 16.4932 71.6737C16.0084 70.8364 15.3315 70.1867 14.4647 69.7246C13.5957 69.2648 12.6055 69.0337 11.494 69.0337C9.84288 69.0337 8.72916 69.5485 8.15514 70.5779C7.83269 71.1636 7.67031 72.0855 7.67031 73.3437V79.5753L7.66803 79.5776ZM25.9999 93.1733C25.3665 92.8256 24.8519 92.5099 24.4563 92.2216C24.0606 91.9334 23.601 91.533 23.0727 91.0183C22.4506 90.348 21.9613 89.7669 21.6091 89.2774C21.2569 88.7855 20.6714 87.8705 19.8596 86.5299C19.0935 85.2488 18.4028 84.2125 17.7853 83.4232C17.1679 82.634 16.5504 81.998 15.9261 81.5199C15.304 81.0417 14.6157 80.646 13.861 80.3349C14.339 80.8267 14.7346 81.3117 15.0456 81.7898C15.2126 82.0529 15.5121 82.6088 15.9444 83.4598C16.077 83.7115 16.2051 83.9562 16.3309 84.1964C16.4566 84.4366 16.5801 84.6883 16.6991 84.9514C17.9797 87.4541 19.3565 89.3552 20.8292 90.6546C22.302 91.954 24.0241 92.7958 25.9999 93.1779V93.1733ZM14.6706 79.6485C15.4733 79.4701 16.2051 79.2116 16.8706 78.8753C17.5338 78.5413 18.0826 78.157 18.5126 77.7269C18.9425 77.2968 19.2764 76.805 19.5097 76.2536C19.7429 75.7023 19.8596 75.1281 19.8596 74.5287C19.8596 73.2225 19.393 72.0855 18.46 71.1155C17.5269 70.1455 16.2943 69.5233 14.762 69.2488C15.4435 69.6194 16.0198 70.0632 16.4864 70.5779C16.9529 71.0926 17.3051 71.676 17.5452 72.328C17.7853 72.98 17.9043 73.6846 17.9043 74.4372C17.9043 75.7435 17.6458 76.8118 17.1313 77.6423C16.6167 78.475 15.7957 79.1407 14.6706 79.644V79.6485Z" fill="url(#paint0_linear_206_33848)"/>
<path d="M29.6611 80.9245C29.6611 79.1882 29.995 77.5296 30.6674 75.9488C31.3374 74.3681 32.2682 72.9817 33.4597 71.7898C34.6512 70.598 36.0279 69.6783 37.5899 69.024C39.1518 68.3721 40.8007 68.0449 42.5365 68.0449C44.8577 68.0449 47.0028 68.6214 48.9719 69.7767C50.9409 70.932 52.5029 72.499 53.6577 74.4733C54.8126 76.4498 55.3912 78.598 55.3912 80.92C55.3912 82.6449 55.0642 84.2874 54.4124 85.8499C53.7607 87.4124 52.8345 88.7918 51.6384 89.9906C50.4423 91.1893 49.0702 92.1181 47.5265 92.7838C45.9829 93.4473 44.3363 93.7813 42.5891 93.7813C40.2313 93.7813 38.061 93.2071 36.0805 92.0564C34.1 90.9079 32.5335 89.3477 31.3855 87.3781C30.2374 85.4084 29.6611 83.2557 29.6611 80.9222V80.9245ZM37.1119 91.9694C36.0462 91.1802 35.1635 90.2491 34.4637 89.1762C33.7639 88.1055 33.2356 86.8633 32.8834 85.4496C32.5312 84.0358 32.3528 82.487 32.3528 80.7987C32.3528 78.3074 32.7325 76.1868 33.494 74.4321C34.2533 72.6775 35.4608 71.179 37.1119 69.9323C35.6872 70.6872 34.4705 71.6206 33.4574 72.7347C32.4466 73.8488 31.6736 75.0955 31.1408 76.4796C30.6079 77.8613 30.3426 79.3392 30.3426 80.9062C30.3426 82.4733 30.6079 83.9374 31.1408 85.3329C31.6736 86.7284 32.4443 87.9889 33.4574 89.1144C34.4682 90.2399 35.6872 91.1916 37.1119 91.9694ZM34.1847 80.7987C34.1847 82.5579 34.3813 84.1913 34.777 85.692C35.1726 87.195 35.7375 88.4762 36.4739 89.5353C37.2102 90.5945 38.0953 91.4067 39.1313 91.9694C40.1672 92.5322 41.313 92.8136 42.5685 92.8136C44.6153 92.8136 46.4036 91.9992 47.9359 90.3703C48.8689 89.3638 49.5893 88.0461 50.0993 86.4104C50.607 84.777 50.8631 82.8988 50.8631 80.7804C50.8631 78.9365 50.6687 77.2734 50.28 75.7864C49.8912 74.3017 49.3332 73.0389 48.6105 71.998C47.8856 70.9571 47.012 70.1542 45.9897 69.5914C44.9675 69.0286 43.8149 68.7472 42.5342 68.7472C41.2535 68.7472 40.1192 69.0332 39.097 69.6005C38.0747 70.1702 37.1965 70.9823 36.467 72.0438C35.7375 73.103 35.1749 74.3841 34.7793 75.8871C34.3836 77.3901 34.1869 79.0281 34.1869 80.7987H34.1847ZM46.9685 91.9877C51.3502 89.4621 53.5388 85.7744 53.5388 80.9245C53.5388 79.3689 53.2964 77.8796 52.8116 76.4613C52.3268 75.0429 51.6384 73.7801 50.7465 72.6729C49.8546 71.5656 48.8095 70.6826 47.6134 70.0238C50.2342 72.3229 51.5446 75.9031 51.5446 80.7644C51.5446 82.1896 51.4166 83.5508 51.1581 84.8502C50.8997 86.1496 50.5453 87.2843 50.0902 88.2542C49.8638 88.7461 49.6168 89.183 49.3538 89.5651C49.0908 89.9494 48.7683 90.3337 48.3841 90.7226C47.9999 91.1115 47.5288 91.5325 46.9662 91.9877H46.9685Z" fill="url(#paint1_linear_206_33848)"/>
<path d="M72.2115 80.8872V87.677C72.2115 88.7179 72.2801 89.4912 72.4173 89.9945C72.5545 90.4977 72.8152 90.9415 73.1994 91.3236C73.8924 91.9824 74.8986 92.408 76.2159 92.5978V93.1537H64.0609V92.5978C65.5337 92.3828 66.5994 91.8909 67.2557 91.1246C67.5553 90.7906 67.7612 90.3788 67.8755 89.8938C67.9898 89.4088 68.047 88.6699 68.047 87.677V81.6605L62.5721 73.7222L62.3755 73.4523C61.3349 71.8967 60.4636 70.8192 59.7638 70.2198C59.064 69.6204 58.3002 69.2796 57.4746 69.1972V68.6413H68.8406V69.1972L68.4632 69.2155C67.5302 69.2635 66.8898 69.4031 66.5422 69.6364C66.1946 69.8698 66.0208 70.2633 66.0208 70.8123C66.0208 71.3613 66.2724 71.9859 66.7755 72.7156L71.9462 80.114L76.1107 74.9942C77.0209 73.8572 77.476 72.8277 77.476 71.9058C77.476 71.0685 77.1672 70.4188 76.5521 69.9567C75.9346 69.4969 75.0518 69.2407 73.9038 69.1926V68.6367H83.5272V69.1926C82.9165 69.3482 82.3448 69.5838 81.812 69.9018C81.2791 70.2198 80.7577 70.6178 80.25 71.096C79.74 71.5764 79.1751 72.2032 78.5531 72.981L77.4211 74.3994L77.1512 74.7219L72.2138 80.8826L72.2115 80.8872ZM67.0591 92.2387H72.3007L71.6009 91.7171C71.1938 91.4174 70.9331 91.1795 70.8188 90.9987C70.7044 90.8203 70.6472 90.5504 70.6472 90.1912C70.6472 89.999 70.645 89.8709 70.6381 89.8046C70.6312 89.7382 70.6289 89.6696 70.6289 89.5987V80.8872L65.3142 73.3081C64.6189 72.2901 64.2736 71.4711 64.2736 70.8489C64.2736 70.5149 64.3628 70.2175 64.5435 69.959C64.7241 69.7005 65.0031 69.458 65.3873 69.2315H59.4436C59.9834 69.5541 60.4888 69.9842 60.9599 70.5149C61.4333 71.0479 62.117 71.9607 63.0158 73.2532L63.304 73.6673L68.7262 81.5323V89.5964C68.7262 89.7886 68.7194 89.9853 68.7079 90.1889C68.7079 90.5595 68.653 90.8317 68.5456 91.0056C68.4381 91.1795 68.1751 91.4151 67.7566 91.7148L67.0568 92.2364L67.0591 92.2387ZM78.082 71.8555C78.9327 70.826 79.8361 69.9567 80.792 69.2498H76.3943C77.0049 69.5381 77.4394 69.8789 77.6955 70.2747C77.9517 70.6705 78.082 71.1966 78.082 71.8555Z" fill="url(#paint2_linear_206_33848)"/>
<path d="M100.867 84.0866H91.621L90.6147 86.3857C90.1368 87.5112 89.8966 88.44 89.8966 89.1698C89.8966 89.792 90.0361 90.3273 90.3174 90.778C90.5987 91.2264 91.0172 91.597 91.5752 91.8921C92.1309 92.1849 92.865 92.4229 93.7752 92.6013V93.1572H84.4561V92.6196C85.5812 92.2353 86.5486 91.5673 87.3559 90.6087C88.1631 89.6502 89.0162 88.1609 89.9149 86.1363L97.8505 68.1758H98.317L106.952 87.5913C106.975 87.6027 106.998 87.637 107.014 87.6897C107.032 87.7423 107.055 87.7995 107.085 87.8589C107.115 87.9184 107.147 87.9848 107.183 88.0557L107.972 89.6891C108.402 90.563 108.894 91.2218 109.445 91.6633C109.996 92.1072 110.685 92.4183 111.51 92.5967V93.1526H100.055V92.5967C101.025 92.5258 101.718 92.4114 102.138 92.2559C103.001 91.9333 103.431 91.3705 103.431 90.5675C103.431 90.1718 103.239 89.5267 102.857 88.6276L100.865 84.0843L100.867 84.0866ZM90.2923 92.2398C89.8852 91.748 89.597 91.3088 89.4301 90.9199C89.2632 90.5309 89.1785 90.1077 89.1785 89.6525C89.1785 89.4489 89.1854 89.2865 89.1968 89.1675C88.8263 89.8858 88.4604 90.4646 88.1014 90.8993C87.7424 91.3362 87.2575 91.7823 86.6469 92.2376H90.2923V92.2398ZM100.526 83.3316L96.1994 73.5793L91.9434 83.3316H100.526ZM96.5767 72.8083L103.49 88.3805L103.671 88.7763C104.041 89.5793 104.226 90.1649 104.226 90.5355C104.226 91.0503 103.934 91.6199 103.346 92.2421H108.087C107.547 91.7388 107.081 91.1623 106.687 90.5104C106.292 89.8584 105.832 88.9502 105.304 87.788L97.6012 70.4566L96.579 72.8106L96.5767 72.8083Z" fill="url(#paint3_linear_206_33848)"/>
<path d="M124.941 68.6406V69.1965C123.505 69.4116 122.469 69.9034 121.836 70.6698C121.547 71.0175 121.348 71.4476 121.234 71.9623C121.12 72.4771 121.063 73.1954 121.063 74.1173V87.8205C121.063 88.7173 121.113 89.4242 121.216 89.9389C121.316 90.4536 121.499 90.8791 121.762 91.2131C122.302 91.8948 123.324 92.2357 124.831 92.2357H125.209C126.011 92.2357 126.794 92.1122 127.56 91.8674C128.326 91.6226 129.106 91.2268 129.904 90.6824C130.7 90.1379 131.507 89.4516 132.328 88.6258C133.147 87.7999 133.988 86.8231 134.85 85.6975H135.406L133.252 93.1508H113.395V92.5949C114.687 92.3798 115.627 91.8834 116.214 91.1056C116.669 90.5314 116.896 89.3876 116.896 87.6741V74.115C116.896 73.0261 116.836 72.2369 116.715 71.745C116.596 71.2532 116.374 70.8345 116.052 70.4891C115.453 69.8188 114.568 69.3864 113.395 69.1965V68.6406H124.939H124.941ZM115.91 92.2403H121.152L120.452 91.7187C120.045 91.419 119.784 91.1811 119.67 91.0004C119.555 90.8219 119.498 90.552 119.498 90.1928C119.498 90.0007 119.496 89.8725 119.489 89.8062C119.482 89.7399 119.48 89.6712 119.48 89.6003V72.1957C119.48 72.1248 119.482 72.0516 119.489 71.9806C119.496 71.9097 119.498 71.7839 119.498 71.6032C119.498 71.244 119.56 70.9649 119.686 70.7682C119.812 70.5714 120.065 70.3404 120.45 70.0773L121.472 69.3224H115.601L116.608 70.0773C117.026 70.377 117.289 70.6103 117.397 70.7773C117.504 70.9443 117.559 71.2211 117.559 71.6032C117.57 71.8068 117.577 72.0035 117.577 72.1957V89.6003C117.577 89.7925 117.57 89.9892 117.559 90.1928C117.559 90.5634 117.504 90.8356 117.397 91.0095C117.289 91.1834 117.026 91.419 116.608 91.7187L115.908 92.2403H115.91ZM131.978 92.2403L132.948 88.9003C131.774 90.3003 130.379 91.4144 128.765 92.2403H131.978Z" fill="url(#paint4_linear_206_33848)"/>
<path fill-rule="evenodd" clip-rule="evenodd" d="M11.4117 109.65H2.7832V110.65H11.4117V109.65ZM130.34 109.65H121.712V110.65H130.34V109.65Z" fill="url(#paint5_linear_206_33848)"/>
<path d="M71.8272 8.6302L71.9621 8.5547C71.6831 8.50209 71.4064 8.4449 71.1365 8.3877C70.8575 8.32822 70.5762 8.27103 70.3109 8.2207C70.3064 8.2207 70.2972 8.2207 70.2904 8.22528C70.2355 8.31221 70.1897 8.41516 70.1577 8.52496C70.5259 8.6668 70.8735 8.79948 71.2166 8.79948C71.4338 8.79948 71.6328 8.74458 71.8294 8.63248L71.8272 8.6302Z" fill="url(#paint6_linear_206_33848)"/>
<path d="M95.4465 20.7236L94.4746 20.87L95.2315 20.3164C95.8444 19.8703 96.5419 19.319 97.0771 18.6327C97.4338 18.1752 97.7288 17.5278 97.8592 17.0839C97.3103 17.4134 96.7889 17.5827 96.2195 17.6215L95.3253 17.6833L96.0342 17.2075C96.7066 16.7568 97.2006 16.2101 97.5047 15.5809C97.7311 15.1143 97.8249 14.6819 97.7837 14.2632C97.5436 14.7803 97.1343 15.2264 96.5488 15.6153C96.4596 15.6747 96.359 15.693 96.2789 15.7091C96.2561 15.7136 96.2332 15.7182 96.2126 15.7228L96.0571 15.764L95.6843 15.3934L95.8856 15.2447C96.4688 14.81 96.8072 14.2244 96.9856 13.3482C97.0999 12.7831 97.1548 12.1837 96.8575 11.5844C96.4299 12.4194 95.7004 13.307 94.287 13.307C94.0355 13.307 93.7633 13.2795 93.4821 13.2224L92.3546 12.9982L93.466 12.774C94.2184 12.623 94.7947 12.273 95.1789 11.7354C95.4808 11.3121 95.5814 10.8455 95.4854 10.2873C95.1904 10.5503 94.8428 10.7539 94.3739 10.7539C94.3145 10.7539 94.255 10.7517 94.1933 10.7448L93.6902 10.6899L94.0241 10.3605C94.1087 10.2781 94.1956 10.1958 94.2825 10.1134C94.4769 9.93267 94.6598 9.7611 94.8108 9.57122C95.0349 9.28983 95.0669 9.03362 94.9114 8.76367C94.7444 8.46856 94.5821 8.17116 94.422 7.87376C94.1658 7.39793 93.9006 6.90608 93.6101 6.44168C93.0064 5.47628 92.2608 4.68703 91.3941 4.09681C91.0122 3.83602 90.6806 3.66673 90.3581 3.56836C90.3924 4.19061 90.2895 4.81285 90.054 5.38935C89.8824 5.80571 89.6469 6.19232 89.3473 6.54691C89.8642 6.90837 90.349 7.31328 90.7881 7.74794C91.0694 8.02475 91.3346 8.31757 91.5816 8.62412C91.5999 8.53261 91.6159 8.43882 91.6296 8.34503C91.6845 7.97671 91.7394 7.59467 91.6571 7.08909C91.6159 6.83974 91.5313 6.31815 91.1562 5.78283C91.0442 5.62498 90.9207 5.48086 90.8361 5.38706C90.7423 5.27954 90.5868 5.1011 90.7743 4.95698L90.8452 4.90436H90.939C91.1654 4.90436 91.6114 5.41451 91.6159 5.42138C92.7708 6.7711 92.5261 8.55092 92.1168 9.80456L92.007 10.1409L91.5359 9.77025L90.4885 8.73164C89.8916 8.14142 89.1895 7.65872 88.3891 7.29498C86.7951 7.21034 85.2629 7.19204 84.2543 7.19204C83.5637 7.19204 83.12 7.20119 83.0903 7.20119C82.4454 7.25609 81.8005 7.31328 81.1579 7.37963C80.4375 7.45283 79.8749 7.7937 79.3809 8.17802C79.6096 8.39307 79.8909 8.54177 80.1745 8.67903C80.1974 8.67903 80.2271 8.67445 80.2591 8.66759C80.5381 8.60353 80.8148 8.57151 81.0847 8.57151C81.8348 8.57151 82.5369 8.814 83.2344 9.31271L83.518 9.51403L83.2206 9.68332C83.1406 9.72907 83.0629 9.78169 82.9851 9.83202C82.7976 9.95555 82.6032 10.0837 82.3676 10.1454C82.2327 10.1797 82.0932 10.198 81.9514 10.198C81.6198 10.198 81.2653 10.102 80.8697 9.90293L80.6662 9.79999C80.1402 9.53462 79.5959 9.2601 79.0448 9.0359C78.2969 8.72935 77.6292 8.58066 77.0003 8.58066H76.9156C76.568 8.58981 76.209 8.62412 75.8636 8.65844C75.5252 8.69275 75.173 8.72707 74.8231 8.73622C74.583 8.74308 74.3406 8.74766 74.0982 8.74766C73.5722 8.74766 73.1376 8.72478 72.7306 8.67216C72.5773 8.65386 72.4218 8.63098 72.2686 8.60353L72.2206 8.86662C72.2 8.97642 72.1726 9.1297 72.0399 9.22578C71.7403 9.44311 71.3996 9.55063 70.9971 9.55063C70.6838 9.55063 70.3682 9.48658 70.0617 9.41795C70.1258 10.1729 70.2676 11.0033 70.7684 11.7331C71.1252 12.2547 71.5757 12.5635 72.1062 12.6504C72.6048 12.7328 73.1422 12.7717 73.7482 12.7717H73.9175C74.3063 12.7648 74.7042 12.7397 75.0884 12.7122C75.5206 12.6825 75.9688 12.6527 76.4125 12.6527C76.4926 12.6527 76.5726 12.6527 76.6526 12.655C77.6109 12.6802 78.4662 12.9089 79.1934 13.3322C79.8749 13.7302 80.5061 14.6499 80.5198 15.2607L80.5335 15.931L80.0647 15.3956C79.4632 14.7071 78.6857 14.19 77.7549 13.8606C76.8607 13.5449 76.0352 13.3893 75.2325 13.3893C74.9031 13.3893 74.5738 13.4168 74.2514 13.4694C73.7894 13.5449 73.3389 13.6135 72.8678 13.6135C72.6643 13.6135 72.4744 13.5998 72.2869 13.5747C72.2617 13.5701 72.2343 13.5678 72.2092 13.5655C72.2778 13.7805 72.431 13.9475 72.6528 14.0436C72.8129 14.1123 73.005 14.2838 73.0553 14.4737C73.2268 15.1051 73.6591 15.4254 74.3429 15.4254H74.4046C74.4183 15.4254 74.4298 15.4254 74.4389 15.4231C74.4389 15.4185 74.4412 15.4117 74.4435 15.4048C74.5281 14.9816 74.8002 14.7688 75.253 14.7688C75.2805 14.7688 75.3079 14.7688 75.3354 14.7688C75.5915 14.7825 75.8614 14.8123 76.0809 14.929C76.7281 15.2744 77.2061 15.5558 77.6314 15.8486C78.0637 16.146 78.2237 16.6058 78.0705 17.1137C78.0294 17.2509 77.9699 17.3791 77.9127 17.5026C77.931 17.5026 77.9516 17.5049 77.9699 17.5049C78.1529 17.5049 78.3449 17.3974 78.5759 17.2372L78.8755 17.029L78.983 17.363C79.0127 17.4568 79.0425 17.5438 79.0722 17.6284C79.1339 17.8091 79.1911 17.9784 79.2346 18.1546C79.3946 18.802 79.2483 19.4425 78.8298 19.9115C78.4159 20.3782 77.7915 20.6344 77.0734 20.6344H77.0345C76.6915 20.6298 76.3531 20.5864 76.0237 20.5429C76.0146 20.5429 76.0077 20.5429 75.9986 20.5406C76.472 21.6204 77.2289 22.3776 79.1156 22.7871L80.2911 23.0433L79.1156 23.2355L78.8984 23.2721C78.7406 23.2996 78.5828 23.327 78.4227 23.3476C77.963 23.4071 77.5514 23.4345 77.1603 23.4345C76.4537 23.4345 75.8156 23.3407 75.2142 23.1463C75.2142 23.1463 75.205 23.1463 75.1867 23.1463C75.1524 23.1463 75.1113 23.1531 75.0792 23.1669C74.8048 23.2744 74.5327 23.3888 74.2605 23.5009C73.8008 23.6908 73.3275 23.8875 72.8472 24.0591L72.7763 24.0842C72.1131 24.3199 71.4247 24.5646 70.6655 24.5646C70.5328 24.5646 70.4025 24.5578 70.2744 24.5418C69.8513 24.4937 69.4306 24.4159 69.0212 24.3427C68.8817 24.3176 68.7422 24.2924 68.6004 24.2672C68.6278 24.2855 68.6576 24.3039 68.6896 24.3222C68.7879 24.3816 68.9 24.4503 68.996 24.5395L69.275 24.8049L68.8954 24.9124C68.8771 24.9169 68.8588 24.9238 68.8428 24.9284C68.7925 24.9444 68.7353 24.965 68.6667 24.9696C68.5821 24.9764 68.4952 24.9856 68.4106 24.9924C68.1613 25.0153 67.9029 25.0405 67.6422 25.0428C67.306 25.0473 66.963 25.0496 66.6176 25.0519C66.0299 25.0565 62.0049 25.0611 61.3989 25.0611H61.1085C60.8546 25.0611 60.6008 25.0542 60.3492 25.0473C60.0931 25.0405 59.8369 25.0336 59.5808 25.0336C59.439 25.0336 59.2949 25.0336 59.1532 25.0428L58.9382 25.0519C58.7003 25.0634 58.4534 25.0748 58.2109 25.0748C58.0188 25.0748 57.797 25.0679 57.5592 25.0405C57.845 25.132 58.1515 25.1755 58.4694 25.2189L59.2058 25.3242L58.5425 25.6536C58.3299 25.7611 58.0989 25.8663 57.845 25.8869C57.7947 25.8915 57.7444 25.8938 57.6941 25.8938C57.1041 25.8938 56.6032 25.6055 56.1184 25.3287L56.0132 25.267C55.613 25.0382 55.2151 24.9238 54.8286 24.9238C54.7371 24.9238 54.6434 24.9307 54.5542 24.9444C53.923 25.0359 53.2986 25.2143 52.7109 25.3859C52.5348 25.4385 52.3587 25.5026 52.1849 25.5666C51.7641 25.7222 51.3296 25.8846 50.8288 25.8846H50.7121C50.4537 25.8846 50.1976 25.8892 49.9392 25.8938C49.6785 25.8984 49.42 25.9029 49.1593 25.9029C48.782 25.9029 48.4687 25.8938 48.176 25.8755C47.4304 25.8252 46.6803 25.697 45.9554 25.5712L45.7084 25.5278C45.5163 25.4957 45.3242 25.45 45.1321 25.3996C45.6672 25.8137 46.2595 26.0448 46.9525 26.1134L47.4853 26.166L47.0782 26.5206C46.8198 26.7448 46.5568 26.8752 46.2915 26.953C46.335 26.969 46.3784 26.985 46.4219 26.9987C46.6003 27.0559 46.7878 27.088 46.9868 27.1246C47.0782 27.1406 47.172 27.1589 47.2681 27.1772L48.3383 27.3968L47.2841 27.6278C47.1423 27.6576 46.9868 27.6736 46.8198 27.6736C45.9805 27.6736 44.8737 27.2527 44.5672 26.6258L44.4208 26.3284L44.9034 26.2804C44.4208 26.0036 44.0046 25.6399 43.6616 25.1938C43.4718 24.949 43.2499 24.7751 42.8909 24.5967C40.6589 23.4917 38.7081 21.8263 36.922 19.502C35.3464 17.45 34.1251 15.0822 33.1944 12.2661C33.1761 12.2135 33.1578 12.1609 33.1395 12.106C32.689 12.7213 32.4122 13.3962 32.2956 14.158C32.1127 15.3751 32.3551 16.5166 33.0411 17.649L33.4185 18.2712L32.785 17.9784C32.211 17.7131 31.7216 17.3402 31.2734 16.8232C31.2162 17.7359 31.3694 18.5961 31.7353 19.4403C32.1424 20.3782 32.7782 21.1697 33.6792 21.8606L34.2258 22.2793L33.5649 22.2747C33.016 22.2701 32.4923 22.1306 31.9755 21.8492C32.7164 23.9973 34.1572 25.3379 36.3663 25.9395L36.5721 26.0059L34.5757 26.2575C35.6665 27.7422 37.1782 28.4377 39.2936 28.4377L40.7824 28.4194L39.504 28.8838C38.9711 29.0782 38.3902 29.1674 37.679 29.1697C38.0083 29.4077 38.3559 29.6067 38.747 29.7783C39.5337 30.1237 40.3593 30.2976 41.2054 30.2976C41.6011 30.2976 42.0104 30.2587 42.4221 30.1832L42.6302 30.1443L41.5896 30.9907C41.7063 31.009 41.8252 31.0296 41.9441 31.0479C42.3169 31.1097 42.7011 31.1737 43.0624 31.1737C43.1608 31.1737 43.2568 31.1692 43.346 31.16C44.7867 31.0067 45.9828 30.2884 46.9044 29.0233C47.6706 27.971 48.599 27.1703 49.6625 26.6464C49.7425 26.6075 49.8225 26.587 49.8934 26.5709C49.9209 26.5641 49.9483 26.5572 49.9735 26.5503L50.2753 26.4634L50.2502 26.7997C50.241 26.9347 50.1884 27.033 50.097 27.0879C48.8483 27.8406 47.9427 28.9638 47.3252 30.5217C47.3138 30.5492 47.3046 30.5767 47.2932 30.6041L47.419 31.446C47.4464 31.6313 47.4716 31.8212 47.499 32.0156C47.5631 32.4754 47.6271 32.9513 47.7209 33.4202C47.8192 33.9075 47.8992 34.3582 47.897 34.8226C48.1531 34.102 48.3292 33.2944 48.4298 32.3793L48.5304 31.4849L48.8415 32.3382C49.0313 32.8575 49.0999 33.3402 49.0518 33.8114C48.9055 35.2206 48.4527 36.5841 47.6271 38.1054C46.8633 39.5123 45.889 40.766 44.7319 41.832C44.0778 42.436 43.3254 42.8706 42.6005 43.2916C41.6262 43.8566 40.5788 44.4354 39.4239 44.7717C39.504 45.0096 39.5726 45.2727 39.6435 45.5998C39.7167 45.9407 39.7921 46.1374 40.0002 46.2655C40.1443 46.3548 40.2587 46.4943 40.341 46.6064C40.4508 46.7551 40.5537 46.9107 40.6566 47.0639L40.9013 47.43L40.5468 47.7228L39.9934 47.2767C40.0048 47.3522 40.014 47.4277 40.0208 47.5032C40.0551 47.9195 40.1329 48.2032 40.421 48.4159C40.5674 48.5258 40.6543 48.6882 40.732 48.8346C40.7618 48.8895 40.7892 48.9421 40.8212 48.9924L40.931 49.164L40.5811 49.4843L40.2518 49.2212C40.2884 49.633 40.357 49.9899 40.6589 50.2644C40.7252 50.3262 40.7801 50.4108 40.8121 50.4977C40.8372 50.5686 40.8533 50.6441 40.8716 50.7196L40.9287 50.9598L40.6017 51.1657L40.4393 51.0239C40.4439 51.0925 40.4485 51.1634 40.4508 51.2321C40.4713 51.8063 40.4896 52.3805 40.5079 52.9547C40.5422 53.9773 40.5765 54.9976 40.6154 56.0202C40.62 56.1254 40.6657 56.2558 40.7252 56.3313C41.3175 57.0862 41.9647 57.8915 42.7057 58.7951C42.724 58.8157 42.7926 58.8523 42.8406 58.8523C43.2751 58.8592 43.7096 58.8592 44.1441 58.8592H45.3699C45.2075 58.3719 44.8714 57.9967 44.2928 57.6353L43.7919 57.3242L44.3477 57.2121C44.4323 57.196 44.5306 57.1777 44.6312 57.1777C44.741 57.1777 44.8371 57.1983 44.9217 57.2395C45.6192 57.5872 46.0537 58.1248 46.2092 58.8272C46.2092 58.8317 46.2138 58.8386 46.2206 58.8477C46.3784 58.8546 46.534 58.8569 46.6963 58.8569H46.9776C46.957 58.7906 46.9387 58.7311 46.9159 58.6762C46.7421 58.2621 46.4425 57.9167 45.9737 57.5849L45.626 57.3402L46.0034 57.1823C46.0949 57.1434 46.1863 57.1251 46.2778 57.1251C46.4974 57.1251 46.6574 57.2349 46.7855 57.3242L46.8152 57.3447C47.3207 57.6902 47.6545 58.1958 47.7986 58.8363C47.7986 58.8409 47.8032 58.8455 47.8078 58.85C47.9358 58.8569 48.0639 58.8569 48.192 58.8569H48.4618C48.5281 57.7131 48.1119 56.8392 47.1926 56.1918C46.6643 55.8189 46.0697 55.8006 45.4408 55.78L45.2784 55.7754C45.1138 55.7685 44.9491 55.7685 44.7867 55.7685C44.6518 55.7685 44.5169 55.7685 44.382 55.7708C44.2448 55.7708 44.1098 55.7731 43.9726 55.7731H43.7805C43.7805 55.7731 44.7433 55.2012 45.0658 55.0113C45.0932 55.0067 45.1115 55.0045 45.1229 54.9999C45.1229 54.993 45.1229 54.9839 45.1229 54.9701C45.0955 54.6567 45.0772 54.3387 45.0658 54.023C45.0177 52.6825 44.9766 51.4723 44.9445 50.2484C44.9354 49.9556 44.9583 49.7268 45.0132 49.5232C45.0772 49.2853 45.1504 49.0496 45.2258 48.8209C44.741 49.2395 44.5443 49.7771 44.6152 50.4749L44.6884 51.2115L44.2402 50.6327C43.8194 50.0928 43.8125 49.315 44.2242 48.6539C44.629 47.9996 45.2556 47.693 45.8136 47.4803C46.662 47.1577 47.5997 46.945 48.7683 46.8146C50.3988 46.6338 51.9128 46.2038 53.2712 45.5381C53.3993 45.4763 53.5273 45.4077 53.66 45.3367C53.0837 45.1949 52.8024 45.0325 52.608 44.7648L52.3016 44.3416L52.791 44.4011C52.9167 44.4171 53.0402 44.4331 53.166 44.4514C53.4404 44.488 53.724 44.5269 54.003 44.5475C54.1082 44.5544 54.2157 44.5589 54.3209 44.5589C54.7966 44.5589 55.1328 44.4537 55.4118 44.2204C55.5215 44.1288 55.6313 44.0373 55.7411 43.9481C55.8234 43.8795 55.908 43.8109 55.9903 43.7422C55.8554 43.7537 55.7228 43.7605 55.5879 43.7605C54.7966 43.7605 54.0762 43.5363 53.8406 43.2161L53.5662 42.8455L54.0007 42.85C54.1883 42.85 54.3826 42.8592 54.577 42.866C54.8057 42.8752 55.0367 42.8821 55.27 42.8821C55.5032 42.8821 55.7045 42.8729 55.8897 42.8546C56.9783 42.7494 57.7147 42.269 58.1446 41.3882C58.2613 41.148 58.3916 40.9124 58.5197 40.6813C58.1378 40.933 57.7261 41.1366 57.2847 41.2876C56.8091 41.4523 56.3334 41.5369 55.8691 41.5369C55.5055 41.5369 55.1419 41.4843 54.7851 41.3836L53.6097 41.0451L54.808 40.9352C56.9211 40.7408 58.2727 40.0362 59.1897 38.6521C60.3881 36.8426 60.7288 35.2618 60.2943 33.5255L60.0405 32.5143L60.6648 33.3333C60.7906 33.498 60.9484 33.7039 61.0399 33.9441C61.5361 35.2298 61.4584 36.5452 60.7929 38.0802C60.7883 38.0894 60.786 38.0962 60.7814 38.1054C60.7906 38.11 61.0124 38.1832 61.0124 38.1832C62.0141 38.3891 62.8877 38.4485 63.7704 38.6293C63.9237 38.6842 66.931 39.0571 67.0842 39.1165C67.6102 39.2858 68.1339 39.462 68.6439 39.6381C69.4694 39.9218 70.2927 40.2078 71.1183 40.4937C71.6969 40.695 72.2732 40.8941 72.8518 41.0954C73.021 41.1549 73.1925 41.2098 73.3755 41.267C73.3 40.2146 73.4098 39.2492 73.531 38.4325C73.7139 37.2109 74.0981 36.0808 74.679 35.0742C74.7522 34.9484 74.8643 34.8546 74.9626 34.77C74.9992 34.7379 75.0381 34.7082 75.0724 34.6739L75.2325 34.5183L75.6624 34.834L75.5846 34.9942C75.1844 35.804 74.7545 36.7785 74.5921 37.8583C74.416 39.025 74.4343 40.2718 74.6493 41.6765C74.7865 42.5824 74.9283 43.5569 75.0312 44.5498C75.1227 45.4237 74.894 46.1466 74.352 46.7002C74.5876 47.3499 75.0518 47.8623 75.7676 48.2604L76.0375 48.4114L75.6624 48.7682L75.3148 48.6539C75.3903 48.7957 75.4863 48.8941 75.651 48.965C75.8476 49.0473 75.9917 49.1938 76.1198 49.3219C76.1678 49.3722 76.2181 49.4202 76.2684 49.466L76.4331 49.6101L76.1312 49.9693L75.7836 49.864C75.8591 50.0585 75.9551 50.1935 76.1381 50.2987C76.2982 50.3902 76.4125 50.5229 76.5131 50.6419C76.552 50.6876 76.5909 50.7334 76.632 50.7745L76.7876 50.9324L76.4514 51.2572L76.2616 51.184C76.305 51.4037 76.3508 51.6233 76.3965 51.8429C76.5657 52.671 76.7418 53.5266 76.8585 54.3776C76.9362 54.9564 76.9408 55.5466 76.9454 56.1163C76.9454 56.4045 76.9499 56.695 76.9614 56.9833C76.9636 57.0451 76.9636 57.1091 76.9614 57.1732C76.9614 57.3539 76.9614 57.5392 77.0277 57.6467C77.2221 57.951 77.4691 58.2278 77.7343 58.5229C77.8144 58.6121 77.8944 58.7013 77.9699 58.7883C77.9973 58.818 78.0294 58.8432 78.0476 58.8546C78.4753 58.8615 78.903 58.8615 79.3375 58.8615H80.115C79.9298 58.3788 79.5387 58.0105 78.8321 57.6376L78.2306 57.3196L78.9052 57.2143C79.0059 57.1983 79.1225 57.1823 79.2391 57.1823C79.3741 57.1823 79.4907 57.2029 79.5936 57.2464C80.426 57.5987 80.9406 58.1386 81.1167 58.8409C81.1167 58.8432 81.119 58.8478 81.1213 58.85C81.3179 58.8546 81.5146 58.8569 81.7182 58.8569H82.0315C82.0109 58.7997 81.9903 58.7471 81.9651 58.6945C81.7753 58.285 81.4277 57.9418 80.8446 57.5849L80.4398 57.3379L80.8857 57.1823C80.9932 57.1457 81.103 57.1251 81.2082 57.1251C81.4666 57.1251 81.6564 57.2349 81.8073 57.3219L81.8531 57.347C82.4523 57.6879 82.8456 58.1958 83.0171 58.8477C83.0171 58.8477 83.0171 58.8477 83.0171 58.8523C83.1269 58.8569 83.2367 58.8592 83.3464 58.8592H83.5614C83.5271 57.8801 82.6444 56.9284 81.5306 56.7202C81.167 56.6516 80.792 56.6401 80.394 56.6287C80.2111 56.6241 80.0304 56.6173 79.8497 56.6058C79.7857 56.6012 79.7217 56.599 79.6576 56.5967L79.3329 56.5807L80.7256 55.8166C80.7233 55.7983 80.7188 55.7823 80.7142 55.7685C80.6319 55.4872 80.5495 55.2035 80.4672 54.9221C80.2385 54.1397 80.0052 53.3299 79.7491 52.5429C79.3489 51.3053 78.9967 50.0882 79.0562 48.7934C79.0951 47.9424 79.3238 47.3407 79.8017 46.8466C79.868 46.778 79.9298 46.7048 79.9915 46.6316L79.4404 46.8649L79.1682 46.46L79.5822 46.1351C79.7651 45.991 79.9504 45.8492 80.1287 45.7005L80.4146 45.4648C81.1167 44.8861 81.7799 44.3393 82.2647 43.6301C82.7107 42.9781 83.12 42.3856 83.518 41.8229C84.5219 40.4022 85.0502 39.2264 85.2286 38.0116C85.2926 37.5792 85.3178 37.1286 85.3452 36.6916C85.3521 36.5681 85.3612 36.4445 85.3681 36.3187C84.3641 36.273 83.4676 35.9344 82.9874 35.4128C82.6832 35.0811 82.5666 34.7036 82.6535 34.3216L82.7953 33.6925L83.1292 34.2735C83.4128 34.7631 83.7901 35.0445 84.3573 35.1863C84.5745 35.2412 84.7872 35.2664 85.0067 35.2664C85.3201 35.2664 85.6471 35.2138 86.0313 35.1017L86.3149 35.0193L86.3674 35.287C86.802 37.4877 86.4726 39.6313 85.3658 41.8229C85.6608 41.7016 85.9284 41.53 86.1891 41.3013C87.0947 40.5006 87.6962 39.7502 87.6939 38.6933L87.6893 37.2132L88.1924 38.6361C88.3365 39.0433 88.4028 39.359 88.4028 39.6542C88.4028 39.8257 88.3822 39.9973 88.3571 40.162C90.3421 39.0799 90.9093 38.0436 90.6577 36.1083L90.5708 35.4311L91.0968 35.9344C91.497 36.3187 91.6982 36.7625 91.8423 37.2292C92.3569 36.607 92.2929 35.9618 91.6754 34.8317L91.4467 34.4131L91.9521 34.5115C91.991 34.5183 92.0253 34.5252 92.0573 34.5298C92.1396 34.5435 92.2105 34.5572 92.2791 34.5778C92.9355 34.7768 93.3723 35.1932 93.617 35.852C93.8868 35.5706 94.0721 35.2252 94.1933 34.77C94.6369 33.1183 94.2939 31.7571 93.1436 30.6041C93.0544 30.5149 92.9423 30.4371 92.8211 30.3547C92.7594 30.3113 92.6976 30.2701 92.6405 30.2244L92.4507 30.0825L92.7617 29.7073H92.8874C93.5461 29.7096 93.9897 30.0917 94.3785 30.428L94.486 30.5195C94.7947 30.7825 95.044 31.0982 95.2864 31.4025C95.3047 31.4254 95.323 31.4483 95.3413 31.4734C95.8124 30.2678 96.2081 28.9616 96.0983 27.5432C95.9954 26.1958 95.3482 25.0473 94.0606 23.931C94.0469 23.9172 94.0286 23.9058 94.0103 23.8944C93.928 23.8372 93.8045 23.7479 93.7862 23.597C93.7793 23.5306 93.7885 23.4322 93.8868 23.3316C93.9806 23.2355 94.1315 23.2149 94.2413 23.2149C94.3191 23.2149 94.4631 23.2241 94.5798 23.295C95.2132 23.6747 95.7827 24.0339 96.2561 24.5189C96.0251 23.6587 95.522 22.858 94.7307 22.0825L94.3671 21.7256L94.8954 21.7005C94.9251 21.7005 94.9548 21.7005 94.9823 21.7005C95.586 21.7005 95.9359 22.0047 96.2195 22.2472C96.2195 22.2472 96.2241 22.2518 96.2264 22.2518C96.9582 21.6181 97.3172 20.5818 97.2463 19.9893C96.7249 20.3851 96.144 20.6207 95.4511 20.7259L95.4465 20.7236ZM84.483 32.3725L83.4837 33.5987L84.0325 32.1529C84.2315 31.6267 84.2109 31.1783 83.9685 30.7757C83.7215 30.3639 83.3167 30.0802 82.7358 29.9018C82.5712 29.8515 82.3905 29.8263 82.2007 29.8263C81.5421 29.8263 80.6113 30.1672 80.1585 31.1257L79.9664 31.5329L79.7057 31.1463C79.166 30.3479 78.9075 29.4992 78.887 28.4766C78.8709 27.637 79.0127 26.8729 79.3146 26.1592C79.2826 26.1592 79.2506 26.1592 79.2185 26.1592C78.6422 26.1592 78.0911 25.9693 77.4828 25.5621L76.3165 24.782L77.7 25.1617C77.9699 25.2349 78.2352 25.2738 78.489 25.2738C79.2026 25.2738 79.8863 24.9902 80.7028 24.3496L81.5878 23.6587L81.1075 24.6218C80.2408 26.3628 79.6233 27.8475 80.2202 29.5495C80.7393 29.1857 81.3225 29.0004 81.9514 29.0004C82.0795 29.0004 82.2098 29.0073 82.3425 29.0233C83.0606 29.1057 83.6506 29.3642 84.0943 29.7897C84.8649 30.5286 85.0387 31.6885 84.4807 32.3725H84.483ZM83.8336 26.8981L83.6392 26.4016C83.1566 25.1686 83.0949 23.9287 83.0995 22.8809L83.1063 20.8495L84.0828 24.7751L85.1645 23.6038L85.6242 23.9149L83.829 26.8981H83.8336ZM90.891 28.8151C90.8269 29.3253 90.6166 29.7874 90.2667 30.19C89.8367 30.6865 89.345 31.192 88.6589 31.526C88.5057 31.5992 88.3891 31.6519 88.2564 31.6519C87.9774 31.6519 87.8402 31.4208 87.7579 31.2835C87.4697 30.794 87.1679 30.2701 86.9163 29.7188C86.4749 28.7488 86.1959 27.7239 86.0907 26.6762C86.0702 26.4657 86.0862 26.2598 86.1022 26.0585C86.109 25.9693 86.1159 25.8778 86.1205 25.784L86.1959 24.0087L86.6259 25.7565C86.6762 25.9624 86.7242 26.1683 86.7722 26.3742C86.8797 26.8363 86.9803 27.271 87.1153 27.7056C87.3417 28.4354 87.6847 29.3802 88.3342 30.2015C88.4531 30.3502 88.5332 30.4257 88.5789 30.4257C88.6567 30.4257 88.8213 30.341 88.8762 30.3136C89.592 29.9453 90.0059 29.3459 90.349 28.7442C90.3696 28.7076 90.4107 28.639 90.4976 28.5864L90.955 28.3233L90.8933 28.8129L90.891 28.8151Z" fill="url(#paint7_linear_206_33848)"/>
<path d="M90.1613 58.8805C89.7748 58.8805 89.4753 58.741 89.1299 58.3955C88.7777 58.0455 88.5628 57.6498 88.4278 57.1053C88.2769 56.4991 88.1374 55.8928 87.9979 55.2866C87.8607 54.6941 87.7235 54.1016 87.5771 53.5114C87.5131 53.2483 87.4147 52.9898 87.3187 52.7404C87.3073 52.713 87.2981 52.6832 87.2867 52.6558L87.7532 52.8434L87.7006 52.4522C87.648 52.0541 87.3256 51.8528 87.1174 51.7384L87.4262 51.8322L87.369 51.473C87.3004 51.043 86.9345 50.8737 86.731 50.7982L86.9985 50.5076L86.8567 50.3589C86.8362 50.3361 86.8156 50.3132 86.795 50.2903C86.7401 50.2263 86.6784 50.1553 86.596 50.0936C86.5 50.0227 86.3994 49.954 86.2987 49.8877C86.1295 49.7756 85.9717 49.6704 85.8482 49.5468C85.7156 49.4141 85.6127 49.2494 85.5029 49.0756C85.4846 49.0458 85.4663 49.0184 85.448 48.9886C86.1615 48.2589 85.9534 47.3369 85.7682 46.5202L85.7499 46.4402C85.743 46.4104 85.7339 46.3807 85.7247 46.3509C85.7179 46.3258 85.7087 46.3006 85.7064 46.2754L85.5944 45.4839C85.512 44.9006 85.432 44.3195 85.3405 43.7384C85.3291 43.6629 85.3268 43.6561 85.4206 43.6172C86.1272 43.3198 86.7012 42.9698 87.1723 42.542C87.2181 42.5008 87.3553 42.471 87.4628 42.4459L87.5542 42.4253C89.2832 42.0135 90.6096 41.0847 91.506 39.6641C91.5426 39.7762 91.5678 39.8814 91.5609 39.9729C91.4877 41.103 91.4123 42.1187 91.2568 43.1185C91.1013 44.1136 90.8771 45.1705 90.5913 46.2571C90.3649 47.115 89.8846 47.8951 89.1642 48.5768C89.0911 48.6455 89.0316 48.7095 88.9813 48.7736C88.9401 48.8239 88.9058 48.8788 88.8669 48.9383L88.6222 49.3043L89.0042 49.3615C89.0545 49.3684 89.1048 49.373 89.1505 49.373C89.4638 49.373 89.6582 49.2105 89.8 49.0916L89.8503 49.0504C89.8229 51.7178 90.3534 53.9254 91.5015 55.9363L90.3168 56.705H91.3482C91.5152 56.705 91.6821 56.705 91.8491 56.705C93.0223 56.7233 94.5316 57.7161 94.758 58.8645C94.7031 58.8645 94.6506 58.8645 94.5957 58.8645C94.495 58.8645 94.3921 58.8645 94.2892 58.8577C94.2824 58.8508 94.2755 58.8416 94.2732 58.8371C94.0742 58.3132 93.7015 57.8717 93.132 57.4896C92.8873 57.3249 92.6724 57.2243 92.3568 57.2243C92.2927 57.2243 92.2218 57.2288 92.1464 57.238L91.4923 57.3112L92.0435 57.6521C92.6449 58.0249 93.0177 58.407 93.2189 58.8622H92.9719C92.805 58.8622 92.6403 58.8622 92.4757 58.8554C92.4665 58.8462 92.4597 58.8371 92.4551 58.8325C92.0549 58.0341 91.5129 57.5514 90.7514 57.3135L90.6873 57.2906C90.5958 57.2586 90.4792 57.2197 90.3489 57.2197C90.1979 57.2197 90.0607 57.2723 89.9418 57.373L89.6857 57.5926L90.0081 57.7436C90.6622 58.0478 91.0807 58.4001 91.3231 58.8577C91.3048 58.8577 91.2888 58.8577 91.2705 58.8577C91.131 58.8554 90.9938 58.8508 90.8588 58.8508C90.6576 58.8508 90.4907 58.8577 90.3374 58.8737C90.2757 58.8805 90.2139 58.8828 90.1568 58.8828L90.1613 58.8805Z" fill="url(#paint8_linear_206_33848)"/>
<path d="M90.1613 58.8805C89.7748 58.8805 89.4753 58.741 89.1299 58.3955C88.7777 58.0455 88.5628 57.6498 88.4278 57.1053C88.2769 56.4991 88.1374 55.8928 87.9979 55.2866C87.8607 54.6941 87.7235 54.1016 87.5771 53.5114C87.5131 53.2483 87.4147 52.9898 87.3187 52.7404C87.3073 52.713 87.2981 52.6832 87.2867 52.6558L87.7532 52.8434L87.7006 52.4522C87.648 52.0541 87.3256 51.8528 87.1174 51.7384L87.4262 51.8322L87.369 51.473C87.3004 51.043 86.9345 50.8737 86.731 50.7982L86.9985 50.5076L86.8567 50.3589C86.8362 50.3361 86.8156 50.3132 86.795 50.2903C86.7401 50.2263 86.6784 50.1553 86.596 50.0936C86.5 50.0227 86.3994 49.954 86.2987 49.8877C86.1295 49.7756 85.9717 49.6704 85.8482 49.5468C85.7156 49.4141 85.6127 49.2494 85.5029 49.0756C85.4846 49.0458 85.4663 49.0184 85.448 48.9886C86.1615 48.2589 85.9534 47.3369 85.7682 46.5202L85.7499 46.4402C85.743 46.4104 85.7339 46.3807 85.7247 46.3509C85.7179 46.3258 85.7087 46.3006 85.7064 46.2754L85.5944 45.4839C85.512 44.9006 85.432 44.3195 85.3405 43.7384C85.3291 43.6629 85.3268 43.6561 85.4206 43.6172C86.1272 43.3198 86.7012 42.9698 87.1723 42.542C87.2181 42.5008 87.3553 42.471 87.4628 42.4459L87.5542 42.4253C89.2832 42.0135 90.6096 41.0847 91.506 39.6641C91.5426 39.7762 91.5678 39.8814 91.5609 39.9729C91.4877 41.103 91.4123 42.1187 91.2568 43.1185C91.1013 44.1136 90.8771 45.1705 90.5913 46.2571C90.3649 47.115 89.8846 47.8951 89.1642 48.5768C89.0911 48.6455 89.0316 48.7095 88.9813 48.7736C88.9401 48.8239 88.9058 48.8788 88.8669 48.9383L88.6222 49.3043L89.0042 49.3615C89.0545 49.3684 89.1048 49.373 89.1505 49.373C89.4638 49.373 89.6582 49.2105 89.8 49.0916L89.8503 49.0504C89.8229 51.7178 90.3534 53.9254 91.5015 55.9363L90.3168 56.705H91.3482C91.5152 56.705 91.6821 56.705 91.8491 56.705C93.0223 56.7233 94.5316 57.7161 94.758 58.8645C94.7031 58.8645 94.6506 58.8645 94.5957 58.8645C94.495 58.8645 94.3921 58.8645 94.2892 58.8577C94.2824 58.8508 94.2755 58.8416 94.2732 58.8371C94.0742 58.3132 93.7015 57.8717 93.132 57.4896C92.8873 57.3249 92.6724 57.2243 92.3568 57.2243C92.2927 57.2243 92.2218 57.2288 92.1464 57.238L91.4923 57.3112L92.0435 57.6521C92.6449 58.0249 93.0177 58.407 93.2189 58.8622H92.9719C92.805 58.8622 92.6403 58.8622 92.4757 58.8554C92.4665 58.8462 92.4597 58.8371 92.4551 58.8325C92.0549 58.0341 91.5129 57.5514 90.7514 57.3135L90.6873 57.2906C90.5958 57.2586 90.4792 57.2197 90.3489 57.2197C90.1979 57.2197 90.0607 57.2723 89.9418 57.373L89.6857 57.5926L90.0081 57.7436C90.6622 58.0478 91.0807 58.4001 91.3231 58.8577C91.3048 58.8577 91.2888 58.8577 91.2705 58.8577C91.131 58.8554 90.9938 58.8508 90.8588 58.8508C90.6576 58.8508 90.4907 58.8577 90.3374 58.8737C90.2757 58.8805 90.2139 58.8828 90.1568 58.8828L90.1613 58.8805Z" fill="url(#paint9_linear_206_33848)"/>
<path d="M80.5589 5.99828C80.4697 5.60252 80.3622 5.20904 80.2433 4.82242C79.9688 3.93938 79.6121 3.07464 79.1821 2.2465C79.6258 2.32199 80.2638 2.47298 80.7098 2.76122C80.5406 2.99685 80.4559 3.27138 80.4651 3.55734C80.4788 3.96454 80.6778 4.3443 81.03 4.62568C81.3616 4.89105 81.7915 5.03746 82.2397 5.03746C82.3038 5.03746 82.3701 5.03517 82.4341 5.02831C83.1774 4.95739 83.7765 4.47012 83.8932 3.84329C83.9869 3.33086 83.772 2.8207 83.3329 2.47755C83.6782 1.83243 84.442 0.533028 85.2585 0C86.1092 0.533028 86.9576 1.82785 87.3464 2.47526C87.0285 2.73606 86.8387 3.12725 86.8364 3.55047C86.8364 4.28939 87.4013 4.7149 87.5751 4.82928C87.8244 4.99171 88.1125 5.07635 88.4327 5.07635C88.5425 5.07635 88.6408 5.0672 88.7277 5.05347C88.7003 5.1038 88.6705 5.15184 88.6385 5.19989C88.499 5.42179 88.3367 5.62768 88.156 5.81298C87.383 5.7535 86.5986 5.71233 85.8233 5.68945C85.2745 5.67343 84.8011 5.65971 84.3163 5.65971C83.7583 5.65971 83.2551 5.67801 82.7268 5.71919C81.9996 5.77409 81.2701 5.87017 80.5543 6.00057L80.5589 5.99828Z" fill="url(#paint10_linear_206_33848)"/>
<path d="M80.5589 5.99828C80.4697 5.60252 80.3622 5.20904 80.2433 4.82242C79.9688 3.93938 79.6121 3.07464 79.1821 2.2465C79.6258 2.32199 80.2638 2.47298 80.7098 2.76122C80.5406 2.99685 80.4559 3.27138 80.4651 3.55734C80.4788 3.96454 80.6778 4.3443 81.03 4.62568C81.3616 4.89105 81.7915 5.03746 82.2397 5.03746C82.3038 5.03746 82.3701 5.03517 82.4341 5.02831C83.1774 4.95739 83.7765 4.47012 83.8932 3.84329C83.9869 3.33086 83.772 2.8207 83.3329 2.47755C83.6782 1.83243 84.442 0.533028 85.2585 0C86.1092 0.533028 86.9576 1.82785 87.3464 2.47526C87.0285 2.73606 86.8387 3.12725 86.8364 3.55047C86.8364 4.28939 87.4013 4.7149 87.5751 4.82928C87.8244 4.99171 88.1125 5.07635 88.4327 5.07635C88.5425 5.07635 88.6408 5.0672 88.7277 5.05347C88.7003 5.1038 88.6705 5.15184 88.6385 5.19989C88.499 5.42179 88.3367 5.62768 88.156 5.81298C87.383 5.7535 86.5986 5.71233 85.8233 5.68945C85.2745 5.67343 84.8011 5.65971 84.3163 5.65971C83.7583 5.65971 83.2551 5.67801 82.7268 5.71919C81.9996 5.77409 81.2701 5.87017 80.5543 6.00057L80.5589 5.99828Z" fill="url(#paint11_linear_206_33848)"/>
<path d="M59.2606 58.8019C59.2789 58.8248 59.3452 58.8522 59.375 58.8522C59.8529 58.8568 60.3309 58.8591 60.8089 58.8591H62.0141C61.8128 58.2872 61.3669 57.9509 60.9049 57.6764L60.3766 57.3584L60.9918 57.276C61.065 57.2669 61.1633 57.2554 61.2594 57.2554C61.4058 57.2554 61.5292 57.2806 61.6344 57.3332C62.348 57.6855 62.7688 58.1842 62.9151 58.8431C62.9151 58.8454 62.9174 58.8476 62.922 58.8522C63.0752 58.8591 63.2284 58.8591 63.3839 58.8591H63.6607C63.496 58.3444 63.1438 57.9738 62.675 57.594L62.2062 57.2142H62.8259C63.0683 57.2142 63.2513 57.2531 63.4068 57.3401C63.9968 57.6649 64.381 58.1705 64.548 58.8362C64.5503 58.8408 64.5548 58.8499 64.5617 58.8568C64.6395 58.8637 64.7218 58.8659 64.811 58.8659C64.8933 58.8659 64.9756 58.8637 65.0557 58.8591C65.0534 58.7996 65.0511 58.7378 65.0488 58.6761C65.0397 58.3947 65.0305 58.1293 64.9665 57.8823C64.7561 57.0724 64.2141 56.5119 63.265 56.123C63.002 56.0155 62.7276 55.9629 62.4234 55.9629C62.0598 55.9629 61.6893 56.0384 61.376 56.1139C61.2182 56.1505 61.0604 56.1779 60.9072 56.2031C60.8386 56.2145 60.77 56.226 60.7014 56.2397L57.7627 57.0793C58.2269 57.626 58.7095 58.1774 59.2583 58.8042L59.2606 58.8019Z" fill="url(#paint12_linear_206_33848)"/>
<path d="M65.6664 44.4245C65.4675 44.4245 65.2685 44.4016 65.0741 44.3788C64.9712 44.3673 64.8683 44.3536 64.7654 44.3467L64.587 44.333L64.5756 43.8549L64.7471 43.8389C65.2845 43.7863 67.0431 42.8986 67.7727 42.5029C67.8207 42.4663 67.8687 42.4319 67.9167 42.3908C67.8802 42.3725 67.8413 42.3542 67.8047 42.3359C67.5417 42.2055 67.2993 42.0842 67.0546 41.9698C66.1055 41.526 64.7356 41.4231 63.1691 41.0113L62.515 40.8649C62.403 40.8123 62.3001 40.7871 62.2063 40.7871C62.0554 40.7871 61.9342 40.8534 61.8313 40.9884C61.6163 41.2698 61.4448 41.5786 61.3327 41.8783C60.8959 43.0519 60.3173 44.0882 59.6175 44.9575C58.4581 46.3942 57.2163 47.371 55.819 47.9452C55.4942 48.0779 55.1695 48.2038 54.8447 48.3296C54.5452 48.4462 54.2479 48.5606 53.9506 48.6819C53.8819 48.7093 53.8385 48.7436 53.8271 48.7734C53.8225 48.7871 53.8133 48.842 53.8751 48.9816C54.1266 49.5375 54.3828 50.0888 54.6298 50.6058C54.6366 50.6127 54.6595 50.6287 54.6915 50.6356C55.1009 50.7522 55.4348 50.9329 55.7138 51.1937L55.8121 51.2875L55.7206 51.697L55.0414 51.4934C55.1672 51.7611 55.2861 52.0173 55.3936 52.2827C55.4782 52.4909 55.5468 52.5252 55.6817 52.5252H55.7115C56.0339 52.5252 56.3244 52.6876 56.624 53.0399L57.0127 53.4929L55.8761 53.3167C55.9425 53.4631 56.0065 53.6072 56.0637 53.7514C56.1346 53.9344 56.2123 54.0007 56.3701 54.0213C56.5599 54.0442 56.7337 54.1311 56.9007 54.2158L56.999 54.2661C57.0813 54.3073 57.1454 54.3759 57.198 54.4308C57.214 54.4491 57.2323 54.4674 57.2506 54.4834L57.3603 54.5864L57.294 54.7991L57.23 54.9615L56.5668 54.8243C56.6903 55.0988 56.8046 55.355 56.9258 55.609C56.9578 55.6753 56.9876 55.7394 57.0173 55.8057C57.1317 56.0528 57.2391 56.2861 57.3741 56.4897C57.5044 56.6887 57.6348 56.8855 57.7674 57.0799L62.2178 55.9727L59.7273 55.9635L59.7753 55.8309L60.5437 55.3962C59.8371 54.1494 59.3317 52.8088 58.8834 51.5209C58.7622 51.7565 58.7554 52.0425 58.8537 52.3971L59.0046 52.9278L58.5838 52.6464C58.2614 52.4291 58.1013 52.0585 58.147 51.6284C58.2088 51.0473 58.4718 50.6401 58.9315 50.4182C60.2533 49.7777 61.4676 49.0022 62.9198 48.0551C62.9496 48.0368 62.977 48.0162 63.0067 47.9956C62.6774 47.9041 62.3938 47.7737 62.1286 47.5929L61.5911 47.2246L62.2017 47.1857C62.2475 47.1834 62.2955 47.1812 62.3412 47.1812C62.4602 47.1812 62.5791 47.1903 62.6957 47.1972C62.7529 47.2018 62.8124 47.2063 62.8695 47.2086C62.9793 47.2155 63.0868 47.2178 63.1943 47.2178C63.6905 47.2178 64.2074 47.1446 64.6259 46.607C64.6945 46.5177 64.7654 46.4354 64.8386 46.3507C64.6968 46.3782 64.5573 46.3988 64.4178 46.4102C64.3789 46.4125 64.3377 46.4148 64.2988 46.4148C63.9421 46.4148 63.6219 46.2981 63.3452 46.0694L63.0456 45.8223L63.3818 45.6873C63.487 45.6438 63.5876 45.6301 63.6791 45.6187L63.7317 45.6118C63.8666 45.5912 63.9993 45.5729 64.1342 45.5546C64.4475 45.5134 64.7699 45.47 65.081 45.4014C65.6184 45.2847 66.0575 44.9278 66.4097 44.3147C66.2176 44.3627 66.0209 44.4039 65.8151 44.4176C65.7648 44.4199 65.7144 44.4222 65.6641 44.4222L65.6664 44.4245Z" fill="url(#paint13_linear_206_33848)"/>
<path d="M29.3271 119.759V119.347C30.2671 119.187 30.9531 118.821 31.3877 118.245C31.7147 117.81 31.8793 116.963 31.8793 115.705V105.667C31.8793 104.914 31.8359 104.345 31.7467 103.958C31.6575 103.571 31.4951 103.247 31.255 102.981C30.8297 102.485 30.187 102.167 29.3271 102.025V101.613L29.5398 101.627L31.1361 101.732C31.7033 101.769 32.2613 101.785 32.8101 101.785C33.2698 101.785 33.8164 101.764 34.4453 101.725C35.0742 101.686 35.5521 101.648 35.8815 101.613L37.2239 101.467C37.7018 101.414 38.1981 101.387 38.7127 101.387C39.6251 101.387 40.4507 101.492 41.1917 101.705C41.9303 101.917 42.5638 102.222 43.0852 102.615C43.6089 103.011 44.0114 103.485 44.295 104.038C44.5786 104.592 44.7204 105.207 44.7204 105.88C44.7204 106.925 44.3911 107.804 43.7301 108.513C43.0692 109.222 42.111 109.737 40.8532 110.055C41.8983 110.16 42.82 110.441 43.6181 110.892C44.4162 111.343 45.0291 111.935 45.4591 112.667C45.889 113.399 46.104 114.221 46.104 115.133C46.104 115.877 45.9622 116.545 45.6786 117.135C45.395 117.725 44.9742 118.238 44.4162 118.677C43.8582 119.116 43.1836 119.446 42.3969 119.668C41.6079 119.889 40.7434 119.999 39.8058 119.999C39.3187 119.999 38.6143 119.96 37.6927 119.88C36.3457 119.775 35.4241 119.706 34.9278 119.681C34.1205 119.638 33.3864 119.615 32.7209 119.615C32.1972 119.615 31.6141 119.633 30.9669 119.668L29.597 119.748L29.3317 119.761L29.3271 119.759ZM31.2024 119.054C31.9022 118.965 32.4877 118.922 32.9565 118.922C33.3818 118.922 33.9353 118.958 34.6191 119.027L34.937 119.054L34.4727 118.695C34.1708 118.473 33.9787 118.297 33.8941 118.165C33.8095 118.032 33.7683 117.833 33.7683 117.565V117.126C33.7683 117.046 33.7661 116.993 33.7615 116.966C33.7569 116.938 33.7546 116.918 33.7546 116.899V104.466C33.7546 104.438 33.7546 104.413 33.7615 104.386C33.7661 104.358 33.7683 104.31 33.7683 104.239V103.8C33.7683 103.615 33.7843 103.468 33.8141 103.361C33.8438 103.256 33.9056 103.155 33.9925 103.061C34.0816 102.967 34.2394 102.837 34.4704 102.67L35.1748 102.137L34.6968 102.176C34.0153 102.238 33.4162 102.27 32.9016 102.27C32.3161 102.27 31.669 102.222 30.96 102.123L31.6644 102.668C31.9754 102.899 32.1698 103.077 32.2498 103.205C32.3299 103.334 32.3687 103.53 32.3687 103.798V117.561C32.3687 117.826 32.3299 118.025 32.2498 118.153C32.1698 118.281 31.9754 118.462 31.6644 118.691L31.2001 119.05L31.2024 119.054ZM34.9255 109.959H37.0798C38.3559 109.959 39.3301 109.702 40.0048 109.188C40.4644 108.851 40.8326 108.392 41.1071 107.811C41.3815 107.229 41.5187 106.621 41.5187 105.983C41.5187 105.212 41.354 104.521 41.027 103.908C40.7 103.297 40.2426 102.817 39.6572 102.471C39.0717 102.126 38.4154 101.952 37.6904 101.952C37.1141 101.952 36.6178 102.057 36.2016 102.272C35.7854 102.485 35.4607 102.791 35.232 103.189C35.0284 103.587 34.9255 104.221 34.9255 105.09V109.956V109.959ZM34.9255 110.478V116.076C34.9255 117.229 35.1885 118.041 35.7168 118.517C36.2451 118.99 37.1415 119.228 38.4085 119.228C39.8538 119.228 40.9515 118.817 41.7062 117.991C42.4495 117.176 42.8222 116.161 42.8222 114.946C42.8222 114.431 42.7582 113.955 42.6301 113.516C42.5021 113.077 42.31 112.676 42.0584 112.313C41.8069 111.949 41.5027 111.635 41.1482 111.375C40.7937 111.114 40.3912 110.917 39.9384 110.782C39.3278 110.579 38.4131 110.476 37.201 110.476H34.9278L34.9255 110.478ZM40.0299 109.707C41.1208 109.387 41.9601 108.89 42.5501 108.218C43.1401 107.545 43.4351 106.738 43.4351 105.797C43.4351 104.857 43.1378 104.054 42.5455 103.411C41.9509 102.768 41.075 102.306 39.9133 102.023C41.322 103.016 42.0264 104.315 42.0264 105.919C42.0264 107.621 41.3609 108.883 40.0322 109.709L40.0299 109.707ZM40.6405 119.281C41.473 119.148 42.2048 118.894 42.8337 118.517C43.4626 118.139 43.9474 117.664 44.2904 117.087C44.6312 116.511 44.8027 115.872 44.8027 115.172C44.8027 114.17 44.4711 113.28 43.8056 112.5C43.1401 111.72 42.2116 111.13 41.0133 110.732C42.5547 111.734 43.3254 113.143 43.3254 114.959C43.3254 117.034 42.4312 118.476 40.6405 119.281Z" fill="black"/>
<path d="M72.902 101.609L73.4074 106.555H72.9821C72.5224 105.032 71.8363 103.906 70.9284 103.186C70.0205 102.463 68.8405 102.101 67.386 102.101H66.6427C65.481 102.101 64.66 102.325 64.1774 102.774C63.6949 103.222 63.4525 103.968 63.4525 105.013V109.534H65.2203C66.5581 109.534 67.5323 109.323 68.1452 108.902C68.7581 108.482 69.1766 107.722 69.4076 106.622H69.8055V113.35H69.4076C69.2292 112.464 68.9937 111.787 68.6964 111.323C68.3991 110.858 67.9829 110.529 67.4477 110.339C66.9126 110.149 66.1831 110.053 65.2614 110.053H63.4525V115.811C63.4525 116.69 63.5348 117.36 63.6995 117.827C63.8641 118.291 64.1523 118.618 64.5639 118.804C64.9756 118.989 65.5542 119.083 66.2997 119.083H67.5232C68.7284 119.083 69.8719 118.71 70.9536 117.966C72.1496 117.134 73.3251 115.971 74.4754 114.482L74.5806 114.336H75.0449L73.476 119.76H57.7764V119.348C58.7346 119.188 59.4298 118.822 59.8643 118.245C60.2005 117.82 60.3697 116.973 60.3697 115.706V105.668C60.3697 104.86 60.3263 104.277 60.2371 103.913C60.1479 103.549 59.9855 103.24 59.7454 102.982C59.3017 102.486 58.6454 102.168 57.7787 102.026V101.614H72.9066L72.902 101.609ZM59.6356 119.083H63.5165L62.9974 118.696C62.6955 118.474 62.5034 118.298 62.4188 118.165C62.3342 118.033 62.293 117.834 62.293 117.566C62.293 117.424 62.293 117.328 62.2862 117.28C62.2816 117.232 62.2793 117.179 62.2793 117.127V104.242C62.2793 104.19 62.2793 104.137 62.2862 104.082C62.2907 104.03 62.293 103.936 62.293 103.803C62.293 103.538 62.3388 103.332 62.4325 103.186C62.5263 103.039 62.7138 102.87 62.9974 102.673L63.7544 102.115H59.3955L60.1525 102.673C60.4543 102.895 60.6464 103.071 60.7311 103.206C60.8157 103.339 60.8568 103.538 60.8568 103.806C60.866 103.957 60.8706 104.103 60.8706 104.245V117.129C60.8706 117.271 60.866 117.417 60.8568 117.568C60.8568 117.843 60.818 118.044 60.7379 118.172C60.6579 118.3 60.4635 118.476 60.1525 118.698L59.6333 119.085L59.6356 119.083ZM68.8473 108.964C68.5981 109.195 68.406 109.353 68.2687 109.436C68.1315 109.52 67.8457 109.646 67.4112 109.815C67.9074 109.957 68.3854 110.245 68.8473 110.68V108.964ZM71.9049 102.104H69.9908C70.487 102.307 70.885 102.529 71.1868 102.769C71.4887 103.009 71.8249 103.375 72.1977 103.872L71.9049 102.104ZM72.5293 119.085L73.2725 116.612C72.9546 116.967 72.6367 117.289 72.3212 117.575C72.0056 117.863 71.6511 118.136 71.2577 118.392C70.8644 118.648 70.4619 118.879 70.0548 119.083H72.527L72.5293 119.085Z" fill="black"/>
<path d="M103.837 101.608L104.249 106.554H103.823C103.558 105.641 103.197 104.852 102.739 104.186C102.282 103.52 101.752 103.01 101.143 102.651C100.535 102.292 99.9014 102.113 99.2359 102.113C98.7122 102.113 98.2594 102.223 97.8729 102.438C97.4864 102.653 97.2005 102.955 97.0153 103.335C96.8369 103.699 96.75 104.284 96.75 105.09V115.7C96.75 116.489 96.8026 117.068 96.9101 117.436C97.0153 117.804 97.2211 118.125 97.5207 118.399C98.0604 118.887 98.8494 119.202 99.8877 119.344V119.756H90.5159V119.344C91.6685 119.184 92.5101 118.82 93.0406 118.253C93.2808 117.997 93.4431 117.681 93.5323 117.308C93.6215 116.935 93.665 116.4 93.665 115.7V105.09C93.665 104.211 93.5461 103.573 93.3059 103.175C93.1207 102.848 92.8417 102.587 92.4689 102.397C92.0961 102.207 91.6662 102.111 91.1791 102.111C90.1774 102.111 89.2627 102.509 88.4348 103.301C87.6069 104.094 86.9872 105.179 86.5801 106.551H86.1685L86.5801 101.605H103.835L103.837 101.608ZM87.0215 102.1L86.8362 104.053C87.2182 103.495 87.5406 103.088 87.8059 102.829C88.0712 102.573 88.4165 102.328 88.8419 102.097H87.0215V102.1ZM92.924 119.081H96.8186L96.2995 118.694C95.9816 118.454 95.7804 118.273 95.7003 118.15C95.6203 118.026 95.5814 117.832 95.5814 117.564V117.125C95.5814 117.054 95.5814 117.006 95.5745 116.979C95.5677 116.951 95.5677 116.926 95.5677 116.899V104.465C95.5677 104.438 95.5677 104.412 95.5745 104.385C95.5814 104.358 95.5814 104.31 95.5814 104.239V103.799C95.5814 103.534 95.6294 103.328 95.7278 103.182C95.8261 103.035 96.0159 102.866 96.2995 102.669L97.0565 102.111H92.9629L93.5872 102.669C93.809 102.864 93.96 103.044 94.04 103.207C94.1201 103.372 94.1589 103.568 94.1589 103.799V104.239C94.1681 104.319 94.1727 104.394 94.1727 104.465V116.899C94.1727 116.969 94.1681 117.045 94.1589 117.125V117.564C94.1589 117.83 94.1178 118.029 94.0332 118.164C93.9485 118.296 93.7564 118.475 93.4546 118.694L92.9217 119.081H92.924ZM102.826 102.1H100.898C101.367 102.294 101.763 102.518 102.081 102.772C102.401 103.024 102.733 103.39 103.078 103.868L102.826 102.1Z" fill="black"/>
<path d="M29.3271 119.759V119.347C30.2671 119.187 30.9531 118.821 31.3877 118.245C31.7147 117.81 31.8793 116.963 31.8793 115.705V105.667C31.8793 104.914 31.8359 104.345 31.7467 103.958C31.6575 103.571 31.4951 103.247 31.255 102.981C30.8297 102.485 30.187 102.167 29.3271 102.025V101.613L29.5398 101.627L31.1361 101.732C31.7033 101.769 32.2613 101.785 32.8101 101.785C33.2698 101.785 33.8164 101.764 34.4453 101.725C35.0742 101.686 35.5521 101.648 35.8815 101.613L37.2239 101.467C37.7018 101.414 38.1981 101.387 38.7127 101.387C39.6251 101.387 40.4507 101.492 41.1917 101.705C41.9303 101.917 42.5638 102.222 43.0852 102.615C43.6089 103.011 44.0114 103.485 44.295 104.038C44.5786 104.592 44.7204 105.207 44.7204 105.88C44.7204 106.925 44.3911 107.804 43.7301 108.513C43.0692 109.222 42.111 109.737 40.8532 110.055C41.8983 110.16 42.82 110.441 43.6181 110.892C44.4162 111.343 45.0291 111.935 45.4591 112.667C45.889 113.399 46.104 114.221 46.104 115.133C46.104 115.877 45.9622 116.545 45.6786 117.135C45.395 117.725 44.9742 118.238 44.4162 118.677C43.8582 119.116 43.1836 119.446 42.3969 119.668C41.6079 119.889 40.7434 119.999 39.8058 119.999C39.3187 119.999 38.6143 119.96 37.6927 119.88C36.3457 119.775 35.4241 119.706 34.9278 119.681C34.1205 119.638 33.3864 119.615 32.7209 119.615C32.1972 119.615 31.6141 119.633 30.9669 119.668L29.597 119.748L29.3317 119.761L29.3271 119.759ZM31.2024 119.054C31.9022 118.965 32.4877 118.922 32.9565 118.922C33.3818 118.922 33.9353 118.958 34.6191 119.027L34.937 119.054L34.4727 118.695C34.1708 118.473 33.9787 118.297 33.8941 118.165C33.8095 118.032 33.7683 117.833 33.7683 117.565V117.126C33.7683 117.046 33.7661 116.993 33.7615 116.966C33.7569 116.938 33.7546 116.918 33.7546 116.899V104.466C33.7546 104.438 33.7546 104.413 33.7615 104.386C33.7661 104.358 33.7683 104.31 33.7683 104.239V103.8C33.7683 103.615 33.7843 103.468 33.8141 103.361C33.8438 103.256 33.9056 103.155 33.9925 103.061C34.0816 102.967 34.2394 102.837 34.4704 102.67L35.1748 102.137L34.6968 102.176C34.0153 102.238 33.4162 102.27 32.9016 102.27C32.3161 102.27 31.669 102.222 30.96 102.123L31.6644 102.668C31.9754 102.899 32.1698 103.077 32.2498 103.205C32.3299 103.334 32.3687 103.53 32.3687 103.798V117.561C32.3687 117.826 32.3299 118.025 32.2498 118.153C32.1698 118.281 31.9754 118.462 31.6644 118.691L31.2001 119.05L31.2024 119.054ZM34.9255 109.959H37.0798C38.3559 109.959 39.3301 109.702 40.0048 109.188C40.4644 108.851 40.8326 108.392 41.1071 107.811C41.3815 107.229 41.5187 106.621 41.5187 105.983C41.5187 105.212 41.354 104.521 41.027 103.908C40.7 103.297 40.2426 102.817 39.6572 102.471C39.0717 102.126 38.4154 101.952 37.6904 101.952C37.1141 101.952 36.6178 102.057 36.2016 102.272C35.7854 102.485 35.4607 102.791 35.232 103.189C35.0284 103.587 34.9255 104.221 34.9255 105.09V109.956V109.959ZM34.9255 110.478V116.076C34.9255 117.229 35.1885 118.041 35.7168 118.517C36.2451 118.99 37.1415 119.228 38.4085 119.228C39.8538 119.228 40.9515 118.817 41.7062 117.991C42.4495 117.176 42.8222 116.161 42.8222 114.946C42.8222 114.431 42.7582 113.955 42.6301 113.516C42.5021 113.077 42.31 112.676 42.0584 112.313C41.8069 111.949 41.5027 111.635 41.1482 111.375C40.7937 111.114 40.3912 110.917 39.9384 110.782C39.3278 110.579 38.4131 110.476 37.201 110.476H34.9278L34.9255 110.478ZM40.0299 109.707C41.1208 109.387 41.9601 108.89 42.5501 108.218C43.1401 107.545 43.4351 106.738 43.4351 105.797C43.4351 104.857 43.1378 104.054 42.5455 103.411C41.9509 102.768 41.075 102.306 39.9133 102.023C41.322 103.016 42.0264 104.315 42.0264 105.919C42.0264 107.621 41.3609 108.883 40.0322 109.709L40.0299 109.707ZM40.6405 119.281C41.473 119.148 42.2048 118.894 42.8337 118.517C43.4626 118.139 43.9474 117.664 44.2904 117.087C44.6312 116.511 44.8027 115.872 44.8027 115.172C44.8027 114.17 44.4711 113.28 43.8056 112.5C43.1401 111.72 42.2116 111.13 41.0133 110.732C42.5547 111.734 43.3254 113.143 43.3254 114.959C43.3254 117.034 42.4312 118.476 40.6405 119.281Z" fill="url(#paint14_linear_206_33848)"/>
<path d="M72.902 101.609L73.4074 106.555H72.9821C72.5224 105.032 71.8363 103.906 70.9284 103.186C70.0205 102.463 68.8405 102.101 67.386 102.101H66.6427C65.481 102.101 64.66 102.325 64.1774 102.774C63.6949 103.222 63.4525 103.968 63.4525 105.013V109.534H65.2203C66.5581 109.534 67.5323 109.323 68.1452 108.902C68.7581 108.482 69.1766 107.722 69.4076 106.622H69.8055V113.35H69.4076C69.2292 112.464 68.9937 111.787 68.6964 111.323C68.3991 110.858 67.9829 110.529 67.4477 110.339C66.9126 110.149 66.1831 110.053 65.2614 110.053H63.4525V115.811C63.4525 116.69 63.5348 117.36 63.6995 117.827C63.8641 118.291 64.1523 118.618 64.5639 118.804C64.9756 118.989 65.5542 119.083 66.2997 119.083H67.5232C68.7284 119.083 69.8719 118.71 70.9536 117.966C72.1496 117.134 73.3251 115.971 74.4754 114.482L74.5806 114.336H75.0449L73.476 119.76H57.7764V119.348C58.7346 119.188 59.4298 118.822 59.8643 118.245C60.2005 117.82 60.3697 116.973 60.3697 115.706V105.668C60.3697 104.86 60.3263 104.277 60.2371 103.913C60.1479 103.549 59.9855 103.24 59.7454 102.982C59.3017 102.486 58.6454 102.168 57.7787 102.026V101.614H72.9066L72.902 101.609ZM59.6356 119.083H63.5165L62.9974 118.696C62.6955 118.474 62.5034 118.298 62.4188 118.165C62.3342 118.033 62.293 117.834 62.293 117.566C62.293 117.424 62.293 117.328 62.2862 117.28C62.2816 117.232 62.2793 117.179 62.2793 117.127V104.242C62.2793 104.19 62.2793 104.137 62.2862 104.082C62.2907 104.03 62.293 103.936 62.293 103.803C62.293 103.538 62.3388 103.332 62.4325 103.186C62.5263 103.039 62.7138 102.87 62.9974 102.673L63.7544 102.115H59.3955L60.1525 102.673C60.4543 102.895 60.6464 103.071 60.7311 103.206C60.8157 103.339 60.8568 103.538 60.8568 103.806C60.866 103.957 60.8706 104.103 60.8706 104.245V117.129C60.8706 117.271 60.866 117.417 60.8568 117.568C60.8568 117.843 60.818 118.044 60.7379 118.172C60.6579 118.3 60.4635 118.476 60.1525 118.698L59.6333 119.085L59.6356 119.083ZM68.8473 108.964C68.5981 109.195 68.406 109.353 68.2687 109.436C68.1315 109.52 67.8457 109.646 67.4112 109.815C67.9074 109.957 68.3854 110.245 68.8473 110.68V108.964ZM71.9049 102.104H69.9908C70.487 102.307 70.885 102.529 71.1868 102.769C71.4887 103.009 71.8249 103.375 72.1977 103.872L71.9049 102.104ZM72.5293 119.085L73.2725 116.612C72.9546 116.967 72.6367 117.289 72.3212 117.575C72.0056 117.863 71.6511 118.136 71.2577 118.392C70.8644 118.648 70.4619 118.879 70.0548 119.083H72.527L72.5293 119.085Z" fill="url(#paint15_linear_206_33848)"/>
<path d="M103.837 101.608L104.249 106.554H103.823C103.558 105.641 103.197 104.852 102.739 104.186C102.282 103.52 101.752 103.01 101.143 102.651C100.535 102.292 99.9014 102.113 99.2359 102.113C98.7122 102.113 98.2594 102.223 97.8729 102.438C97.4864 102.653 97.2005 102.955 97.0153 103.335C96.8369 103.699 96.75 104.284 96.75 105.09V115.7C96.75 116.489 96.8026 117.068 96.9101 117.436C97.0153 117.804 97.2211 118.125 97.5207 118.399C98.0604 118.887 98.8494 119.202 99.8877 119.344V119.756H90.5159V119.344C91.6685 119.184 92.5101 118.82 93.0406 118.253C93.2808 117.997 93.4431 117.681 93.5323 117.308C93.6215 116.935 93.665 116.4 93.665 115.7V105.09C93.665 104.211 93.5461 103.573 93.3059 103.175C93.1207 102.848 92.8417 102.587 92.4689 102.397C92.0961 102.207 91.6662 102.111 91.1791 102.111C90.1774 102.111 89.2627 102.509 88.4348 103.301C87.6069 104.094 86.9872 105.179 86.5801 106.551H86.1685L86.5801 101.605H103.835L103.837 101.608ZM87.0215 102.1L86.8362 104.053C87.2182 103.495 87.5406 103.088 87.8059 102.829C88.0712 102.573 88.4165 102.328 88.8419 102.097H87.0215V102.1ZM92.924 119.081H96.8186L96.2995 118.694C95.9816 118.454 95.7804 118.273 95.7003 118.15C95.6203 118.026 95.5814 117.832 95.5814 117.564V117.125C95.5814 117.054 95.5814 117.006 95.5745 116.979C95.5677 116.951 95.5677 116.926 95.5677 116.899V104.465C95.5677 104.438 95.5677 104.412 95.5745 104.385C95.5814 104.358 95.5814 104.31 95.5814 104.239V103.799C95.5814 103.534 95.6294 103.328 95.7278 103.182C95.8261 103.035 96.0159 102.866 96.2995 102.669L97.0565 102.111H92.9629L93.5872 102.669C93.809 102.864 93.96 103.044 94.04 103.207C94.1201 103.372 94.1589 103.568 94.1589 103.799V104.239C94.1681 104.319 94.1727 104.394 94.1727 104.465V116.899C94.1727 116.969 94.1681 117.045 94.1589 117.125V117.564C94.1589 117.83 94.1178 118.029 94.0332 118.164C93.9485 118.296 93.7564 118.475 93.4546 118.694L92.9217 119.081H92.924ZM102.826 102.1H100.898C101.367 102.294 101.763 102.518 102.081 102.772C102.401 103.024 102.733 103.39 103.078 103.868L102.826 102.1Z" fill="url(#paint16_linear_206_33848)"/>
<defs>
<linearGradient id="paint0_linear_206_33848" x1="0.00228692" y1="80.98" x2="135.408" y2="80.98" gradientUnits="userSpaceOnUse">
<stop stop-color="#C2B87B"/>
<stop offset="0.26" stop-color="#E8DFA1"/>
<stop offset="0.64" stop-color="#BFB679"/>
<stop offset="1" stop-color="#EFE7A7"/>
</linearGradient>
<linearGradient id="paint1_linear_206_33848" x1="0.00211654" y1="80.9794" x2="135.408" y2="80.9794" gradientUnits="userSpaceOnUse">
<stop stop-color="#C2B87B"/>
<stop offset="0.26" stop-color="#E8DFA1"/>
<stop offset="0.64" stop-color="#BFB679"/>
<stop offset="1" stop-color="#EFE7A7"/>
</linearGradient>
<linearGradient id="paint2_linear_206_33848" x1="0.00213645" y1="80.9787" x2="135.408" y2="80.9787" gradientUnits="userSpaceOnUse">
<stop stop-color="#C2B87B"/>
<stop offset="0.26" stop-color="#E8DFA1"/>
<stop offset="0.64" stop-color="#BFB679"/>
<stop offset="1" stop-color="#EFE7A7"/>
</linearGradient>
<linearGradient id="paint3_linear_206_33848" x1="0.00254162" y1="80.9799" x2="135.409" y2="80.9799" gradientUnits="userSpaceOnUse">
<stop stop-color="#C2B87B"/>
<stop offset="0.26" stop-color="#E8DFA1"/>
<stop offset="0.64" stop-color="#BFB679"/>
<stop offset="1" stop-color="#EFE7A7"/>
</linearGradient>
<linearGradient id="paint4_linear_206_33848" x1="0.00237552" y1="80.9803" x2="135.408" y2="80.9803" gradientUnits="userSpaceOnUse">
<stop stop-color="#C2B87B"/>
<stop offset="0.26" stop-color="#E8DFA1"/>
<stop offset="0.64" stop-color="#BFB679"/>
<stop offset="1" stop-color="#EFE7A7"/>
</linearGradient>
<linearGradient id="paint5_linear_206_33848" x1="nan" y1="nan" x2="nan" y2="nan" gradientUnits="userSpaceOnUse">
<stop stop-color="#C2B87B"/>
<stop offset="0.26" stop-color="#E8DFA1"/>
<stop offset="0.64" stop-color="#BFB679"/>
<stop offset="1" stop-color="#EFE7A7"/>
</linearGradient>
<linearGradient id="paint6_linear_206_33848" x1="27.9412" y1="8.50895" x2="97.3195" y2="8.50895" gradientUnits="userSpaceOnUse">
<stop stop-color="#C2B87B"/>
<stop offset="0.26" stop-color="#E8DFA1"/>
<stop offset="0.64" stop-color="#BFB679"/>
<stop offset="1" stop-color="#EFE7A7"/>
</linearGradient>
<linearGradient id="paint7_linear_206_33848" x1="-48.6772" y1="31.2172" x2="97.8592" y2="31.2172" gradientUnits="userSpaceOnUse">
<stop stop-color="#C2B87B"/>
<stop offset="0.26" stop-color="#E8DFA1"/>
<stop offset="0.64" stop-color="#BFB679"/>
<stop offset="1" stop-color="#EFE7A7"/>
</linearGradient>
<linearGradient id="paint8_linear_206_33848" x1="27.7972" y1="49.27" x2="97.1753" y2="49.27" gradientUnits="userSpaceOnUse">
<stop stop-color="#C2B87B"/>
<stop offset="0.26" stop-color="#E8DFA1"/>
<stop offset="0.64" stop-color="#BFB679"/>
<stop offset="1" stop-color="#EFE7A7"/>
</linearGradient>
<linearGradient id="paint9_linear_206_33848" x1="27.7972" y1="49.27" x2="97.1753" y2="49.27" gradientUnits="userSpaceOnUse">
<stop stop-color="#C2B87B"/>
<stop offset="0.26" stop-color="#E8DFA1"/>
<stop offset="0.64" stop-color="#BFB679"/>
<stop offset="1" stop-color="#EFE7A7"/>
</linearGradient>
<linearGradient id="paint10_linear_206_33848" x1="24.1452" y1="2.99914" x2="98.3762" y2="2.99914" gradientUnits="userSpaceOnUse">
<stop stop-color="#C2B87B"/>
<stop offset="0.26" stop-color="#E8DFA1"/>
<stop offset="0.64" stop-color="#BFB679"/>
<stop offset="1" stop-color="#EFE7A7"/>
</linearGradient>
<linearGradient id="paint11_linear_206_33848" x1="24.1452" y1="2.99914" x2="98.3762" y2="2.99914" gradientUnits="userSpaceOnUse">
<stop stop-color="#C2B87B"/>
<stop offset="0.26" stop-color="#E8DFA1"/>
<stop offset="0.64" stop-color="#BFB679"/>
<stop offset="1" stop-color="#EFE7A7"/>
</linearGradient>
<linearGradient id="paint12_linear_206_33848" x1="28.6983" y1="57.4133" x2="97.0062" y2="57.4133" gradientUnits="userSpaceOnUse">
<stop stop-color="#C2B87B"/>
<stop offset="0.26" stop-color="#E8DFA1"/>
<stop offset="0.64" stop-color="#BFB679"/>
<stop offset="1" stop-color="#EFE7A7"/>
</linearGradient>
<linearGradient id="paint13_linear_206_33848" x1="33.4072" y1="48.9312" x2="90.484" y2="48.9312" gradientUnits="userSpaceOnUse">
<stop stop-color="#C2B87B"/>
<stop offset="0.26" stop-color="#E8DFA1"/>
<stop offset="0.64" stop-color="#BFB679"/>
<stop offset="1" stop-color="#EFE7A7"/>
</linearGradient>
<linearGradient id="paint14_linear_206_33848" x1="29.3271" y1="110.691" x2="104.249" y2="110.691" gradientUnits="userSpaceOnUse">
<stop stop-color="#C2B87B"/>
<stop offset="0.26" stop-color="#E8DFA1"/>
<stop offset="0.64" stop-color="#BFB679"/>
<stop offset="1" stop-color="#EFE7A7"/>
</linearGradient>
<linearGradient id="paint15_linear_206_33848" x1="29.3271" y1="110.691" x2="104.249" y2="110.691" gradientUnits="userSpaceOnUse">
<stop stop-color="#C2B87B"/>
<stop offset="0.26" stop-color="#E8DFA1"/>
<stop offset="0.64" stop-color="#BFB679"/>
<stop offset="1" stop-color="#EFE7A7"/>
</linearGradient>
<linearGradient id="paint16_linear_206_33848" x1="29.3272" y1="110.69" x2="104.249" y2="110.69" gradientUnits="userSpaceOnUse">
<stop stop-color="#C2B87B"/>
<stop offset="0.26" stop-color="#E8DFA1"/>
<stop offset="0.64" stop-color="#BFB679"/>
<stop offset="1" stop-color="#EFE7A7"/>
</linearGradient>
</defs>
</svg>
