<svg width="22" height="27" viewBox="0 0 22 27" fill="none" xmlns="http://www.w3.org/2000/svg">
<path d="M16.5341 0H1.20735C0.540528 0 0 0.540526 0 1.20734V25.1269C0 25.7937 0.540528 26.3342 1.20735 26.3342H16.5341C19.2822 26.3342 21.51 24.1065 21.51 21.3584V4.97587C21.51 2.22778 19.2822 0 16.5341 0ZM10.9268 8.16851C12.5382 8.16851 13.8416 9.47689 13.8416 11.0833C13.8416 12.6897 12.5332 13.9981 10.9268 13.9981C9.32033 13.9981 8.01194 12.6897 8.01194 11.0833C8.01194 9.47689 9.32033 8.16851 10.9268 8.16851ZM16.2815 18.777H5.57199V17.8929C5.57199 16.5643 6.64799 15.4883 7.97658 15.4883H13.882C15.2106 15.4883 16.2866 16.5643 16.2866 17.8929V18.777H16.2815Z" fill="url(#paint0_linear_270_38529)"/>
<defs>
<linearGradient id="paint0_linear_270_38529" x1="4.00655e-08" y1="13.1671" x2="21.51" y2="13.1671" gradientUnits="userSpaceOnUse">
<stop stop-color="#D2BB6E"/>
<stop offset="1" stop-color="#F6E79A"/>
</linearGradient>
</defs>
</svg>
