<svg width="22" height="23" viewBox="0 0 22 23" fill="none" xmlns="http://www.w3.org/2000/svg">
<path fill-rule="evenodd" clip-rule="evenodd" d="M13.5638 6.15752C13.9852 3.55281 12.2152 1.09966 9.61052 0.678253C7.00579 0.256849 4.55263 2.02677 4.13122 4.63148C3.70982 7.23619 5.47974 9.68934 8.08447 10.1107C10.6892 10.5321 13.1424 8.76223 13.5638 6.15752ZM12.7057 18.9858C12.7057 16.5515 14.4773 14.5331 16.8033 14.1476C16.0842 13.212 14.9537 12.6056 13.6846 12.6056H4.00816C1.83377 12.6056 0.0751953 14.3685 0.0751953 16.5385V22.321H14.0181C13.2082 21.4461 12.7057 20.2766 12.7057 18.9901V18.9858ZM13.65 18.986C13.65 16.7943 15.4259 15.0184 17.6176 15.0184C19.8093 15.0184 21.5852 16.7943 21.5852 18.986C21.5852 21.1777 19.8093 22.9536 17.6176 22.9536C15.4259 22.9536 13.65 21.1777 13.65 18.986ZM18.2933 19.5404H19.8006V18.228H18.2933V16.7337H16.9809V18.228H15.4865V19.5404H16.9809V21.0478H18.2933V19.5404Z" fill="url(#paint0_linear_270_38524)"/>
<defs>
<linearGradient id="paint0_linear_270_38524" x1="0.0751954" y1="11.7849" x2="21.5852" y2="11.7849" gradientUnits="userSpaceOnUse">
<stop stop-color="#D2BB6E"/>
<stop offset="1" stop-color="#F6E79A"/>
</linearGradient>
</defs>
</svg>
