<svg width="22" height="21" viewBox="0 0 22 21" fill="none" xmlns="http://www.w3.org/2000/svg">
<path fill-rule="evenodd" clip-rule="evenodd" d="M9.66514 19.3261C4.33588 19.3261 0 14.9902 0 9.66507C0 4.33992 4.33588 0 9.66514 0C14.9944 0 19.3303 4.33585 19.3303 9.66507C19.3303 11.7572 18.662 13.6957 17.5278 15.2786L21.1379 18.809C21.6265 19.2894 21.6346 20.0752 21.1583 20.5637C20.914 20.8121 20.5924 20.9383 20.2707 20.9383C19.9572 20.9383 19.6438 20.8202 19.4036 20.5841L15.8363 17.0957C14.1611 18.488 12.0092 19.3261 9.66514 19.3261ZM16.8468 9.661C16.8468 11.4987 16.1529 13.1768 15.0138 14.4481C14.9947 14.4652 14.976 14.4831 14.9578 14.5017C14.923 14.5373 14.8908 14.5746 14.8612 14.6131C13.552 15.9861 11.706 16.8426 9.66514 16.8426C5.70789 16.8426 2.48346 13.6182 2.48346 9.661C2.48346 5.70378 5.70382 2.47937 9.66514 2.47937C13.6224 2.47937 16.8468 5.69971 16.8468 9.661ZM4.71869 10.2436L8.27289 13.7977L14.6077 7.46293L13.252 6.10314L8.27289 11.0822L6.07442 8.88786L4.71869 10.2436Z" fill="url(#paint0_linear_270_38530)"/>
<defs>
<linearGradient id="paint0_linear_270_38530" x1="4.00655e-08" y1="10.4691" x2="21.51" y2="10.4691" gradientUnits="userSpaceOnUse">
<stop stop-color="#D2BB6E"/>
<stop offset="1" stop-color="#F6E79A"/>
</linearGradient>
</defs>
</svg>
